<?xml version="1.0" standalone="no"?>
<!DOCTYPE svg PUBLIC "-//W3C//DTD SVG 1.1//EN" "http://www.w3.org/Graphics/SVG/1.1/DTD/svg11.dtd" >
<svg>
<metadata>
Created by FontForge 20110222 at Wed Sep 25 06:13:36 2013
 By Orthosie Webhosting
Copyright (c) 2010 by Process Type Foundry, LLC. All rights reserved.
</metadata>
<defs>
<font id="AnchorMedium" horiz-adv-x="404" >
  <font-face 
    font-family="AnchorMedium"
    font-weight="500"
    font-stretch="normal"
    units-per-em="1000"
    panose-1="2 11 5 6 6 0 0 2 0 4"
    ascent="750"
    descent="-250"
    x-height="506"
    cap-height="710"
    bbox="-23 -211 980 924"
    underline-thickness="40"
    underline-position="-60"
    unicode-range="U+0020-FB04"
  />
<missing-glyph horiz-adv-x="626" 
d="M70 0v700h486v-700h-486zM97 26h432v648h-432v-648zM419 552l-98 -202l98 -201l-14 -7l-92 193l-92 -193l-14 7l97 201l-97 202l14 7l92 -193l92 193z" />
    <glyph glyph-name="f_f" unicode="ff" horiz-adv-x="463" 
d="M5 463q0 43 43 43h16v103q0 103 100 103q68 0 68 -47q0 -43 -40 -43q-26 0 -26 -28v-88h118v93q0 113 105 113q74 0 74 -45t-48 -45h-3q-26 0 -26 -28v-88h32q43 0 43 -43t-43 -43h-32v-377q0 -23 -14 -37t-37 -14t-37 14t-14 37v377h-118v-377q0 -23 -14 -37t-37 -14
t-37 14t-14 37v377h-16q-43 0 -43 43z" />
    <glyph glyph-name="fi" unicode="fi" horiz-adv-x="420" 
d="M5 463q0 43 43 43h16v103q0 103 100 103q68 0 68 -47q0 -43 -40 -43q-26 0 -26 -28v-88h23q20 0 31.5 -11.5t11.5 -31.5t-11.5 -31.5t-31.5 -11.5h-23v-377q0 -23 -14 -37t-37 -14t-37 14t-14 37v377h-16q-43 0 -43 43zM375 463v-420q0 -23 -14 -37t-37 -14t-37 14
t-14 37v420q0 23 14 37t37 14t37 -14t14 -37zM384 646q0 -26 -16 -43.5t-44 -17.5t-44 17.5t-16 43.5t16 44t44 18t44 -18t16 -44z" />
    <glyph glyph-name="fl" unicode="fl" horiz-adv-x="427" 
d="M382 657v-614q0 -23 -14 -37t-37 -14t-37 14t-14 37v614q0 23 14 37t37 14t37 -14t14 -37zM5 463q0 43 43 43h16v103q0 103 100 103q68 0 68 -47q0 -43 -40 -43q-26 0 -26 -28v-88h23q20 0 31.5 -11.5t11.5 -31.5t-11.5 -31.5t-31.5 -11.5h-23v-377q0 -23 -14 -37
t-37 -14t-37 14t-14 37v377h-16q-43 0 -43 43z" />
    <glyph glyph-name="f_f_i" unicode="ffi" horiz-adv-x="640" 
d="M5 463q0 43 43 43h16v103q0 103 100 103q68 0 68 -47q0 -43 -40 -43q-26 0 -26 -28v-88h118v103q0 103 100 103q68 0 68 -47q0 -43 -40 -43q-26 0 -26 -28v-88h23q20 0 31.5 -11.5t11.5 -31.5t-11.5 -31.5t-31.5 -11.5h-23v-377q0 -23 -14 -37t-37 -14t-37 14t-14 37v377
h-118v-377q0 -23 -14 -37t-37 -14t-37 14t-14 37v377h-16q-43 0 -43 43zM595 463v-420q0 -23 -14 -37t-37 -14t-37 14t-14 37v420q0 23 14 37t37 14t37 -14t14 -37zM604 646q0 -26 -16 -43.5t-44 -17.5t-44 17.5t-16 43.5t16 44t44 18t44 -18t16 -44z" />
    <glyph glyph-name="f_f_l" unicode="ffl" horiz-adv-x="647" 
d="M5 463q0 43 43 43h16v103q0 103 100 103q68 0 68 -47q0 -43 -40 -43q-26 0 -26 -28v-88h118v103q0 103 100 103q68 0 68 -47q0 -43 -40 -43q-26 0 -26 -28v-88h23q20 0 31.5 -11.5t11.5 -31.5t-11.5 -31.5t-31.5 -11.5h-23v-377q0 -23 -14 -37t-37 -14t-37 14t-14 37v377
h-118v-377q0 -23 -14 -37t-37 -14t-37 14t-14 37v377h-16q-43 0 -43 43zM602 657v-614q0 -23 -14 -37t-37 -14t-37 14t-14 37v614q0 23 14 37t37 14t37 -14t14 -37z" />
    <glyph glyph-name=".notdef" horiz-adv-x="626" 
d="M70 0v700h486v-700h-486zM97 26h432v648h-432v-648zM419 552l-98 -202l98 -201l-14 -7l-92 193l-92 -193l-14 7l97 201l-97 202l14 7l92 -193l92 193z" />
    <glyph glyph-name=".null" horiz-adv-x="0" 
 />
    <glyph glyph-name="nonmarkingreturn" horiz-adv-x="333" 
 />
    <glyph glyph-name="space" unicode=" " horiz-adv-x="160" 
 />
    <glyph glyph-name="exclam" unicode="!" horiz-adv-x="230" 
d="M84 193l-22 174v290q0 23 15 37t38 14t38 -14t15 -37v-290l-22 -174q-3 -27 -31 -27t-31 27zM53 55q0 26 17 44.5t45 18.5t45 -18.5t17 -44.5t-17 -44.5t-45 -18.5t-45 18.5t-17 44.5z" />
    <glyph glyph-name="quotedbl" unicode="&#x22;" horiz-adv-x="326" 
d="M131 665v-189q0 -20 -11.5 -31.5t-31.5 -11.5t-31.5 11.5t-11.5 31.5v189q0 19 11.5 31t31.5 12t31.5 -12t11.5 -31zM281 665v-189q0 -20 -11.5 -31.5t-31.5 -11.5t-31.5 11.5t-11.5 31.5v189q0 19 11.5 31t31.5 12t31.5 -12t11.5 -31z" />
    <glyph glyph-name="numbersign" unicode="#" horiz-adv-x="513" 
d="M239 661l-14 -143h104l15 152q4 40 43 40q20 0 32.5 -13t10.5 -36l-14 -143h43q20 0 32 -11t12 -30t-12 -30t-32 -11h-51l-15 -152h45q20 0 32 -11t12 -30t-12 -30t-32 -11h-53l-17 -172q-2 -19 -14.5 -29.5t-29.5 -10.5q-21 0 -32.5 13.5t-9.5 35.5l16 163h-104
l-17 -172q-2 -19 -14.5 -29.5t-29.5 -10.5q-21 0 -32.5 13.5t-9.5 35.5l16 163h-48q-20 0 -32 11t-12 30t12 30t32 11h56l15 152h-53q-20 0 -32 11t-12 30t12 30t32 11h61l15 152q4 40 43 40q20 0 32.5 -13t10.5 -36zM217 436l-15 -152h104l15 152h-104z" />
    <glyph glyph-name="dollar" unicode="$" horiz-adv-x="351" 
d="M127 -64v71q-48 14 -75 55.5t-27 100.5v18q0 51 49 51q24 0 36.5 -13.5t12.5 -37.5v-20q0 -72 53 -72t53 71q0 50 -18.5 80.5t-67.5 75.5q-61 55 -89.5 106.5t-28.5 116.5q0 125 103 154v71q0 20 13.5 33t33.5 13t33.5 -13t13.5 -33v-70q46 -14 72 -53.5t26 -100.5v-30
q0 -22 -14 -35.5t-37 -13.5q-22 0 -35 13.5t-13 35.5v30q0 69 -46 69q-48 0 -48 -68q0 -45 20 -77t66 -76q36 -34 56.5 -57.5t41 -69t20.5 -96.5q0 -59 -29.5 -102.5t-80.5 -57.5v-69q0 -20 -13.5 -33t-33.5 -13t-33.5 13t-13.5 33z" />
    <glyph glyph-name="percent" unicode="%" horiz-adv-x="663" 
d="M450 669l-164 -651q-8 -28 -34 -28q-18 0 -28 11.5t-6 29.5l165 653q7 26 33 26q19 0 28.5 -11.5t5.5 -29.5zM272 595v-167q0 -57 -31 -87t-85 -30t-85 30t-31 87v167q0 57 31 87t85 30t85 -30t31 -87zM186 418v187q0 34 -30 34t-30 -34v-187q0 -34 30 -34t30 34z
M628 272v-167q0 -57 -31 -87t-85 -30t-85 30t-31 87v167q0 57 31 87t85 30t85 -30t31 -87zM542 95v187q0 34 -30 34t-30 -34v-187q0 -34 30 -34t30 34z" />
    <glyph glyph-name="ampersand" unicode="&#x26;" horiz-adv-x="512" 
d="M25 141q0 59 30.5 104.5t85.5 93.5q-34 90 -34 193q0 79 35 130.5t114 51.5q58 0 92 -38t34 -99q0 -116 -139 -253q36 -76 99 -141q21 45 51 141q9 30 40 30q20 0 33.5 -15t7.5 -38q-31 -106 -71 -176q29 -26 64 -52q24 -18 24 -42q0 -19 -12.5 -32t-31.5 -13
q-16 0 -30 11q-36 27 -68 56q-67 -67 -153 -67q-84 0 -127.5 42t-43.5 113zM201 62q52 0 93 44q-73 76 -116 155q-32 -32 -46.5 -58.5t-14.5 -61.5q0 -37 22 -58t62 -21zM198 534q0 -73 16 -131q81 83 81 171q0 63 -45 63q-17 0 -28 -9t-16 -25.5t-6.5 -32t-1.5 -36.5z" />
    <glyph glyph-name="quotesingle" unicode="'" horiz-adv-x="176" 
d="M131 665v-189q0 -20 -11.5 -31.5t-31.5 -11.5t-31.5 11.5t-11.5 31.5v189q0 19 11.5 31t31.5 12t31.5 -12t11.5 -31z" />
    <glyph glyph-name="parenleft" unicode="(" horiz-adv-x="261" 
d="M166 793q14 24 42 24q19 0 33 -12.5t14 -32.5q0 -15 -8 -30q-57 -109 -80 -204.5t-23 -207.5t23 -207.5t80 -204.5q8 -15 8 -30q0 -20 -14 -32.5t-33 -12.5q-28 0 -42 24q-126 218 -126 463t126 463z" />
    <glyph glyph-name="parenright" unicode=")" horiz-adv-x="261" 
d="M95 793q126 -218 126 -463t-126 -463q-14 -24 -42 -24q-19 0 -33 12.5t-14 32.5q0 15 8 30q57 109 80 204.5t23 207.5t-23 207.5t-80 204.5q-8 15 -8 30q0 20 14 32.5t33 12.5q28 0 42 -24z" />
    <glyph glyph-name="asterisk" unicode="*" horiz-adv-x="364" 
d="M316 502q30 -16 12 -47q-17 -31 -47 -13q-44 25 -83 70q19 -62 19 -107q0 -16 -9.5 -25.5t-25.5 -9.5t-25.5 9.5t-9.5 25.5q0 50 19 107q-40 -45 -83 -70q-30 -18 -47 13q-18 31 12 47q43 24 103 37q-60 11 -103 37q-30 16 -12 47q17 31 47 13q43 -25 83 -70
q-19 55 -19 107q0 16 9.5 25.5t25.5 9.5t25.5 -9.5t9.5 -25.5q0 -47 -19 -107q41 47 83 70q30 18 47 -13q18 -31 -12 -47q-43 -25 -103 -37q62 -14 103 -37z" />
    <glyph glyph-name="plus" unicode="+" horiz-adv-x="458" 
d="M183 187v119h-109q-20 0 -32 12t-12 32t12 32t32 12h109v119q0 20 13 33t33 13t33 -13t13 -33v-119h109q20 0 32 -12t12 -32t-12 -32t-32 -12h-109v-119q0 -20 -13 -33t-33 -13t-33 13t-13 33z" />
    <glyph glyph-name="comma" unicode="," horiz-adv-x="184" 
d="M30 58q0 26 17.5 43t43.5 17q27 0 45 -19t18 -50q0 -44 -21 -85.5t-55 -68.5q-8 -6 -16 -6q-10 0 -18 7.5t-8 17.5t7 17q32 36 43 63q-24 4 -40 20.5t-16 43.5z" />
    <glyph glyph-name="hyphen" unicode="-" horiz-adv-x="270" 
d="M73 245q-22 0 -35 12t-13 33t13 33t35 12h124q22 0 35 -12t13 -33t-13 -33t-35 -12h-124z" />
    <glyph glyph-name="period" unicode="." horiz-adv-x="184" 
d="M30 55q0 26 17 44.5t45 18.5t45 -18.5t17 -44.5t-17 -44.5t-45 -18.5t-45 18.5t-17 44.5z" />
    <glyph glyph-name="slash" unicode="/" horiz-adv-x="274" 
d="M243 699l-118 -707q-7 -42 -46 -42q-22 0 -34.5 13.5t-8.5 36.5l118 713q6 37 45 37q21 0 34.5 -14t9.5 -37z" />
    <glyph glyph-name="zero" unicode="0" horiz-adv-x="394" 
d="M38 151v398q0 79 42 122t117 43t117 -43t42 -122v-398q0 -79 -42 -122t-117 -43t-117 43t-42 122zM252 133v434q0 27 -14.5 42.5t-40.5 15.5t-40.5 -15.5t-14.5 -42.5v-434q0 -27 14.5 -42.5t40.5 -15.5t40.5 15.5t14.5 42.5z" />
    <glyph glyph-name="one" unicode="1" horiz-adv-x="277" 
d="M222 659v-618q0 -23 -14.5 -37t-37.5 -14t-37.5 14t-14.5 37v543l-37 -17q-17 -7 -30 -7q-20 0 -33 12.5t-13 35.5q0 26 23 38l117 59q12 5 25 5q23 0 37.5 -14t14.5 -37z" />
    <glyph glyph-name="two" unicode="2" horiz-adv-x="356" 
d="M131 564v-44q0 -23 -13.5 -37t-36.5 -14t-36.5 14t-13.5 37v39q0 75 38.5 115t114.5 40q71 0 110.5 -39.5t39.5 -111.5q0 -97 -57 -200l-149 -275h159q19 0 31.5 -13t12.5 -31t-12.5 -31t-31.5 -13h-203q-26 0 -44 17t-18 43q0 30 20 68l143 272q25 48 35 80.5t10 85.5
q0 60 -50 60q-49 0 -49 -62z" />
    <glyph glyph-name="three" unicode="3" horiz-adv-x="384" 
d="M42 538v30q0 71 39.5 108.5t104.5 37.5q149 0 149 -153v-98q0 -69 -53 -101q28 -12 47 -41t19 -73v-92q0 -82 -40.5 -126t-117.5 -44q-74 0 -115 41t-41 119v26q0 23 14 37t37 14t37 -14t14 -37v-35q0 -63 54 -63t54 60v114q0 34 -15.5 49.5t-49.5 15.5h-51q-20 0 -32 12
t-12 33t12 33t32 12h47q56 0 56 49v123q0 51 -43 51q-44 0 -44 -54v-34q0 -23 -14 -37t-37 -14t-37 14t-14 37z" />
    <glyph glyph-name="four" unicode="4" horiz-adv-x="387" 
d="M223 645l-106 -392h97v113q0 23 13 37t36 14t36 -14t13 -37v-113h32q43 0 43 -43t-43 -43h-32v-124q0 -23 -13 -37t-36 -14t-36 14t-13 37v124h-149q-25 0 -38.5 13.5t-13.5 35.5q0 10 3 20l117 433q10 35 45 35q26 0 39 -16t6 -43z" />
    <glyph glyph-name="five" unicode="5" horiz-adv-x="379" 
d="M45 353l19 296q3 51 45 51h187q19 0 31.5 -13t12.5 -31t-12.5 -31t-31.5 -13h-139l-13 -188q25 36 80 36q120 0 120 -136v-173q0 -74 -40 -119.5t-113 -45.5q-71 0 -111 40t-40 110v35q0 23 14 37t37 14t37 -14t14 -37v-40q0 -57 49 -57t49 61v186q0 50 -42 50
q-32 0 -49 -38q-18 -37 -51 -37q-26 0 -40.5 15.5t-12.5 41.5z" />
    <glyph glyph-name="six" unicode="6" horiz-adv-x="380" 
d="M231 698q18 12 37 12t31 -12.5t12 -30.5q0 -24 -21 -41q-39 -33 -57 -49t-41 -43.5t-35 -58t-19 -71.5q30 36 86 36q61 0 93.5 -37t32.5 -108v-141q0 -79 -42.5 -123.5t-114.5 -44.5q-78 0 -117.5 42.5t-39.5 121.5v178q0 133 50 219.5t145 150.5zM246 130v166
q0 55 -52 55q-32 0 -54 -20v-201q0 -56 53 -56q26 0 39.5 15.5t13.5 40.5z" />
    <glyph glyph-name="seven" unicode="7" horiz-adv-x="323" 
d="M49 612q-19 0 -31.5 13t-12.5 31t12.5 31t31.5 13h222q19 0 31.5 -12t12.5 -32q0 -6 -2 -16l-167 -612q-11 -38 -46 -38q-27 0 -40 17t-6 43l154 562h-159z" />
    <glyph glyph-name="eight" unicode="8" horiz-adv-x="398" 
d="M362 226v-71q0 -79 -42.5 -124t-120.5 -45t-120.5 45t-42.5 124v71q0 89 60 130q-47 38 -47 112v85q0 161 150 161t150 -161v-85q0 -74 -47 -112q60 -39 60 -130zM248 463v102q0 31 -10.5 46.5t-38.5 15.5t-38.5 -15.5t-10.5 -46.5v-102q0 -34 11 -50.5t38 -16.5t38 16.5
t11 50.5zM258 140v98q0 71 -59 71t-59 -71v-98q0 -67 59 -67t59 67z" />
    <glyph glyph-name="nine" unicode="9" horiz-adv-x="382" 
d="M151 2q-16 -12 -37 -12q-18 0 -30.5 12.5t-12.5 30.5q0 24 21 41q68 55 103 102t49 120q-30 -36 -86 -36q-60 0 -93 38.5t-33 106.5v142q0 82 41.5 124.5t115.5 42.5q78 0 117.5 -42.5t39.5 -121.5v-178q0 -70 -14.5 -127t-43 -101t-60 -76t-77.5 -66zM136 570v-166
q0 -55 52 -55q31 0 54 20v201q0 56 -53 56q-26 0 -39.5 -15.5t-13.5 -40.5z" />
    <glyph glyph-name="colon" unicode=":" horiz-adv-x="184" 
d="M30 55q0 26 17 44.5t45 18.5t45 -18.5t17 -44.5t-17 -44.5t-45 -18.5t-45 18.5t-17 44.5zM30 363q0 26 17 44.5t45 18.5t45 -18.5t17 -44.5t-17 -44.5t-45 -18.5t-45 18.5t-17 44.5z" />
    <glyph glyph-name="semicolon" unicode=";" horiz-adv-x="185" 
d="M30 363q0 26 17 44.5t45 18.5t45 -18.5t17 -44.5t-17 -44.5t-45 -18.5t-45 18.5t-17 44.5zM31 58q0 26 17.5 43t43.5 17q27 0 45 -19t18 -50q0 -44 -21 -85.5t-55 -68.5q-8 -6 -16 -6q-10 0 -18 7.5t-8 17.5t7 17q32 36 43 63q-24 4 -40 20.5t-16 43.5z" />
    <glyph glyph-name="less" unicode="&#x3c;" horiz-adv-x="438" 
d="M51 390l287 162q12 6 23 6q18 0 30 -12.5t12 -31.5q0 -26 -26 -40l-223 -124l223 -124q26 -14 26 -40q0 -19 -11.5 -31.5t-30.5 -12.5q-11 0 -23 6l-287 162q-26 14 -26 40t26 40z" />
    <glyph glyph-name="equal" unicode="=" horiz-adv-x="478" 
d="M40 260q0 20 12 32t32 12h310q20 0 32 -12t12 -32t-12 -32t-32 -12h-310q-20 0 -32 12t-12 32zM40 440q0 20 12 32t32 12h310q20 0 32 -12t12 -32t-12 -32t-32 -12h-310q-20 0 -32 12t-12 32z" />
    <glyph glyph-name="greater" unicode="&#x3e;" horiz-adv-x="438" 
d="M100 552l287 -162q26 -14 26 -40t-26 -40l-287 -162q-12 -6 -23 -6q-19 0 -30.5 12.5t-11.5 31.5q0 26 26 40l223 124l-223 124q-26 14 -26 40q0 19 12 31.5t30 12.5q11 0 23 -6z" />
    <glyph glyph-name="question" unicode="?" horiz-adv-x="346" 
d="M90 55q0 26 17 44.5t45 18.5t45 -18.5t17 -44.5t-17 -44.5t-45 -18.5t-45 18.5t-17 44.5zM115 249l55 140q3 9 13 32.5t15 36.5t9.5 32.5t4.5 34.5v54q0 48 -44 48q-46 0 -46 -50v-75q0 -23 -14 -37t-37 -14t-37 14t-14 37v57q0 74 39 114.5t111 40.5q69 0 107.5 -37
t38.5 -109v-44q0 -78 -51 -173l-73 -137q-13 -25 -40 -25q-17 0 -29 11t-12 28q0 12 4 21z" />
    <glyph glyph-name="at" unicode="@" horiz-adv-x="710" 
d="M685 427q0 -105 -48 -174t-132 -69q-38 0 -68.5 15.5t-41.5 38.5q-43 -41 -96 -41q-33 0 -55.5 21t-22.5 58q0 6 2 22l25 141q15 85 98 85q45 0 70 -33q9 28 42 28q18 0 28.5 -10.5t6.5 -29.5l-39 -222q16 -16 51 -16q39 0 65.5 29t36.5 68t10 85q0 102 -68 166t-175 64
q-132 0 -203 -94.5t-71 -238.5q0 -126 72 -199.5t191 -73.5q81 0 165 32q9 4 18 4q13 0 21 -8.5t8 -20.5q0 -20 -19 -29q-89 -39 -200 -39q-147 0 -236.5 96t-89.5 235q0 111 38 199.5t119 143t194 54.5q132 0 218 -78t86 -209zM373 279l30 170q-16 8 -35 8q-31 0 -36 -29
l-23 -130q-6 -35 25 -35q25 0 39 16z" />
    <glyph glyph-name="A" unicode="A" horiz-adv-x="390" 
d="M251 660l116 -606q6 -29 -10 -46.5t-40 -17.5q-19 0 -34 13t-19 37l-17 122h-105l-16 -122q-4 -25 -18.5 -37.5t-34.5 -12.5q-24 0 -40 17.5t-10 46.5l116 606q10 50 56 50t56 -50zM191 522l-36 -268h80l-36 268q0 1 -1.5 13.5t-2.5 20.5q0 -5 -4 -34z" />
    <glyph glyph-name="B" unicode="B" horiz-adv-x="405" 
d="M50 53v594q0 23 15 38t38 15h106q74 0 113.5 -37.5t39.5 -108.5v-79q0 -76 -59 -114q35 -12 56 -45.5t21 -79.5v-82q0 -68 -44 -111t-118 -43h-115q-23 0 -38 15t-15 38zM275 161v82q0 69 -65 69h-55v-219h52q68 0 68 68zM257 464v81q0 33 -13.5 47.5t-45.5 14.5h-43
v-202h47q26 0 40.5 15.5t14.5 43.5z" />
    <glyph glyph-name="C" unicode="C" horiz-adv-x="383" 
d="M197 714q76 0 117 -45.5t41 -123.5v-53q0 -23 -13.5 -37t-36.5 -14t-36.5 14t-13.5 37v70q0 61 -57 61q-56 0 -56 -61v-424q0 -61 56 -61q57 0 57 61v70q0 23 13.5 37t36.5 14t36.5 -14t13.5 -37v-53q0 -78 -41 -123.5t-117 -45.5q-78 0 -119.5 45t-41.5 124v390
q0 79 41.5 124t119.5 45z" />
    <glyph glyph-name="D" unicode="D" horiz-adv-x="413" 
d="M50 647q0 23 15 38t38 15h92q91 0 136.5 -49t45.5 -136v-330q0 -87 -45.5 -136t-136.5 -49h-92q-23 0 -38 15t-15 38v594zM156 93h40q37 0 56 20.5t19 55.5v362q0 35 -19 55.5t-56 20.5h-40v-514z" />
    <glyph glyph-name="E" unicode="E" horiz-adv-x="366" 
d="M50 53v594q0 23 15 38t38 15h200q21 0 34 -13.5t13 -33.5q0 -21 -13 -34t-34 -13h-147v-204h114q20 0 33.5 -13.5t13.5 -33.5q0 -21 -13.5 -34t-33.5 -13h-114v-214h148q21 0 34 -13.5t13 -33.5t-13 -33.5t-34 -13.5h-201q-23 0 -38 15t-15 38z" />
    <glyph glyph-name="F" unicode="F" horiz-adv-x="339" 
d="M156 303v-260q0 -23 -15 -38t-38 -15t-38 15t-15 38v604q0 23 15 38t38 15h186q21 0 34 -13.5t13 -33.5q0 -21 -13 -34t-34 -13h-133v-209h100q20 0 33.5 -13.5t13.5 -33.5q0 -21 -13.5 -34t-33.5 -13h-100z" />
    <glyph glyph-name="G" unicode="G" horiz-adv-x="392" 
d="M182 309q0 22 12.5 34.5t34.5 12.5h82q48 0 48 -48v-155q0 -76 -42 -121.5t-121 -45.5q-74 0 -117 46t-43 119v397q0 85 44.5 125.5t119.5 40.5q76 0 116.5 -42.5t40.5 -123.5v-37q0 -23 -14 -37t-37 -14t-37 14t-14 37v52q0 29 -15 44.5t-41 15.5t-41.5 -15.5
t-15.5 -45.5v-425q0 -29 15 -45.5t43 -16.5q29 0 44 17t15 46v124h-30q-22 0 -34.5 12.5t-12.5 34.5z" />
    <glyph glyph-name="H" unicode="H" horiz-adv-x="431" 
d="M275 43v265h-119v-265q0 -23 -15 -38t-38 -15t-38 15t-15 38v614q0 23 15 38t38 15t38 -15t15 -38v-250h119v250q0 23 15 38t38 15q24 0 38.5 -15t14.5 -38v-614q0 -23 -14.5 -38t-38.5 -15q-23 0 -38 15t-15 38z" />
    <glyph glyph-name="I" unicode="I" horiz-adv-x="206" 
d="M50 43v614q0 23 14.5 38t38.5 15q23 0 38 -15t15 -38v-614q0 -23 -15 -38t-38 -15q-24 0 -38.5 15t-14.5 38z" />
    <glyph glyph-name="J" unicode="J" horiz-adv-x="385" 
d="M339 657v-504q0 -76 -41.5 -121.5t-114.5 -45.5t-112 42.5t-39 116.5v85q0 23 14 37t37 14t37 -14t14 -37v-92q0 -61 49 -61q50 0 50 62v518q0 23 14.5 38t38.5 15q23 0 38 -15t15 -38z" />
    <glyph glyph-name="K" unicode="K" horiz-adv-x="391" 
d="M277 28l-121 322v-307q0 -23 -15 -38t-38 -15q-24 0 -38.5 15t-14.5 38v614q0 23 14.5 38t38.5 15q23 0 38 -15t15 -38v-291l118 310q13 34 49 34q21 0 36 -12.5t15 -34.5q0 -9 -5 -24l-112 -282l116 -291q6 -15 6 -26q0 -23 -14.5 -36.5t-36.5 -13.5q-36 0 -51 38z" />
    <glyph glyph-name="L" unicode="L" horiz-adv-x="343" 
d="M50 53v604q0 23 15 38t38 15t38 -15t15 -38v-563h130q20 0 33.5 -13.5t13.5 -33.5t-13.5 -33.5t-33.5 -13.5h-183q-23 0 -38 15t-15 38z" />
    <glyph glyph-name="M" unicode="M" horiz-adv-x="490" 
d="M245 316l105 355q12 39 45 39q45 0 45 -48v-622q0 -22 -13.5 -36t-34.5 -14t-34.5 14t-13.5 36v343l-49 -150q-13 -38 -50 -38t-50 38l-49 150v-343q0 -22 -13.5 -36t-34.5 -14t-34.5 14t-13.5 36v622q0 48 45 48q35 0 46 -39z" />
    <glyph glyph-name="N" unicode="N" horiz-adv-x="434" 
d="M50 43v614q0 53 47 53q35 0 48 -37l141 -388v372q0 53 50 53q48 0 48 -53v-614q0 -24 -12 -38.5t-34 -14.5q-34 0 -48 37l-142 388v-372q0 -24 -13.5 -38.5t-35.5 -14.5t-35.5 14.5t-13.5 38.5z" />
    <glyph glyph-name="O" unicode="O" 
d="M36 153v394q0 76 45 121.5t121 45.5t121 -45.5t45 -121.5v-394q0 -76 -45 -121.5t-121 -45.5t-121 45.5t-45 121.5zM262 138v424q0 27 -16.5 44t-43.5 17t-43.5 -17t-16.5 -44v-424q0 -27 16.5 -44t43.5 -17t43.5 17t16.5 44z" />
    <glyph glyph-name="P" unicode="P" horiz-adv-x="384" 
d="M195 276h-39v-233q0 -23 -15 -38t-38 -15t-38 15t-15 38v604q0 23 15 38t38 15h94q83 0 127.5 -42.5t44.5 -128.5v-80q0 -78 -48 -125.5t-126 -47.5zM263 445v86q0 36 -18 55.5t-51 19.5h-38v-236h36q34 0 52.5 19.5t18.5 55.5z" />
    <glyph glyph-name="Q" unicode="Q" 
d="M36 153v394q0 76 45 121.5t121 45.5t121 -45.5t45 -121.5v-394q0 -56 -24.5 -96t-69.5 -57l24 -60q6 -15 6 -28q0 -22 -15 -35.5t-39 -13.5q-34 0 -47 34l-36 92q-61 10 -96 53.5t-35 110.5zM262 138v424q0 27 -16.5 44t-43.5 17t-43.5 -17t-16.5 -44v-424
q0 -27 16.5 -44t43.5 -17t43.5 17t16.5 44z" />
    <glyph glyph-name="R" unicode="R" 
d="M276 37l-42 193q-10 49 -55 49h-23v-236q0 -23 -15 -38t-38 -15t-38 15t-15 38v604q0 23 15 38t38 15h101q162 0 162 -149v-95q0 -47 -22.5 -81.5t-58.5 -51.5q46 -20 61 -98l34 -171q2 -12 2 -15q0 -23 -14.5 -36t-39.5 -13q-41 0 -52 47zM260 442v98q0 66 -63 66h-41
v-234h44q29 0 44.5 19.5t15.5 50.5z" />
    <glyph glyph-name="S" unicode="S" horiz-adv-x="371" 
d="M30 149v28q0 51 49 51q24 0 37.5 -14t13.5 -37v-24q0 -78 59 -78q58 0 58 79q0 35 -14 65.5t-29 47.5t-45 44q-65 59 -99.5 112t-34.5 121q0 83 42 126.5t116 43.5q70 0 112 -42.5t42 -114.5v-35q0 -22 -13.5 -35.5t-36.5 -13.5q-22 0 -36 13.5t-14 35.5v32q0 69 -54 69
t-54 -71q0 -44 20.5 -76t61.5 -71q26 -24 37.5 -36t35.5 -39.5t35.5 -49t21.5 -53t10 -63.5q0 -79 -45 -128.5t-119 -49.5q-73 0 -115 45.5t-42 117.5z" />
    <glyph glyph-name="T" unicode="T" horiz-adv-x="344" 
d="M300 606h-75v-563q0 -23 -15 -38t-38 -15q-24 0 -38.5 15t-14.5 38v563h-75q-20 0 -33.5 13t-13.5 34q0 20 13.5 33.5t33.5 13.5h256q21 0 34 -13.5t13 -33.5q0 -21 -13 -34t-34 -13z" />
    <glyph glyph-name="U" unicode="U" horiz-adv-x="426" 
d="M378 657v-504q0 -79 -44 -123t-121 -44t-121 44t-44 123v504q0 23 15 38t38 15t38 -15t15 -38v-518q0 -61 59 -61t59 61v518q0 23 15 38t38 15q24 0 38.5 -15t14.5 -38z" />
    <glyph glyph-name="V" unicode="V" horiz-adv-x="364" 
d="M350 647l-116 -612q-8 -45 -52 -45t-52 45l-116 612q-2 8 -2 15q0 22 14.5 35t36.5 13q46 0 52 -49l64 -431q3 -24 3 -48q0 24 3 48l64 431q6 49 52 49q22 0 36.5 -13t14.5 -35q0 -5 -2 -15z" />
    <glyph glyph-name="W" unicode="W" horiz-adv-x="564" 
d="M335 645l67 -407q4 -22 8 -70q2 41 6 71l46 422q5 49 47 49q25 0 38.5 -15t9.5 -41l-94 -617q-7 -47 -52 -47q-22 0 -35.5 13.5t-16.5 34.5l-77 486l-77 -486q-3 -21 -16.5 -34.5t-35.5 -13.5q-45 0 -52 47l-94 617q-4 26 9.5 41t38.5 15q42 0 47 -49l47 -415
q4 -31 6 -69q4 45 8 68l66 402q5 28 17 40.5t36 12.5t36 -12.5t17 -42.5z" />
    <glyph glyph-name="X" unicode="X" horiz-adv-x="374" 
d="M187 473l73 204q12 33 45 33q22 0 36 -12t14 -33q0 -8 -4 -20l-114 -286l120 -301q5 -12 5 -23q0 -21 -15 -33t-35 -12q-34 0 -48 39l-77 214l-77 -214q-14 -39 -48 -39q-20 0 -35 12t-15 33q0 11 5 23l120 301l-114 286q-4 12 -4 20q0 21 14 33t36 12q33 0 45 -33z" />
    <glyph glyph-name="Y" unicode="Y" horiz-adv-x="352" 
d="M181 458l64 213q12 39 52 39q23 0 38 -13.5t15 -34.5q0 -11 -4 -21l-117 -326v-272q0 -23 -15 -38t-38 -15t-38 15t-15 38v272l-117 326q-4 10 -4 21q0 21 15 34.5t38 13.5q40 0 52 -39l64 -213q4 -13 5 -22q1 9 5 22z" />
    <glyph glyph-name="Z" unicode="Z" horiz-adv-x="356" 
d="M294 0h-228q-21 0 -33.5 13t-12.5 34q0 8 5 23l198 536h-152q-21 0 -34 13.5t-13 33.5t13 33.5t34 13.5h223q21 0 34 -13.5t13 -33.5q0 -7 -5 -24l-198 -535h156q21 0 34 -13.5t13 -33.5t-13 -33.5t-34 -13.5z" />
    <glyph glyph-name="bracketleft" unicode="[" horiz-adv-x="278" 
d="M112 805h127q19 0 31.5 -13t12.5 -31t-12.5 -31t-31.5 -13h-75v-774h75q19 0 31.5 -13t12.5 -31t-12.5 -31t-31.5 -13h-127q-23 0 -37.5 14t-14.5 37v848q0 23 14.5 37t37.5 14z" />
    <glyph glyph-name="backslash" unicode="\" horiz-adv-x="274" 
d="M149 -8l-118 707q-4 23 9.5 37t34.5 14q39 0 45 -37l118 -713q4 -23 -8.5 -36.5t-34.5 -13.5q-39 0 -46 42z" />
    <glyph glyph-name="bracketright" unicode="]" horiz-adv-x="278" 
d="M39 805h127q23 0 37.5 -14t14.5 -37v-848q0 -23 -14.5 -37t-37.5 -14h-127q-19 0 -31.5 13t-12.5 31t12.5 31t31.5 13h75v774h-75q-19 0 -31.5 13t-12.5 31t12.5 31t31.5 13z" />
    <glyph glyph-name="asciicircum" unicode="^" horiz-adv-x="342" 
d="M217 677l91 -246q3 -9 3 -17q0 -18 -12 -29t-32 -11q-32 0 -42 32l-54 174l-54 -174q-10 -32 -42 -32q-20 0 -32 11t-12 29q0 8 3 17l91 246q11 31 46 31t46 -31z" />
    <glyph glyph-name="underscore" unicode="_" horiz-adv-x="430" 
d="M432 -120h-434v40h434v-40z" />
    <glyph glyph-name="grave" unicode="`" horiz-adv-x="226" 
d="M176 549h-89l-30 69q-6 15 -6 27q0 22 14.5 33.5t37.5 11.5q45 0 55 -50z" />
    <glyph glyph-name="a" unicode="a" horiz-adv-x="346" 
d="M131 385v-7q0 -21 -13.5 -33.5t-34.5 -12.5q-23 0 -36 12.5t-13 33.5v14q0 59 35 92.5t103 33.5q139 0 139 -136v-341q0 -22 -14 -35.5t-37 -13.5q-20 0 -33 11.5t-15 28.5q-22 -44 -77 -44q-54 0 -82 44t-28 114q0 72 30 112t90 40q39 0 64 -18v108q0 42 -39 42t-39 -45
zM209 83v123q-16 9 -35 9q-25 0 -36.5 -16t-11.5 -53q0 -74 48 -74q22 0 35 11z" />
    <glyph glyph-name="b" unicode="b" horiz-adv-x="371" 
d="M333 414v-319q0 -45 -27.5 -76t-73.5 -31q-30 0 -53 14.5t-34 37.5q-6 -48 -51 -48q-23 0 -36 14t-13 37v614q0 23 14 37t37 14t37 -14t14 -37v-185q27 46 85 46q46 0 73.5 -28.5t27.5 -75.5zM231 120v269q0 41 -42 41q-24 0 -42 -18v-318q16 -18 43 -18q41 0 41 44z" />
    <glyph glyph-name="c" unicode="c" horiz-adv-x="337" 
d="M136 118q0 -43 40 -43t40 43v26q0 22 13 35.5t35 13.5t35 -13.5t13 -35.5v-15q0 -63 -34.5 -102t-101.5 -39q-73 0 -107.5 39.5t-34.5 106.5v238q0 67 34.5 106.5t107.5 39.5q67 0 101.5 -39t34.5 -102v-15q0 -22 -13 -35.5t-35 -13.5t-35 13.5t-13 35.5v26q0 43 -40 43
t-40 -43v-270z" />
    <glyph glyph-name="d" unicode="d" horiz-adv-x="371" 
d="M38 95v319q0 48 26.5 76t73.5 28q57 0 86 -43v182q0 23 14 37t37 14t37 -14t14 -37v-614q0 -23 -13 -37t-36 -14q-45 0 -51 48q-11 -23 -34 -37.5t-53 -14.5q-46 0 -73.5 31t-27.5 76zM140 389v-269q0 -44 41 -44q27 0 43 18v318q-18 18 -42 18q-42 0 -42 -41z" />
    <glyph glyph-name="e" unicode="e" horiz-adv-x="342" 
d="M316 374v-109q0 -19 -11 -30t-29 -11h-140v-109q0 -43 40 -43q41 0 41 43v6q0 49 48 49q24 0 36.5 -13.5t12.5 -36.5v-8q-2 -56 -39 -90t-99 -34q-68 0 -105 37t-37 103v240q0 72 37.5 111t104.5 39q66 0 103 -38.5t37 -105.5zM216 305v83q0 45 -40 45t-40 -43v-85h80z
" />
    <glyph glyph-name="f" unicode="f" horiz-adv-x="243" 
d="M5 463q0 43 43 43h16v93q0 113 105 113q74 0 74 -45t-48 -45h-3q-26 0 -26 -28v-88h32q43 0 43 -43t-43 -43h-32v-377q0 -23 -14 -37t-37 -14t-37 14t-14 37v377h-16q-43 0 -43 43z" />
    <glyph glyph-name="g" unicode="g" horiz-adv-x="365" 
d="M324 367v-68q0 -63 -37.5 -105.5t-108.5 -42.5q-22 0 -45 5q-7 -12 -7 -24q0 -25 29 -25h64q63 0 99 -33t36 -96q0 -69 -51.5 -109.5t-132.5 -40.5q-163 0 -163 113q0 63 63 94q-40 22 -40 69q0 54 48 82q-46 42 -46 113v71q0 67 36.5 107.5t106.5 40.5q48 0 124 16
q15 3 27 3q37 0 37 -46q0 -25 -15 -35.5t-52 -11.5q28 -21 28 -77zM225 288v93q0 54 -47 54t-47 -54v-93q0 -54 47 -54t47 54zM198 22h-65q-27 -25 -27 -59q0 -54 70 -54q37 0 58 17t21 45q0 51 -57 51z" />
    <glyph glyph-name="h" unicode="h" horiz-adv-x="373" 
d="M231 43v336q0 46 -43 46q-27 0 -41 -18v-364q0 -23 -14 -37t-37 -14t-37 14t-14 37v614q0 23 14 37t37 14t37 -14t14 -37v-185q9 21 31 33.5t51 12.5q51 0 77.5 -32t26.5 -85v-358q0 -23 -14 -37t-37 -14t-37 14t-14 37z" />
    <glyph glyph-name="i" unicode="i" horiz-adv-x="192" 
d="M147 463v-420q0 -23 -14 -37t-37 -14t-37 14t-14 37v420q0 23 14 37t37 14t37 -14t14 -37zM156 646q0 -26 -16 -43.5t-44 -17.5t-44 17.5t-16 43.5t16 44t44 18t44 -18t16 -44z" />
    <glyph glyph-name="j" unicode="j" horiz-adv-x="192" 
d="M45 463q0 23 14 37t37 14t37 -14t14 -37v-547q0 -42 -24.5 -65t-65.5 -23q-75 0 -75 49q0 41 36 41h7q20 0 20 18v527zM156 646q0 -26 -16 -43.5t-44 -17.5t-44 17.5t-16 43.5t16 44t44 18t44 -18t16 -44z" />
    <glyph glyph-name="k" unicode="k" horiz-adv-x="352" 
d="M328 443l-83 -182l87 -192q7 -15 7 -29q0 -23 -14.5 -35.5t-35.5 -12.5q-31 0 -44 30l-98 224v-203q0 -23 -14 -37t-37 -14t-37 14t-14 37v614q0 23 14 37t37 14t37 -14t14 -37v-383l91 211q14 31 47 31q21 0 36 -13t15 -32q0 -10 -8 -28z" />
    <glyph glyph-name="l" unicode="l" horiz-adv-x="192" 
d="M147 657v-614q0 -23 -14 -37t-37 -14t-37 14t-14 37v614q0 23 14 37t37 14t37 -14t14 -37z" />
    <glyph glyph-name="m" unicode="m" horiz-adv-x="549" 
d="M407 43v336q0 46 -38 46q-27 0 -41 -18v-364q0 -23 -14 -37t-37 -14t-37 14t-14 37v336q0 46 -38 46q-27 0 -41 -18v-364q0 -23 -14 -37t-37 -14t-37 14t-14 37v418q0 49 48 49q46 0 49 -45q20 53 82 53q65 0 91 -53q11 24 35.5 38.5t54.5 14.5q51 0 77.5 -31.5
t26.5 -85.5v-358q0 -23 -14 -37t-37 -14t-37 14t-14 37z" />
    <glyph glyph-name="n" unicode="n" horiz-adv-x="373" 
d="M231 43v336q0 46 -43 46q-27 0 -41 -18v-364q0 -23 -14 -37t-37 -14t-37 14t-14 37v418q0 49 48 49q46 0 49 -45q21 53 87 53q51 0 77.5 -32t26.5 -85v-358q0 -23 -14 -37t-37 -14t-37 14t-14 37z" />
    <glyph glyph-name="o" unicode="o" horiz-adv-x="358" 
d="M179 -12q-67 0 -106 38t-39 102v250q0 64 39 102t106 38t106 -38t39 -102v-250q0 -64 -39 -102t-106 -38zM179 75q43 0 43 44v268q0 44 -43 44t-43 -44v-268q0 -44 43 -44z" />
    <glyph glyph-name="p" unicode="p" horiz-adv-x="371" 
d="M333 411v-319q0 -46 -27.5 -75t-73.5 -29q-29 0 -52 13.5t-33 32.5v-151q0 -23 -14 -37t-37 -14t-37 14t-14 37v580q0 23 13 37t36 14q45 0 51 -48q11 23 34 37.5t53 14.5q46 0 73.5 -30.5t27.5 -76.5zM231 117v269q0 44 -41 44q-27 0 -43 -18v-318q18 -18 42 -18
q42 0 42 41z" />
    <glyph glyph-name="q" unicode="q" horiz-adv-x="371" 
d="M38 92v319q0 45 27.5 76t73.5 31q30 0 53 -14.5t34 -37.5q6 48 51 48q23 0 36 -14t13 -37v-580q0 -23 -14 -37t-37 -14t-37 14t-14 37v151q-10 -19 -33 -32.5t-52 -13.5q-46 0 -73.5 29t-27.5 75zM140 117q0 -41 42 -41q24 0 42 18v318q-16 18 -43 18q-41 0 -41 -44v-269
z" />
    <glyph glyph-name="r" unicode="r" horiz-adv-x="248" 
d="M201 516q50 0 50 -51q0 -56 -47 -56q-7 0 -17 2.5t-16 2.5q-15 0 -24 -6v-365q0 -23 -14 -37t-37 -14t-37 14t-14 37v419q0 48 49 48q46 0 47 -62q6 68 60 68z" />
    <glyph glyph-name="s" unicode="s" horiz-adv-x="327" 
d="M163 -12q-58 0 -97.5 35t-39.5 89v14q0 50 48 50q22 0 35 -13t13 -35v-9q0 -23 11 -36.5t32 -13.5q44 0 44 51q0 30 -15.5 51t-48.5 43q-60 40 -89.5 77.5t-29.5 93.5q0 61 37 97t99 36q65 0 99.5 -34.5t34.5 -93.5v-12q0 -19 -12.5 -32.5t-35.5 -13.5q-24 0 -36 12.5
t-12 33.5v16q0 43 -38 43t-38 -44q0 -29 14.5 -47.5t50.5 -43.5q30 -21 45 -33t35.5 -34t29 -47.5t8.5 -57.5q0 -60 -38.5 -101t-105.5 -41z" />
    <glyph glyph-name="t" unicode="t" horiz-adv-x="252" 
d="M206 420h-43v-323q0 -19 19 -19q4 0 11 1t10 1q35 0 35 -41q0 -51 -80 -51q-47 0 -72 26.5t-25 70.5v335h-18q-43 0 -43 43t43 43h18v90q0 23 14 37t37 14t37 -14t14 -37v-90h43q43 0 43 -43t-43 -43z" />
    <glyph glyph-name="u" unicode="u" horiz-adv-x="370" 
d="M142 463v-336q0 -46 40 -46q27 0 41 18v364q0 23 14 37t37 14t37 -14t14 -37v-422q0 -49 -48 -49q-46 0 -49 49q-23 -53 -87 -53q-51 0 -76 31.5t-25 85.5v358q0 23 14 37t37 14t37 -14t14 -37z" />
    <glyph glyph-name="v" unicode="v" horiz-adv-x="324" 
d="M167 180l50 294q6 42 49 42q21 0 35.5 -12t14.5 -33q0 -5 -2 -15l-98 -420q-11 -46 -54 -46t-54 46l-98 420q-2 10 -2 15q0 21 14.5 33t35.5 12q43 0 49 -42l50 -294q5 -33 5 -66q0 34 5 66z" />
    <glyph glyph-name="w" unicode="w" horiz-adv-x="510" 
d="M305 470l50 -243q8 -41 15 -92q1 18 9 91l27 243q5 47 47 47q26 0 39 -17t8 -43l-77 -419q-9 -47 -50 -47q-43 0 -52 47l-66 342l-66 -342q-9 -47 -52 -47q-41 0 -50 47l-77 419q-5 27 7.5 43.5t39.5 16.5q42 0 47 -47l27 -243q7 -73 9 -91q7 51 15 92l50 243q9 46 50 46
t50 -46z" />
    <glyph glyph-name="x" unicode="x" horiz-adv-x="330" 
d="M216 256l95 -197q6 -12 6 -24q0 -20 -13.5 -32.5t-33.5 -12.5q-28 0 -43 29l-50 119q-11 27 -12 32q-1 -4 -12 -32l-50 -119q-13 -29 -43 -29q-20 0 -33.5 12.5t-13.5 31.5q0 13 6 25l95 197l-91 191q-6 13 -6 26q0 20 13.5 31.5t33.5 11.5q29 0 41 -27l49 -117
q11 -25 11 -26q0 1 11 26l49 117q12 27 41 27q20 0 33.5 -11.5t13.5 -31.5q0 -13 -6 -26z" />
    <glyph glyph-name="y" unicode="y" horiz-adv-x="322" 
d="M313 456l-98 -415l-37 -173q-8 -40 -46 -40q-21 0 -33.5 12t-12.5 31q0 8 2 18l27 132q-4 8 -7 20l-99 415q-2 10 -2 15q0 22 14.5 33.5t35.5 11.5q42 0 49 -42l50 -291q3 -17 5 -45q0 20 5 45l50 291q7 42 49 42q22 0 36 -12t14 -33q0 -5 -2 -15z" />
    <glyph glyph-name="z" unicode="z" horiz-adv-x="313" 
d="M24 462q0 20 12 32t32 12h175q24 0 37.5 -15t13.5 -38q0 -17 -19 -57l-146 -309h125q20 0 32 -12t12 -32t-12 -31.5t-32 -11.5h-177q-26 0 -41.5 15.5t-15.5 40.5q0 18 18 56l148 307h-118q-20 0 -32 11.5t-12 31.5z" />
    <glyph glyph-name="braceleft" unicode="{" horiz-adv-x="274" 
d="M183 248v-264q0 -41 39 -41h7q20 0 32.5 -12t12.5 -32t-12.5 -32t-32.5 -12h-32q-57 0 -87.5 31.5t-30.5 92.5v281q0 26 -25 26h-4q-40 0 -40 44t40 44h4q25 0 25 26v281q0 61 30.5 92.5t87.5 31.5h32q20 0 32.5 -12t12.5 -32t-12.5 -32t-32.5 -12h-7q-39 0 -39 -41v-264
q0 -65 -55 -82q55 -17 55 -82z" />
    <glyph glyph-name="bar" unicode="|" horiz-adv-x="214" 
d="M70 -131v878q0 17 10 27t27 10t27 -10t10 -27v-878q0 -17 -10 -27t-27 -10t-27 10t-10 27z" />
    <glyph glyph-name="braceright" unicode="}" horiz-adv-x="274" 
d="M91 -16v264q0 65 55 82q-55 17 -55 82v264q0 41 -39 41h-7q-20 0 -32.5 12t-12.5 32t12.5 32t32.5 12h32q57 0 87.5 -31.5t30.5 -92.5v-281q0 -26 25 -26h4q40 0 40 -44t-40 -44h-4q-25 0 -25 -26v-281q0 -61 -30.5 -92.5t-87.5 -31.5h-32q-20 0 -32.5 12t-12.5 32
t12.5 32t32.5 12h7q39 0 39 41z" />
    <glyph glyph-name="asciitilde" unicode="~" horiz-adv-x="382" 
d="M351 389l-20 -45q-17 -36 -45 -36q-21 0 -70 19l-87 34l-12 -27q-12 -28 -42 -28q-19 0 -31.5 11.5t-12.5 29.5q0 10 4 19l23 52q15 32 50 32q21 0 65 -17l86 -34l13 29q12 26 39 26q18 0 31.5 -11.5t13.5 -30.5q0 -11 -5 -23z" />
    <glyph glyph-name="nbspace" unicode="&#xa0;" horiz-adv-x="160" 
 />
    <glyph glyph-name="exclamdown" unicode="&#xa1;" horiz-adv-x="230" 
d="M61 333l22 174q3 27 31 27t31 -27l22 -174v-290q0 -23 -15 -37t-38 -14t-38 14t-15 37v290zM53 645q0 26 17 44.5t45 18.5t45 -18.5t17 -44.5t-17 -44.5t-45 -18.5t-45 18.5t-17 44.5z" />
    <glyph glyph-name="cent" unicode="&#xa2;" horiz-adv-x="344" 
d="M38 456q0 111 93 136v73q0 20 12 31.5t34 11.5t34 -11.5t12 -31.5v-73q86 -23 86 -132v-14q0 -23 -12.5 -36t-34.5 -13q-47 0 -47 49v26q0 18 -10.5 28.5t-27.5 10.5t-27 -10t-10 -28v-246q0 -18 10 -28t27 -10t27.5 10.5t10.5 28.5v26q0 49 47 49q22 0 34.5 -13
t12.5 -36v-14q0 -105 -86 -132v-73q0 -20 -12 -31.5t-34 -11.5t-34 11.5t-12 31.5v72q-93 23 -93 137v212z" />
    <glyph glyph-name="sterling" unicode="&#xa3;" horiz-adv-x="427" 
d="M76 282q-20 0 -32 12t-12 32t12 32t32 12h39v193q0 151 142 151q140 0 140 -145v-30q0 -23 -13.5 -37t-35.5 -14t-35.5 14t-13.5 37v47q0 18 -10.5 29t-29.5 11t-29.5 -11t-10.5 -29v-216h96q19 0 31.5 -12t12.5 -32t-12.5 -32t-31.5 -12h-96v-194h126q19 0 31.5 -13
t12.5 -31t-12.5 -31t-31.5 -13h-271q-19 0 -31.5 13t-12.5 31t12.5 31t31.5 13h41v194h-39z" />
    <glyph glyph-name="currency" unicode="&#xa4;" horiz-adv-x="398" 
d="M338 409v-118q0 -42 -17 -74l39 -67q7 -13 7 -25q0 -18 -14 -30.5t-33 -12.5q-25 0 -39 23l-31 54q-24 -8 -51 -8q-26 0 -52 8l-30 -54q-13 -23 -39 -23q-19 0 -33 12.5t-14 30.5q0 12 7 25l39 67q-17 32 -17 74v118q0 42 17 73l-39 68q-7 13 -7 25q0 19 14 31t33 12
q26 0 39 -23l30 -54q26 8 52 8q27 0 51 -8l31 54q13 23 39 23q20 0 33.5 -12t13.5 -31q0 -12 -7 -25l-39 -68q17 -31 17 -73zM242 275v150q0 43 -43 43t-43 -43v-150q0 -43 43 -43t43 43z" />
    <glyph glyph-name="yen" unicode="&#xa5;" horiz-adv-x="356" 
d="M126 673l48 -236q4 -23 4 -25q0 2 4 25l48 236q7 37 47 37q24 0 38.5 -12.5t14.5 -34.5q0 -9 -3 -18l-69 -250h30q20 0 31.5 -11.5t11.5 -31.5q0 -18 -12 -29.5t-31 -11.5h-54l-5 -20v-42h59q20 0 31.5 -11.5t11.5 -31.5q0 -18 -12 -29.5t-31 -11.5h-59v-122
q0 -23 -14 -37t-37 -14t-37 14t-14 37v122h-58q-19 0 -31 11.5t-12 29.5q0 20 12 31.5t31 11.5h58v42l-6 20h-52q-19 0 -31 11.5t-12 29.5q0 20 12 31.5t31 11.5h29l-69 250q-3 9 -3 18q0 21 14.5 34t38.5 13q40 0 47 -37z" />
    <glyph glyph-name="brokenbar" unicode="&#xa6;" horiz-adv-x="214" 
d="M70 404v343q0 17 10 27t27 10t27 -10t10 -27v-343q0 -16 -10 -26.5t-27 -10.5t-27 10.5t-10 26.5zM70 -131v343q0 16 10 26.5t27 10.5t27 -10.5t10 -26.5v-343q0 -17 -10 -27t-27 -10t-27 10t-10 27z" />
    <glyph glyph-name="section" unicode="&#xa7;" horiz-adv-x="359" 
d="M334 250q0 -83 -73 -149q57 -68 57 -133q0 -61 -39 -100.5t-105 -39.5q-60 0 -97.5 37.5t-37.5 91.5v15q0 50 48 50q22 0 35 -13t13 -35v-12q0 -52 42 -52q43 0 43 49q0 48 -37 92l-91 108q-62 73 -62 145q0 91 72 145q-55 67 -55 135q0 59 36.5 94.5t99.5 35.5
q61 0 96 -36.5t35 -94.5v-15q0 -19 -12 -32.5t-35 -13.5q-24 0 -37 13t-13 33v20q0 42 -36 42t-36 -45q0 -40 38 -85l77 -89q24 -27 36.5 -45t25 -50t12.5 -66zM191 346l-41 47q-26 -35 -26 -84q0 -42 42 -93l45 -55q29 41 29 85q0 43 -49 100z" />
    <glyph glyph-name="dieresis" unicode="&#xa8;" horiz-adv-x="336" 
d="M50 616q0 23 14 38t37 15q24 0 38 -15t14 -38q0 -22 -14 -37t-38 -15q-23 0 -37 15t-14 37zM183 616q0 23 14 38t37 15q24 0 38 -15t14 -38q0 -22 -14 -37t-38 -15q-23 0 -37 15t-14 37z" />
    <glyph glyph-name="copyright" unicode="&#xa9;" horiz-adv-x="748" 
d="M728 350q0 -150 -101.5 -256t-252.5 -106t-252.5 106t-101.5 256t101.5 256t252.5 106t252.5 -106t101.5 -256zM685 350q0 131 -87.5 227t-223.5 96t-223.5 -96t-87.5 -227t87.5 -227t223.5 -96t223.5 96t87.5 227zM372 550q43 0 67 -26.5t24 -69.5v-30q0 -32 -31 -32
t-31 32v40q0 31 -28 31q-29 0 -29 -31v-228q0 -31 29 -31q28 0 28 31v40q0 32 31 32t31 -32v-30q0 -43 -24 -69.5t-67 -26.5q-45 0 -69 25.5t-24 71.5v206q0 46 24 71.5t69 25.5z" />
    <glyph glyph-name="ordfeminine" unicode="&#xaa;" horiz-adv-x="273" 
d="M108 611v-13q0 -31 -34 -31q-33 0 -33 32v17q0 89 97 89q96 0 96 -95v-240q0 -15 -10 -24.5t-24 -9.5q-28 0 -35 28q-13 -30 -53 -30q-38 0 -57.5 30.5t-19.5 79.5q0 106 84 106q25 0 45 -13v76q0 30 -27 30q-29 0 -29 -32zM164 400v86q-12 6 -25 6q-34 0 -34 -48
q0 -52 34 -52q15 0 25 8zM207 236h-139q-31 0 -31 31t31 31h139q31 0 31 -31t-31 -31z" />
    <glyph glyph-name="guillemotleft" unicode="&#xab;" horiz-adv-x="457" 
d="M41 331l107 136q14 18 35 18q20 0 32.5 -12t12.5 -30q0 -12 -11 -28l-97 -123l97 -123q11 -16 11 -28q0 -18 -12.5 -30t-32.5 -12q-21 0 -35 18l-107 136q-16 19 -16 39t16 39zM235 331l107 136q14 18 35 18q20 0 32.5 -12t12.5 -30q0 -12 -11 -28l-97 -123l97 -123
q11 -16 11 -28q0 -18 -12.5 -30t-32.5 -12q-21 0 -35 18l-107 136q-16 19 -16 39t16 39z" />
    <glyph glyph-name="logicalnot" unicode="&#xac;" horiz-adv-x="483" 
d="M30 350q0 20 12 32t32 12h310q20 0 32 -12t12 -32v-163q0 -20 -13 -33t-33 -13t-33 13t-13 33v119h-262q-20 0 -32 12t-12 32z" />
    <glyph glyph-name="registered" unicode="&#xae;" horiz-adv-x="748" 
d="M411 189l-20 95q-5 29 -29 29h-11v-122q0 -15 -8.5 -24.5t-23.5 -9.5t-24 9.5t-9 24.5v324q0 14 9 23.5t24 9.5h57q95 0 95 -91v-40q0 -56 -50 -78q30 -11 38 -51l18 -89q4 -17 -5.5 -29.5t-26.5 -12.5q-28 0 -34 32zM406 413v40q0 38 -37 38h-18v-123h20q35 0 35 45z
M728 350q0 -150 -101.5 -256t-252.5 -106t-252.5 106t-101.5 256t101.5 256t252.5 106t252.5 -106t101.5 -256zM685 350q0 131 -87.5 227t-223.5 96t-223.5 -96t-87.5 -227t87.5 -227t223.5 -96t223.5 96t87.5 227z" />
    <glyph glyph-name="macron" unicode="&#xaf;" horiz-adv-x="322" 
d="M50 616q0 19 11.5 30.5t30.5 11.5h138q19 0 30.5 -11.5t11.5 -30.5q0 -20 -11 -31t-31 -11h-138q-20 0 -31 11t-11 31z" />
    <glyph glyph-name="degree" unicode="&#xb0;" horiz-adv-x="310" 
d="M275 591q0 -51 -33.5 -85t-86.5 -34t-86.5 34t-33.5 85t33.5 85t86.5 34t86.5 -34t33.5 -85zM215 591q0 30 -17 48t-43 18t-43 -18t-17 -48t17 -48t43 -18t43 18t17 48z" />
    <glyph glyph-name="plusminus" unicode="&#xb1;" horiz-adv-x="468" 
d="M35 44q0 20 12.5 32t31.5 12h310q19 0 31.5 -12t12.5 -32t-12.5 -32t-31.5 -12h-310q-19 0 -31.5 12t-12.5 32zM188 187v119h-109q-19 0 -31.5 12t-12.5 32t12.5 32t31.5 12h109v119q0 20 13 33t33 13t33 -13t13 -33v-119h109q19 0 31.5 -12t12.5 -32t-12.5 -32
t-31.5 -12h-109v-119q0 -20 -13 -33t-33 -13t-33 13t-13 33z" />
    <glyph glyph-name="twosuperior" unicode="&#xb2;" horiz-adv-x="194" 
d="M35 350q0 26 17 44.5t45 18.5t45 -18.5t17 -44.5t-17 -44.5t-45 -18.5t-45 18.5t-17 44.5z" />
    <glyph glyph-name="threesuperior" unicode="&#xb3;" horiz-adv-x="194" 
d="M35 350q0 26 17 44.5t45 18.5t45 -18.5t17 -44.5t-17 -44.5t-45 -18.5t-45 18.5t-17 44.5z" />
    <glyph glyph-name="acute" unicode="&#xb4;" horiz-adv-x="226" 
d="M139 549h-89l18 91q9 50 55 50q23 0 37.5 -13t14.5 -34q0 -11 -5 -23z" />
    <glyph glyph-name="mu" unicode="&#xb5;" horiz-adv-x="375" 
d="M147 463v-336q0 -46 40 -46q27 0 41 18v364q0 23 14 37t37 14t37 -14t14 -37v-422q0 -49 -48 -49q-46 0 -49 49q-21 -51 -86 -53v-105q0 -23 -14 -37t-37 -14t-37 14t-14 37v580q0 23 14 37t37 14t37 -14t14 -37z" />
    <glyph glyph-name="paragraph" unicode="&#xb6;" horiz-adv-x="471" 
d="M231 20v277q-87 0 -144 55t-57 146q0 98 54 150t159 52h184q19 0 19 -18t-19 -18h-41v-644q0 -28 -22 -28t-22 28v644h-67v-644q0 -28 -22 -28t-22 28z" />
    <glyph glyph-name="periodcentered" unicode="&#xb7;" horiz-adv-x="194" 
d="M35 350q0 26 17 44.5t45 18.5t45 -18.5t17 -44.5t-17 -44.5t-45 -18.5t-45 18.5t-17 44.5z" />
    <glyph glyph-name="cedilla" unicode="&#xb8;" horiz-adv-x="249" 
d="M199 -96q0 -34 -29.5 -55t-76.5 -21q-22 0 -32.5 10.5t-10.5 26.5q0 10 4 18q68 2 68 25q0 4 -1.5 7t-5.5 5t-8 3.5t-11 2t-12 1t-14 1.5t-14 1l20 71h55l-7 -31q35 -5 55 -19.5t20 -45.5z" />
    <glyph glyph-name="onesuperior" unicode="&#xb9;" horiz-adv-x="194" 
d="M35 350q0 26 17 44.5t45 18.5t45 -18.5t17 -44.5t-17 -44.5t-45 -18.5t-45 18.5t-17 44.5z" />
    <glyph glyph-name="ordmasculine" unicode="&#xba;" horiz-adv-x="272" 
d="M203 236h-134q-31 0 -31 31t31 31h134q31 0 31 -31t-31 -31zM136 394q30 0 30 31v189q0 31 -30 31t-30 -31v-189q0 -31 30 -31zM237 608v-177q0 -45 -27 -71t-74 -26t-74 26t-27 71v177q0 45 27 71t74 26t74 -26t27 -71z" />
    <glyph glyph-name="guillemotright" unicode="&#xbb;" horiz-adv-x="457" 
d="M309 467l107 -136q16 -19 16 -39t-16 -39l-107 -136q-13 -18 -35 -18q-20 0 -32.5 12t-12.5 30q0 12 11 28l97 123l-97 123q-11 16 -11 28q0 18 12.5 30t32.5 12q22 0 35 -18zM115 467l107 -136q16 -19 16 -39t-16 -39l-107 -136q-13 -18 -35 -18q-20 0 -32.5 12
t-12.5 30q0 12 11 28l97 123l-97 123q-11 16 -11 28q0 18 12.5 30t32.5 12q22 0 35 -18z" />
    <glyph glyph-name="onequarter" unicode="&#xbc;" horiz-adv-x="194" 
d="M35 350q0 26 17 44.5t45 18.5t45 -18.5t17 -44.5t-17 -44.5t-45 -18.5t-45 18.5t-17 44.5z" />
    <glyph glyph-name="onehalf" unicode="&#xbd;" horiz-adv-x="194" 
d="M35 350q0 26 17 44.5t45 18.5t45 -18.5t17 -44.5t-17 -44.5t-45 -18.5t-45 18.5t-17 44.5z" />
    <glyph glyph-name="threequarters" unicode="&#xbe;" horiz-adv-x="194" 
d="M35 350q0 26 17 44.5t45 18.5t45 -18.5t17 -44.5t-17 -44.5t-45 -18.5t-45 18.5t-17 44.5z" />
    <glyph glyph-name="questiondown" unicode="&#xbf;" horiz-adv-x="346" 
d="M265 645q0 -26 -17 -44.5t-45 -18.5t-45 18.5t-17 44.5t17 44.5t45 18.5t45 -18.5t17 -44.5zM236 451l-60 -140q-3 -8 -11.5 -26.5t-12.5 -28t-9 -24.5t-7 -28.5t-2 -28.5v-54q0 -48 44 -48q46 0 46 50v75q0 23 14 37t37 14t37 -14t14 -37v-57q0 -74 -39 -114.5
t-111 -40.5q-69 0 -107.5 37t-38.5 109v44q0 83 51 173l78 137q13 25 40 25q17 0 29 -11t12 -29q0 -11 -4 -20z" />
    <glyph glyph-name="Agrave" unicode="&#xc0;" horiz-adv-x="390" 
d="M251 660l116 -606q6 -29 -10 -46.5t-40 -17.5q-19 0 -34 13t-19 37l-17 122h-105l-16 -122q-4 -25 -18.5 -37.5t-34.5 -12.5q-24 0 -40 17.5t-10 46.5l116 606q10 50 56 50t56 -50zM191 522l-36 -268h80l-36 268q0 1 -1.5 13.5t-2.5 20.5q0 -5 -4 -34zM237 742h-89
l-31 72q-6 14 -6 24q0 22 15 33.5t38 11.5q46 0 55 -49z" />
    <glyph glyph-name="Aacute" unicode="&#xc1;" horiz-adv-x="390" 
d="M251 660l116 -606q6 -29 -10 -46.5t-40 -17.5q-19 0 -34 13t-19 37l-17 122h-105l-16 -122q-4 -25 -18.5 -37.5t-34.5 -12.5q-24 0 -40 17.5t-10 46.5l116 606q10 50 56 50t56 -50zM191 522l-36 -268h80l-36 268q0 1 -1.5 13.5t-2.5 20.5q0 -5 -4 -34zM242 742h-89l18 91
q9 50 55 50q22 0 37 -13t15 -34q0 -13 -5 -23z" />
    <glyph glyph-name="Acircumflex" unicode="&#xc2;" horiz-adv-x="390" 
d="M251 660l116 -606q6 -29 -10 -46.5t-40 -17.5q-19 0 -34 13t-19 37l-17 122h-105l-16 -122q-4 -25 -18.5 -37.5t-34.5 -12.5q-24 0 -40 17.5t-10 46.5l116 606q10 50 56 50t56 -50zM191 522l-36 -268h80l-36 268q0 1 -1.5 13.5t-2.5 20.5q0 -5 -4 -34zM243 742h-22
l-26 60l-26 -60h-22q-19 0 -30.5 11.5t-11.5 28.5q0 14 9 27l23 35q10 15 15.5 21.5t16.5 12t26 5.5q22 0 33 -8.5t25 -30.5l23 -35q9 -13 9 -27q0 -17 -11.5 -28.5t-30.5 -11.5z" />
    <glyph glyph-name="Atilde" unicode="&#xc3;" horiz-adv-x="390" 
d="M251 660l116 -606q6 -29 -10 -46.5t-40 -17.5q-19 0 -34 13t-19 37l-17 122h-105l-16 -122q-4 -25 -18.5 -37.5t-34.5 -12.5q-24 0 -40 17.5t-10 46.5l116 606q10 50 56 50t56 -50zM191 522l-36 -268h80l-36 268q0 1 -1.5 13.5t-2.5 20.5q0 -5 -4 -34zM228 829l22 35
q6 2 13 2q20 0 32 -11.5t12 -27.5q0 -13 -7 -24l-14 -23q-19 -31 -50 -31q-22 0 -49 15l-29 16l-18 -30q-6 -2 -15 -2q-21 0 -33.5 11t-12.5 28q0 13 8 27l11 19q17 28 47 28q22 0 47 -13z" />
    <glyph glyph-name="Adieresis" unicode="&#xc4;" horiz-adv-x="390" 
d="M251 660l116 -606q6 -29 -10 -46.5t-40 -17.5q-19 0 -34 13t-19 37l-17 122h-105l-16 -122q-4 -25 -18.5 -37.5t-34.5 -12.5q-24 0 -40 17.5t-10 46.5l116 606q10 50 56 50t56 -50zM191 522l-36 -268h80l-36 268q0 1 -1.5 13.5t-2.5 20.5q0 -5 -4 -34zM77 803q0 23 14 38
t37 15q24 0 38 -15t14 -38q0 -22 -14 -37t-38 -15q-23 0 -37 15t-14 37zM210 803q0 23 14 38t37 15q24 0 38 -15t14 -38q0 -22 -14 -37t-38 -15q-23 0 -37 15t-14 37z" />
    <glyph glyph-name="Aring" unicode="&#xc5;" horiz-adv-x="390" 
d="M267 740q0 -32 -25 -54q6 -10 9 -26l116 -606q6 -29 -10 -46.5t-40 -17.5q-19 0 -34 13t-19 37l-17 122h-105l-16 -122q-4 -25 -18.5 -37.5t-34.5 -12.5q-24 0 -40 17.5t-10 46.5l116 606q3 16 9 26q-25 20 -25 54q0 30 20 50t52 20t52 -20t20 -50zM191 522l-36 -268h80
l-36 268q-2 12 -4 31q-2 -19 -4 -31zM221 740q0 29 -26 29t-26 -29t26 -29t26 29z" />
    <glyph glyph-name="AE" unicode="&#xc6;" horiz-adv-x="567" 
d="M246 53v109h-101l-39 -131q-12 -41 -50 -41q-22 0 -36.5 13.5t-14.5 34.5q0 8 4 20l195 592q17 50 75 50h220q21 0 34 -13.5t13 -33.5q0 -21 -13 -34t-34 -13h-147v-204h122q20 0 33.5 -13.5t13.5 -33.5q0 -21 -13.5 -34t-33.5 -13h-122v-214h148q21 0 34 -13.5t13 -33.5
t-13 -33.5t-34 -13.5h-201q-23 0 -38 15t-15 38zM232 468l-61 -214h75v299q-4 -48 -14 -85z" />
    <glyph glyph-name="Ccedilla" unicode="&#xc7;" horiz-adv-x="383" 
d="M295 -96q0 -34 -29.5 -55t-76.5 -21q-22 0 -32.5 10.5t-10.5 26.5q0 10 4 18q68 2 68 25q0 4 -1.5 7t-5.5 5t-8 3.5t-11 2t-12 1t-14 1.5t-14 1l16 59q-64 8 -98 52t-34 115v390q0 79 41.5 124t119.5 45q76 0 117 -45.5t41 -123.5v-53q0 -23 -13.5 -37t-36.5 -14
t-36.5 14t-13.5 37v70q0 61 -57 61q-56 0 -56 -61v-424q0 -61 56 -61q57 0 57 61v70q0 23 13.5 37t36.5 14t36.5 -14t13.5 -37v-53q0 -71 -34 -115t-97 -52l-4 -19q35 -5 55 -19.5t20 -45.5z" />
    <glyph glyph-name="Egrave" unicode="&#xc8;" horiz-adv-x="366" 
d="M50 53v594q0 23 15 38t38 15h200q21 0 34 -13.5t13 -33.5q0 -21 -13 -34t-34 -13h-147v-204h114q20 0 33.5 -13.5t13.5 -33.5q0 -21 -13.5 -34t-33.5 -13h-114v-214h148q21 0 34 -13.5t13 -33.5t-13 -33.5t-34 -13.5h-201q-23 0 -38 15t-15 38zM245 742h-89l-31 72
q-6 14 -6 24q0 22 15 33.5t38 11.5q46 0 55 -49z" />
    <glyph glyph-name="Eacute" unicode="&#xc9;" horiz-adv-x="366" 
d="M50 53v594q0 23 15 38t38 15h200q21 0 34 -13.5t13 -33.5q0 -21 -13 -34t-34 -13h-147v-204h114q20 0 33.5 -13.5t13.5 -33.5q0 -21 -13.5 -34t-33.5 -13h-114v-214h148q21 0 34 -13.5t13 -33.5t-13 -33.5t-34 -13.5h-201q-23 0 -38 15t-15 38zM244 742h-89l18 91
q9 50 55 50q22 0 37 -13t15 -34q0 -13 -5 -23z" />
    <glyph glyph-name="Ecircumflex" unicode="&#xca;" horiz-adv-x="366" 
d="M50 53v594q0 23 15 38t38 15h200q21 0 34 -13.5t13 -33.5q0 -21 -13 -34t-34 -13h-147v-204h114q20 0 33.5 -13.5t13.5 -33.5q0 -21 -13.5 -34t-33.5 -13h-114v-214h148q21 0 34 -13.5t13 -33.5t-13 -33.5t-34 -13.5h-201q-23 0 -38 15t-15 38zM250 742h-22l-26 60
l-26 -60h-22q-19 0 -30.5 11.5t-11.5 28.5q0 14 9 27l23 35q14 22 25 30.5t33 8.5t33 -8.5t25 -30.5l23 -35q9 -13 9 -27q0 -17 -11.5 -28.5t-30.5 -11.5z" />
    <glyph glyph-name="Edieresis" unicode="&#xcb;" horiz-adv-x="366" 
d="M50 53v594q0 23 15 38t38 15h200q21 0 34 -13.5t13 -33.5q0 -21 -13 -34t-34 -13h-147v-204h114q20 0 33.5 -13.5t13.5 -33.5q0 -21 -13.5 -34t-33.5 -13h-114v-214h148q21 0 34 -13.5t13 -33.5t-13 -33.5t-34 -13.5h-201q-23 0 -38 15t-15 38zM83 803q0 23 14 38t37 15
q24 0 38 -15t14 -38q0 -22 -14 -37t-38 -15q-23 0 -37 15t-14 37zM216 803q0 23 14 38t37 15q24 0 38 -15t14 -38q0 -22 -14 -37t-38 -15q-23 0 -37 15t-14 37z" />
    <glyph glyph-name="Igrave" unicode="&#xcc;" horiz-adv-x="206" 
d="M50 43v614q0 23 14.5 38t38.5 15q23 0 38 -15t15 -38v-614q0 -23 -15 -38t-38 -15q-24 0 -38.5 15t-14.5 38zM149 742h-89l-31 72q-6 14 -6 24q0 22 15 33.5t38 11.5q46 0 55 -49z" />
    <glyph glyph-name="Iacute" unicode="&#xcd;" horiz-adv-x="206" 
d="M50 43v614q0 23 14.5 38t38.5 15q23 0 38 -15t15 -38v-614q0 -23 -15 -38t-38 -15q-24 0 -38.5 15t-14.5 38zM148 742h-89l18 91q9 50 55 50q22 0 37 -13t15 -34q0 -13 -5 -23z" />
    <glyph glyph-name="Icircumflex" unicode="&#xce;" horiz-adv-x="206" 
d="M50 43v614q0 23 14.5 38t38.5 15q23 0 38 -15t15 -38v-614q0 -23 -15 -38t-38 -15q-24 0 -38.5 15t-14.5 38zM151 742h-22l-26 60l-26 -60h-22q-19 0 -30.5 11.5t-11.5 28.5q0 14 9 27l23 35q10 15 15.5 21.5t16.5 12t26 5.5t26 -5.5t16.5 -12t15.5 -21.5l23 -35
q9 -13 9 -27q0 -17 -11.5 -28.5t-30.5 -11.5z" />
    <glyph glyph-name="Idieresis" unicode="&#xcf;" horiz-adv-x="206" 
d="M50 43v614q0 23 14.5 38t38.5 15q23 0 38 -15t15 -38v-614q0 -23 -15 -38t-38 -15q-24 0 -38.5 15t-14.5 38zM-15 803q0 23 14 38t37 15q24 0 38 -15t14 -38q0 -22 -14 -37t-38 -15q-23 0 -37 15t-14 37zM118 803q0 23 14 38t37 15q24 0 38 -15t14 -38q0 -22 -14 -37
t-38 -15q-23 0 -37 15t-14 37z" />
    <glyph glyph-name="Eth" unicode="&#xd0;" horiz-adv-x="431" 
d="M68 647q0 23 15 38t38 15h92q91 0 136.5 -49t45.5 -136v-330q0 -87 -45.5 -136t-136.5 -49h-92q-23 0 -38 15t-15 38v252h-19q-20 0 -32 12t-12 33t12 33t32 12h19v252zM174 93h40q37 0 56 20.5t19 55.5v362q0 35 -19 55.5t-56 20.5h-40v-212h34q21 0 33.5 -12t12.5 -33
t-12.5 -33t-33.5 -12h-34v-212z" />
    <glyph glyph-name="Ntilde" unicode="&#xd1;" horiz-adv-x="434" 
d="M50 43v614q0 53 47 53q35 0 48 -37l141 -388v372q0 53 50 53q48 0 48 -53v-614q0 -24 -12 -38.5t-34 -14.5q-34 0 -48 37l-142 388v-372q0 -24 -13.5 -38.5t-35.5 -14.5t-35.5 14.5t-13.5 38.5zM252 829l22 35q6 2 13 2q20 0 32 -11.5t12 -27.5q0 -13 -7 -24l-14 -23
q-19 -31 -50 -31q-22 0 -49 15l-29 16l-18 -30q-6 -2 -15 -2q-21 0 -33.5 11t-12.5 28q0 13 8 27l11 19q17 28 47 28q22 0 47 -13z" />
    <glyph glyph-name="Ograve" unicode="&#xd2;" 
d="M36 153v394q0 76 45 121.5t121 45.5t121 -45.5t45 -121.5v-394q0 -76 -45 -121.5t-121 -45.5t-121 45.5t-45 121.5zM262 138v424q0 27 -16.5 44t-43.5 17t-43.5 -17t-16.5 -44v-424q0 -27 16.5 -44t43.5 -17t43.5 17t16.5 44zM250 742h-89l-31 72q-6 14 -6 24
q0 22 15 33.5t38 11.5q46 0 55 -49z" />
    <glyph glyph-name="Oacute" unicode="&#xd3;" 
d="M36 153v394q0 76 45 121.5t121 45.5t121 -45.5t45 -121.5v-394q0 -76 -45 -121.5t-121 -45.5t-121 45.5t-45 121.5zM262 138v424q0 27 -16.5 44t-43.5 17t-43.5 -17t-16.5 -44v-424q0 -27 16.5 -44t43.5 -17t43.5 17t16.5 44zM246 742h-89l18 91q9 50 55 50q22 0 37 -13
t15 -34q0 -13 -5 -23z" />
    <glyph glyph-name="Ocircumflex" unicode="&#xd4;" 
d="M36 153v394q0 76 45 121.5t121 45.5t121 -45.5t45 -121.5v-394q0 -76 -45 -121.5t-121 -45.5t-121 45.5t-45 121.5zM262 138v424q0 27 -16.5 44t-43.5 17t-43.5 -17t-16.5 -44v-424q0 -27 16.5 -44t43.5 -17t43.5 17t16.5 44zM250 742h-22l-26 60l-26 -60h-22
q-19 0 -30.5 11.5t-11.5 28.5q0 14 9 27l23 35q14 22 25 30.5t33 8.5t33 -8.5t25 -30.5l23 -35q9 -13 9 -27q0 -17 -11.5 -28.5t-30.5 -11.5z" />
    <glyph glyph-name="Otilde" unicode="&#xd5;" 
d="M36 153v394q0 76 45 121.5t121 45.5t121 -45.5t45 -121.5v-394q0 -76 -45 -121.5t-121 -45.5t-121 45.5t-45 121.5zM262 138v424q0 27 -16.5 44t-43.5 17t-43.5 -17t-16.5 -44v-424q0 -27 16.5 -44t43.5 -17t43.5 17t16.5 44zM241 829l22 35q6 2 13 2q20 0 32 -11.5
t12 -27.5q0 -13 -7 -24l-14 -23q-19 -31 -50 -31q-22 0 -49 15l-29 16l-18 -30q-6 -2 -15 -2q-21 0 -33.5 11t-12.5 28q0 13 8 27l11 19q17 28 47 28q22 0 47 -13z" />
    <glyph glyph-name="Odieresis" unicode="&#xd6;" 
d="M36 153v394q0 76 45 121.5t121 45.5t121 -45.5t45 -121.5v-394q0 -76 -45 -121.5t-121 -45.5t-121 45.5t-45 121.5zM262 138v424q0 27 -16.5 44t-43.5 17t-43.5 -17t-16.5 -44v-424q0 -27 16.5 -44t43.5 -17t43.5 17t16.5 44zM84 803q0 23 14 38t37 15q24 0 38 -15
t14 -38q0 -22 -14 -37t-38 -15q-23 0 -37 15t-14 37zM217 803q0 23 14 38t37 15q24 0 38 -15t14 -38q0 -22 -14 -37t-38 -15q-23 0 -37 15t-14 37z" />
    <glyph glyph-name="multiply" unicode="&#xd7;" horiz-adv-x="432" 
d="M376 448l-97 -97l99 -98q14 -14 14 -31q0 -18 -13.5 -31.5t-32.5 -13.5q-17 0 -31 13l-99 98l-99 -98q-14 -13 -31 -13q-18 0 -32 13.5t-14 31.5q0 17 14 31l99 98l-97 97q-15 15 -15 32q0 19 14 31.5t32 12.5q19 0 33 -14l96 -96l96 96q14 14 33 14q18 0 31.5 -13
t13.5 -31t-14 -32z" />
    <glyph glyph-name="Oslash" unicode="&#xd8;" 
d="M36 153v394q0 76 45 121.5t121 45.5q33 0 60 -9l14 44q9 31 42 31q21 0 35.5 -11t14.5 -31q0 -7 -2 -15l-23 -80q25 -41 25 -96v-394q0 -76 -45 -121.5t-121 -45.5q-34 0 -62 9l-12 -40q-11 -35 -47 -35q-18 0 -31.5 11.5t-13.5 30.5q0 8 3 19l23 74q-26 40 -26 98z
M262 138v424q0 27 -16.5 44t-43.5 17t-43.5 -17t-16.5 -44v-424q0 -27 16.5 -44t43.5 -17t43.5 17t16.5 44z" />
    <glyph glyph-name="Ugrave" unicode="&#xd9;" horiz-adv-x="426" 
d="M378 657v-504q0 -79 -44 -123t-121 -44t-121 44t-44 123v504q0 23 15 38t38 15t38 -15t15 -38v-518q0 -61 59 -61t59 61v518q0 23 15 38t38 15q24 0 38.5 -15t14.5 -38zM263 742h-89l-31 72q-6 14 -6 24q0 22 15 33.5t38 11.5q46 0 55 -49z" />
    <glyph glyph-name="Uacute" unicode="&#xda;" horiz-adv-x="426" 
d="M378 657v-504q0 -79 -44 -123t-121 -44t-121 44t-44 123v504q0 23 15 38t38 15t38 -15t15 -38v-518q0 -61 59 -61t59 61v518q0 23 15 38t38 15q24 0 38.5 -15t14.5 -38zM255 742h-89l18 91q9 50 55 50q22 0 37 -13t15 -34q0 -13 -5 -23z" />
    <glyph glyph-name="Ucircumflex" unicode="&#xdb;" horiz-adv-x="426" 
d="M378 657v-504q0 -79 -44 -123t-121 -44t-121 44t-44 123v504q0 23 15 38t38 15t38 -15t15 -38v-518q0 -61 59 -61t59 61v518q0 23 15 38t38 15q24 0 38.5 -15t14.5 -38zM261 742h-22l-26 60l-26 -60h-22q-19 0 -30.5 11.5t-11.5 28.5q0 14 9 27l23 35q10 15 15.5 21.5
t16.5 12t26 5.5t26 -5.5t16.5 -12t15.5 -21.5l23 -35q9 -13 9 -27q0 -17 -11.5 -28.5t-30.5 -11.5z" />
    <glyph glyph-name="Udieresis" unicode="&#xdc;" horiz-adv-x="426" 
d="M378 657v-504q0 -79 -44 -123t-121 -44t-121 44t-44 123v504q0 23 15 38t38 15t38 -15t15 -38v-518q0 -61 59 -61t59 61v518q0 23 15 38t38 15q24 0 38.5 -15t14.5 -38zM95 803q0 23 14 38t37 15q24 0 38 -15t14 -38q0 -22 -14 -37t-38 -15q-23 0 -37 15t-14 37zM228 803
q0 23 14 38t37 15q24 0 38 -15t14 -38q0 -22 -14 -37t-38 -15q-23 0 -37 15t-14 37z" />
    <glyph glyph-name="Yacute" unicode="&#xdd;" horiz-adv-x="352" 
d="M181 458l64 213q12 39 52 39q23 0 38 -13.5t15 -34.5q0 -11 -4 -21l-117 -326v-272q0 -23 -15 -38t-38 -15t-38 15t-15 38v272l-117 326q-4 10 -4 21q0 21 15 34.5t38 13.5q40 0 52 -39l64 -213q4 -13 5 -22q1 9 5 22zM223 742h-89l18 91q9 50 55 50q22 0 37 -13t15 -34
q0 -13 -5 -23z" />
    <glyph glyph-name="Thorn" unicode="&#xde;" horiz-adv-x="384" 
d="M195 140h-39v-97q0 -23 -15 -38t-38 -15t-38 15t-15 38v614q0 23 14.5 38t38.5 15q23 0 38 -15t15 -38v-93h41q83 0 127.5 -42.5t44.5 -128.5v-80q0 -78 -48 -125.5t-126 -47.5zM263 309v86q0 36 -18 55.5t-51 19.5h-38v-236h36q34 0 52.5 19.5t18.5 55.5z" />
    <glyph glyph-name="germandbls" unicode="&#xdf;" horiz-adv-x="382" 
d="M201 421q29 29 29 85v69q0 50 -42 50q-41 0 -41 -48v-534q0 -22 -14 -36.5t-37 -14.5t-37 14t-14 37v523q0 72 36.5 109t104.5 37q70 0 108 -36t38 -103v-68q0 -75 -50 -120q34 -19 51 -45t17 -73v-174q0 -45 -25 -74t-70 -29q-55 0 -55 43q0 16 6 24.5t25 21.5
q11 8 14 15.5t3 24.5v146q0 40 -37 65q-29 19 -29 49q0 23 19 42z" />
    <glyph glyph-name="agrave" unicode="&#xe0;" horiz-adv-x="346" 
d="M131 385v-7q0 -21 -13.5 -33.5t-34.5 -12.5q-23 0 -36 12.5t-13 33.5v14q0 59 35 92.5t103 33.5q139 0 139 -136v-341q0 -22 -14 -35.5t-37 -13.5q-20 0 -33 11.5t-15 28.5q-22 -44 -77 -44q-54 0 -82 44t-28 114q0 72 30 112t90 40q39 0 64 -18v108q0 42 -39 42t-39 -45
zM209 83v123q-16 9 -35 9q-25 0 -36.5 -16t-11.5 -53q0 -74 48 -74q22 0 35 11zM222 549h-89l-30 69q-6 15 -6 27q0 22 14.5 33.5t37.5 11.5q45 0 55 -50z" />
    <glyph glyph-name="aacute" unicode="&#xe1;" horiz-adv-x="346" 
d="M131 385v-7q0 -21 -13.5 -33.5t-34.5 -12.5q-23 0 -36 12.5t-13 33.5v14q0 59 35 92.5t103 33.5q139 0 139 -136v-341q0 -22 -14 -35.5t-37 -13.5q-20 0 -33 11.5t-15 28.5q-22 -44 -77 -44q-54 0 -82 44t-28 114q0 72 30 112t90 40q39 0 64 -18v108q0 42 -39 42t-39 -45
zM209 83v123q-16 9 -35 9q-25 0 -36.5 -16t-11.5 -53q0 -74 48 -74q22 0 35 11zM217 549h-89l18 91q9 50 55 50q23 0 37.5 -13t14.5 -34q0 -11 -5 -23z" />
    <glyph glyph-name="acircumflex" unicode="&#xe2;" horiz-adv-x="346" 
d="M131 385v-7q0 -21 -13.5 -33.5t-34.5 -12.5q-23 0 -36 12.5t-13 33.5v14q0 59 35 92.5t103 33.5q139 0 139 -136v-341q0 -22 -14 -35.5t-37 -13.5q-20 0 -33 11.5t-15 28.5q-22 -44 -77 -44q-54 0 -82 44t-28 114q0 72 30 112t90 40q39 0 64 -18v108q0 42 -39 42t-39 -45
zM209 83v123q-16 9 -35 9q-25 0 -36.5 -16t-11.5 -53q0 -74 48 -74q22 0 35 11zM227 549h-22l-26 60l-26 -60h-22q-19 0 -30.5 11.5t-11.5 28.5q0 13 9 27l23 35q10 15 15.5 21.5t16.5 12t26 5.5t26 -5.5t16.5 -12t15.5 -21.5l23 -35q9 -14 9 -27q0 -17 -11.5 -28.5
t-30.5 -11.5z" />
    <glyph glyph-name="atilde" unicode="&#xe3;" horiz-adv-x="346" 
d="M131 385v-7q0 -21 -13.5 -33.5t-34.5 -12.5q-23 0 -36 12.5t-13 33.5v14q0 59 35 92.5t103 33.5q139 0 139 -136v-341q0 -22 -14 -35.5t-37 -13.5q-20 0 -33 11.5t-15 28.5q-22 -44 -77 -44q-54 0 -82 44t-28 114q0 72 30 112t90 40q39 0 64 -18v108q0 42 -39 42t-39 -45
zM209 83v123q-16 9 -35 9q-25 0 -36.5 -16t-11.5 -53q0 -74 48 -74q22 0 35 11zM207 642l21 34q6 2 14 2q20 0 32 -11.5t12 -27.5q0 -9 -7 -23l-14 -23q-18 -30 -50 -30q-23 0 -43 14l-23 16l-18 -30q-8 -2 -16 -2q-19 0 -31.5 11t-12.5 28q0 12 7 25l11 21q15 29 45 29
q22 0 43 -14z" />
    <glyph glyph-name="adieresis" unicode="&#xe4;" horiz-adv-x="346" 
d="M131 385v-7q0 -21 -13.5 -33.5t-34.5 -12.5q-23 0 -36 12.5t-13 33.5v14q0 59 35 92.5t103 33.5q139 0 139 -136v-341q0 -22 -14 -35.5t-37 -13.5q-20 0 -33 11.5t-15 28.5q-22 -44 -77 -44q-54 0 -82 44t-28 114q0 72 30 112t90 40q39 0 64 -18v108q0 42 -39 42t-39 -45
zM209 83v123q-16 9 -35 9q-25 0 -36.5 -16t-11.5 -53q0 -74 48 -74q22 0 35 11zM59 616q0 23 14 38t37 15q24 0 38 -15t14 -38q0 -22 -14 -37t-38 -15q-23 0 -37 15t-14 37zM192 616q0 23 14 38t37 15q24 0 38 -15t14 -38q0 -22 -14 -37t-38 -15q-23 0 -37 15t-14 37z" />
    <glyph glyph-name="aring" unicode="&#xe5;" horiz-adv-x="346" 
d="M131 385v-7q0 -21 -13.5 -33.5t-34.5 -12.5q-23 0 -36 12.5t-13 33.5v14q0 59 35 92.5t103 33.5q139 0 139 -136v-341q0 -22 -14 -35.5t-37 -13.5q-20 0 -33 11.5t-15 28.5q-22 -44 -77 -44q-54 0 -82 44t-28 114q0 72 30 112t90 40q39 0 64 -18v108q0 42 -39 42t-39 -45
zM209 83v123q-16 9 -35 9q-25 0 -36.5 -16t-11.5 -53q0 -74 48 -74q22 0 35 11zM248 619q0 -30 -20.5 -50t-51.5 -20t-51.5 20t-20.5 50t20.5 50t51.5 20t51.5 -20t20.5 -50zM202 619q0 29 -26 29t-26 -29t26 -29t26 29z" />
    <glyph glyph-name="ae" unicode="&#xe6;" horiz-adv-x="520" 
d="M494 374v-109q0 -19 -11 -30t-29 -11h-140v-109q0 -43 40 -43q41 0 41 43v19q0 49 47 49q23 0 36.5 -13t13.5 -36v-22q-2 -56 -39 -90t-99 -34q-64 0 -102 33q-37 -33 -100 -33t-93.5 43.5t-30.5 115.5q0 73 32 112t91 39q39 0 61 -15v105q0 42 -39 42q-41 0 -41 -46v-17
q0 -21 -13.5 -33.5t-34.5 -12.5q-22 0 -35.5 12.5t-13.5 33.5v25q0 56 35.5 91t105.5 35q53 0 90 -26q28 26 88 26q66 0 103 -38.5t37 -105.5zM180 72q23 0 37 8q-5 19 -5 48v79q-14 8 -35 8q-25 0 -36.5 -16t-11.5 -53q0 -74 51 -74zM394 305v83q0 45 -40 45t-40 -43v-85
h80z" />
    <glyph glyph-name="ccedilla" unicode="&#xe7;" horiz-adv-x="337" 
d="M268 -96q0 -34 -29.5 -55t-76.5 -21q-22 0 -32.5 10.5t-10.5 26.5q0 10 4 18q68 2 68 25q0 4 -1.5 7t-5.5 5t-8 3.5t-11 2t-12 1t-14 1.5t-14 1l17 62q-108 17 -108 143v238q0 67 34.5 106.5t107.5 39.5q67 0 101.5 -39t34.5 -102v-15q0 -22 -13 -35.5t-35 -13.5
t-35 13.5t-13 35.5v26q0 43 -40 43t-40 -43v-270q0 -43 40 -43t40 43v26q0 22 13 35.5t35 13.5t35 -13.5t13 -35.5v-15q0 -57 -29.5 -95t-85.5 -45l-4 -20q35 -5 55 -19.5t20 -45.5z" />
    <glyph glyph-name="egrave" unicode="&#xe8;" horiz-adv-x="342" 
d="M316 374v-109q0 -19 -11 -30t-29 -11h-140v-109q0 -43 40 -43q41 0 41 43v6q0 49 48 49q24 0 36.5 -13.5t12.5 -36.5v-8q-2 -56 -39 -90t-99 -34q-68 0 -105 37t-37 103v240q0 72 37.5 111t104.5 39q66 0 103 -38.5t37 -105.5zM216 305v83q0 45 -40 45t-40 -43v-85h80z
M223 549h-89l-30 69q-6 15 -6 27q0 22 14.5 33.5t37.5 11.5q45 0 55 -50z" />
    <glyph glyph-name="eacute" unicode="&#xe9;" horiz-adv-x="342" 
d="M316 374v-109q0 -19 -11 -30t-29 -11h-140v-109q0 -43 40 -43q41 0 41 43v6q0 49 48 49q24 0 36.5 -13.5t12.5 -36.5v-8q-2 -56 -39 -90t-99 -34q-68 0 -105 37t-37 103v240q0 72 37.5 111t104.5 39q66 0 103 -38.5t37 -105.5zM216 305v83q0 45 -40 45t-40 -43v-85h80z
M221 549h-89l18 91q9 50 55 50q23 0 37.5 -13t14.5 -34q0 -11 -5 -23z" />
    <glyph glyph-name="ecircumflex" unicode="&#xea;" horiz-adv-x="342" 
d="M316 374v-109q0 -19 -11 -30t-29 -11h-140v-109q0 -43 40 -43q41 0 41 43v6q0 49 48 49q24 0 36.5 -13.5t12.5 -36.5v-8q-2 -56 -39 -90t-99 -34q-68 0 -105 37t-37 103v240q0 72 37.5 111t104.5 39q66 0 103 -38.5t37 -105.5zM216 305v83q0 45 -40 45t-40 -43v-85h80z
M225 549h-22l-26 60l-26 -60h-22q-19 0 -30.5 11.5t-11.5 28.5q0 13 9 27l23 35q10 15 15.5 21.5t16.5 12t26 5.5t26 -5.5t16.5 -12t15.5 -21.5l23 -35q9 -14 9 -27q0 -17 -11.5 -28.5t-30.5 -11.5z" />
    <glyph glyph-name="edieresis" unicode="&#xeb;" horiz-adv-x="342" 
d="M316 374v-109q0 -19 -11 -30t-29 -11h-140v-109q0 -43 40 -43q41 0 41 43v6q0 49 48 49q24 0 36.5 -13.5t12.5 -36.5v-8q-2 -56 -39 -90t-99 -34q-68 0 -105 37t-37 103v240q0 72 37.5 111t104.5 39q66 0 103 -38.5t37 -105.5zM216 305v83q0 45 -40 45t-40 -43v-85h80z
M59 616q0 23 14 38t37 15q24 0 38 -15t14 -38q0 -22 -14 -37t-38 -15q-23 0 -37 15t-14 37zM192 616q0 23 14 38t37 15q24 0 38 -15t14 -38q0 -22 -14 -37t-38 -15q-23 0 -37 15t-14 37z" />
    <glyph glyph-name="igrave" unicode="&#xec;" horiz-adv-x="192" 
d="M147 463v-420q0 -23 -14 -37t-37 -14t-37 14t-14 37v420q0 23 14 37t37 14t37 -14t14 -37zM138 549h-89l-30 69q-6 15 -6 27q0 22 14.5 33.5t37.5 11.5q45 0 55 -50z" />
    <glyph glyph-name="iacute" unicode="&#xed;" horiz-adv-x="192" 
d="M147 463v-420q0 -23 -14 -37t-37 -14t-37 14t-14 37v420q0 23 14 37t37 14t37 -14t14 -37zM140 549h-89l18 91q9 50 55 50q23 0 37.5 -13t14.5 -34q0 -11 -5 -23z" />
    <glyph glyph-name="icircumflex" unicode="&#xee;" horiz-adv-x="192" 
d="M147 463v-420q0 -23 -14 -37t-37 -14t-37 14t-14 37v420q0 23 14 37t37 14t37 -14t14 -37zM144 549h-22l-26 60l-26 -60h-22q-19 0 -30.5 11.5t-11.5 28.5q0 13 9 27l23 35q10 15 15.5 21.5t16.5 12t26 5.5q22 0 33 -8.5t25 -30.5l23 -35q9 -14 9 -27q0 -17 -11.5 -28.5
t-30.5 -11.5z" />
    <glyph glyph-name="idieresis" unicode="&#xef;" horiz-adv-x="192" 
d="M147 463v-420q0 -23 -14 -37t-37 -14t-37 14t-14 37v420q0 23 14 37t37 14t37 -14t14 -37zM-22 616q0 23 14 38t37 15q24 0 38 -15t14 -38q0 -22 -14 -37t-38 -15q-23 0 -37 15t-14 37zM111 616q0 23 14 38t37 15q24 0 38 -15t14 -38q0 -22 -14 -37t-38 -15q-23 0 -37 15
t-14 37z" />
    <glyph glyph-name="eth" unicode="&#xf0;" horiz-adv-x="360" 
d="M114 606l22 11l-19 19q-17 17 -17 34q0 20 13 31.5t32 11.5q23 0 37 -16l37 -38l37 19q8 4 18 4q17 0 27.5 -11t10.5 -27q0 -24 -25 -36l-19 -10q58 -87 58 -193v-271q0 -65 -40.5 -106.5t-103.5 -41.5q-68 0 -106 37.5t-38 110.5v244q0 130 120 130q37 0 71 -21
q-11 34 -39 72l-47 -24q-8 -4 -16 -4q-15 0 -26 12t-11 28q0 24 24 35zM140 378v-260q0 -46 42 -46t42 46v293q-19 12 -41 12q-43 0 -43 -45z" />
    <glyph glyph-name="ntilde" unicode="&#xf1;" horiz-adv-x="373" 
d="M231 43v336q0 46 -43 46q-27 0 -41 -18v-364q0 -23 -14 -37t-37 -14t-37 14t-14 37v418q0 49 48 49q46 0 49 -45q21 53 87 53q51 0 77.5 -32t26.5 -85v-358q0 -23 -14 -37t-37 -14t-37 14t-14 37zM223 642l21 34q6 2 14 2q20 0 32 -11.5t12 -27.5q0 -9 -7 -23l-14 -23
q-18 -30 -50 -30q-23 0 -43 14l-23 16l-18 -30q-8 -2 -16 -2q-19 0 -31.5 11t-12.5 28q0 12 7 25l11 21q15 29 45 29q22 0 43 -14z" />
    <glyph glyph-name="ograve" unicode="&#xf2;" horiz-adv-x="358" 
d="M179 -12q-67 0 -106 38t-39 102v250q0 64 39 102t106 38t106 -38t39 -102v-250q0 -64 -39 -102t-106 -38zM179 75q43 0 43 44v268q0 44 -43 44t-43 -44v-268q0 -44 43 -44zM223 549h-89l-30 69q-6 15 -6 27q0 22 14.5 33.5t37.5 11.5q45 0 55 -50z" />
    <glyph glyph-name="oacute" unicode="&#xf3;" horiz-adv-x="358" 
d="M179 -12q-67 0 -106 38t-39 102v250q0 64 39 102t106 38t106 -38t39 -102v-250q0 -64 -39 -102t-106 -38zM179 75q43 0 43 44v268q0 44 -43 44t-43 -44v-268q0 -44 43 -44zM221 549h-89l18 91q9 50 55 50q23 0 37.5 -13t14.5 -34q0 -11 -5 -23z" />
    <glyph glyph-name="ocircumflex" unicode="&#xf4;" horiz-adv-x="358" 
d="M179 -12q-67 0 -106 38t-39 102v250q0 64 39 102t106 38t106 -38t39 -102v-250q0 -64 -39 -102t-106 -38zM179 75q43 0 43 44v268q0 44 -43 44t-43 -44v-268q0 -44 43 -44zM227 549h-22l-26 60l-26 -60h-22q-19 0 -30.5 11.5t-11.5 28.5q0 13 9 27l23 35q10 15 15.5 21.5
t16.5 12t26 5.5t26 -5.5t16.5 -12t15.5 -21.5l23 -35q9 -14 9 -27q0 -17 -11.5 -28.5t-30.5 -11.5z" />
    <glyph glyph-name="otilde" unicode="&#xf5;" horiz-adv-x="358" 
d="M179 -12q-67 0 -106 38t-39 102v250q0 64 39 102t106 38t106 -38t39 -102v-250q0 -64 -39 -102t-106 -38zM179 75q43 0 43 44v268q0 44 -43 44t-43 -44v-268q0 -44 43 -44zM212 642l21 34q6 2 14 2q20 0 32 -11.5t12 -27.5q0 -9 -7 -23l-14 -23q-18 -30 -50 -30
q-23 0 -43 14l-23 16l-18 -30q-8 -2 -16 -2q-19 0 -31.5 11t-12.5 28q0 12 7 25l11 21q15 29 45 29q22 0 43 -14z" />
    <glyph glyph-name="odieresis" unicode="&#xf6;" horiz-adv-x="358" 
d="M179 -12q-67 0 -106 38t-39 102v250q0 64 39 102t106 38t106 -38t39 -102v-250q0 -64 -39 -102t-106 -38zM179 75q43 0 43 44v268q0 44 -43 44t-43 -44v-268q0 -44 43 -44zM61 616q0 23 14 38t37 15q24 0 38 -15t14 -38q0 -22 -14 -37t-38 -15q-23 0 -37 15t-14 37z
M194 616q0 23 14 38t37 15q24 0 38 -15t14 -38q0 -22 -14 -37t-38 -15q-23 0 -37 15t-14 37z" />
    <glyph glyph-name="divide" unicode="&#xf7;" horiz-adv-x="468" 
d="M35 350q0 20 12.5 32t31.5 12h310q19 0 31.5 -12t12.5 -32t-12.5 -32t-31.5 -12h-310q-19 0 -31.5 12t-12.5 32zM294 191q0 -26 -16 -43t-44 -17t-44 17t-16 43t16 43t44 17t44 -17t16 -43zM294 509q0 -26 -16 -43t-44 -17t-44 17t-16 43t16 43t44 17t44 -17t16 -43z" />
    <glyph glyph-name="oslash" unicode="&#xf8;" horiz-adv-x="358" 
d="M179 -12q-22 0 -38 4l-15 -46q-12 -36 -46 -36q-19 0 -32.5 11.5t-13.5 29.5q0 3 2 13l25 75q-27 35 -27 89v250q0 64 39 102t106 38q21 0 37 -4l17 50q11 32 45 32q18 0 32 -11t14 -30q0 -8 -3 -17l-24 -73q27 -37 27 -87v-250q0 -64 -39 -102t-106 -38zM179 75
q43 0 43 44v268q0 44 -43 44t-43 -44v-268q0 -44 43 -44z" />
    <glyph glyph-name="ugrave" unicode="&#xf9;" horiz-adv-x="370" 
d="M142 463v-336q0 -46 40 -46q27 0 41 18v364q0 23 14 37t37 14t37 -14t14 -37v-422q0 -49 -48 -49q-46 0 -49 49q-23 -53 -87 -53q-51 0 -76 31.5t-25 85.5v358q0 23 14 37t37 14t37 -14t14 -37zM239 549h-89l-30 69q-6 15 -6 27q0 22 14.5 33.5t37.5 11.5q45 0 55 -50z
" />
    <glyph glyph-name="uacute" unicode="&#xfa;" horiz-adv-x="370" 
d="M142 463v-336q0 -46 40 -46q27 0 41 18v364q0 23 14 37t37 14t37 -14t14 -37v-422q0 -49 -48 -49q-46 0 -49 49q-23 -53 -87 -53q-51 0 -76 31.5t-25 85.5v358q0 23 14 37t37 14t37 -14t14 -37zM225 549h-89l18 91q9 50 55 50q23 0 37.5 -13t14.5 -34q0 -11 -5 -23z" />
    <glyph glyph-name="ucircumflex" unicode="&#xfb;" horiz-adv-x="370" 
d="M142 463v-336q0 -46 40 -46q27 0 41 18v364q0 23 14 37t37 14t37 -14t14 -37v-422q0 -49 -48 -49q-46 0 -49 49q-23 -53 -87 -53q-51 0 -76 31.5t-25 85.5v358q0 23 14 37t37 14t37 -14t14 -37zM234 549h-22l-26 60l-26 -60h-22q-19 0 -30.5 11.5t-11.5 28.5q0 13 9 27
l23 35q14 22 25 30.5t33 8.5t33 -8.5t25 -30.5l23 -35q9 -14 9 -27q0 -17 -11.5 -28.5t-30.5 -11.5z" />
    <glyph glyph-name="udieresis" unicode="&#xfc;" horiz-adv-x="370" 
d="M142 463v-336q0 -46 40 -46q27 0 41 18v364q0 23 14 37t37 14t37 -14t14 -37v-422q0 -49 -48 -49q-46 0 -49 49q-23 -53 -87 -53q-51 0 -76 31.5t-25 85.5v358q0 23 14 37t37 14t37 -14t14 -37zM69 616q0 23 14 38t37 15q24 0 38 -15t14 -38q0 -22 -14 -37t-38 -15
q-23 0 -37 15t-14 37zM202 616q0 23 14 38t37 15q24 0 38 -15t14 -38q0 -22 -14 -37t-38 -15q-23 0 -37 15t-14 37z" />
    <glyph glyph-name="yacute" unicode="&#xfd;" horiz-adv-x="322" 
d="M313 456l-98 -415l-37 -173q-8 -40 -46 -40q-21 0 -33.5 12t-12.5 31q0 8 2 18l27 132q-4 8 -7 20l-99 415q-2 10 -2 15q0 22 14.5 33.5t35.5 11.5q42 0 49 -42l50 -291q3 -17 5 -45q0 20 5 45l50 291q7 42 49 42q22 0 36 -12t14 -33q0 -5 -2 -15zM204 549h-89l18 91
q9 50 55 50q23 0 37.5 -13t14.5 -34q0 -11 -5 -23z" />
    <glyph glyph-name="thorn" unicode="&#xfe;" horiz-adv-x="371" 
d="M333 411v-319q0 -46 -27.5 -75t-73.5 -29q-29 0 -52 13.5t-33 32.5v-151q0 -23 -14 -37t-37 -14t-37 14t-14 37v774q0 23 14 37t37 14t37 -14t14 -37v-187q27 48 85 48q46 0 73.5 -30.5t27.5 -76.5zM231 117v269q0 44 -41 44q-27 0 -43 -18v-318q18 -18 42 -18
q42 0 42 41z" />
    <glyph glyph-name="ydieresis" unicode="&#xff;" horiz-adv-x="322" 
d="M313 456l-98 -415l-37 -173q-8 -40 -46 -40q-21 0 -33.5 12t-12.5 31q0 8 2 18l27 132q-4 8 -7 20l-99 415q-2 10 -2 15q0 22 14.5 33.5t35.5 11.5q42 0 49 -42l50 -291q3 -17 5 -45q0 20 5 45l50 291q7 42 49 42q22 0 36 -12t14 -33q0 -5 -2 -15zM43 616q0 23 14 38
t37 15q24 0 38 -15t14 -38q0 -22 -14 -37t-38 -15q-23 0 -37 15t-14 37zM176 616q0 23 14 38t37 15q24 0 38 -15t14 -38q0 -22 -14 -37t-38 -15q-23 0 -37 15t-14 37z" />
    <glyph glyph-name="Amacron" unicode="&#x100;" horiz-adv-x="390" 
d="M251 660l116 -606q6 -29 -10 -46.5t-40 -17.5q-19 0 -34 13t-19 37l-17 122h-105l-16 -122q-4 -25 -18.5 -37.5t-34.5 -12.5q-24 0 -40 17.5t-10 46.5l116 606q10 50 56 50t56 -50zM191 522l-36 -268h80l-36 268q0 1 -1.5 13.5t-2.5 20.5q0 -5 -4 -34zM69 809
q0 19 11.5 30.5t30.5 11.5h169q19 0 30.5 -11.5t11.5 -30.5t-11 -30.5t-31 -11.5h-169q-19 0 -30.5 11.5t-11.5 30.5z" />
    <glyph glyph-name="amacron" unicode="&#x101;" horiz-adv-x="346" 
d="M131 385v-7q0 -21 -13.5 -33.5t-34.5 -12.5q-23 0 -36 12.5t-13 33.5v14q0 59 35 92.5t103 33.5q139 0 139 -136v-341q0 -22 -14 -35.5t-37 -13.5q-20 0 -33 11.5t-15 28.5q-22 -44 -77 -44q-54 0 -82 44t-28 114q0 72 30 112t90 40q39 0 64 -18v108q0 42 -39 42t-39 -45
zM209 83v123q-16 9 -35 9q-25 0 -36.5 -16t-11.5 -53q0 -74 48 -74q22 0 35 11zM65 616q0 19 11.5 30.5t30.5 11.5h138q19 0 30.5 -11.5t11.5 -30.5q0 -20 -11.5 -31t-30.5 -11h-138q-19 0 -30.5 11t-11.5 31z" />
    <glyph glyph-name="Abreve" unicode="&#x102;" horiz-adv-x="390" 
d="M251 660l116 -606q6 -29 -10 -46.5t-40 -17.5q-19 0 -34 13t-19 37l-17 122h-105l-16 -122q-4 -25 -18.5 -37.5t-34.5 -12.5q-24 0 -40 17.5t-10 46.5l116 606q10 50 56 50t56 -50zM191 522l-36 -268h80l-36 268q0 1 -1.5 13.5t-2.5 20.5q0 -5 -4 -34zM166 835v-3
q0 -28 29 -28t29 28v3q0 35 38 35q18 0 28.5 -10t10.5 -27v-2q0 -42 -28.5 -65t-77.5 -23t-77.5 23t-28.5 65v2q0 17 10.5 27t28.5 10q38 0 38 -35z" />
    <glyph glyph-name="abreve" unicode="&#x103;" horiz-adv-x="346" 
d="M131 385v-7q0 -21 -13.5 -33.5t-34.5 -12.5q-23 0 -36 12.5t-13 33.5v14q0 59 35 92.5t103 33.5q139 0 139 -136v-341q0 -22 -14 -35.5t-37 -13.5q-20 0 -33 11.5t-15 28.5q-22 -44 -77 -44q-54 0 -82 44t-28 114q0 72 30 112t90 40q39 0 64 -18v108q0 42 -39 42t-39 -45
zM209 83v123q-16 9 -35 9q-25 0 -36.5 -16t-11.5 -53q0 -74 48 -74q22 0 35 11zM149 645v-3q0 -30 26 -30t26 30v3q0 35 37 35q38 0 38 -36v-3q0 -42 -27 -65t-74 -23t-74 23t-27 65v3q0 36 38 36q37 0 37 -35z" />
    <glyph glyph-name="Aogonek" unicode="&#x104;" horiz-adv-x="390" 
d="M251 660l115 -601q2 -12 2 -19q0 -17 -13 -34q-36 -46 -36 -86q0 -22 21 -22q10 0 16 3q9 -15 9 -31q0 -19 -16 -30.5t-41 -11.5q-32 0 -49.5 18t-17.5 49q0 59 52 101q-25 13 -29 44l-17 122h-105l-16 -122q-4 -25 -18.5 -37.5t-34.5 -12.5q-24 0 -40 17.5t-10 46.5
l116 606q10 50 56 50t56 -50zM191 522l-36 -268h80l-36 268q-2 12 -4 31q-2 -19 -4 -31z" />
    <glyph glyph-name="aogonek" unicode="&#x105;" horiz-adv-x="346" 
d="M131 385v-7q0 -21 -13.5 -33.5t-34.5 -12.5q-23 0 -36 12.5t-13 33.5v14q0 59 35 92.5t103 33.5q139 0 139 -136v-341q0 -19 -11 -33q-40 -50 -40 -87q0 -23 21 -23q10 0 16 3q9 -15 9 -31q0 -19 -16 -30.5t-41 -11.5q-32 0 -49.5 18t-17.5 49q0 60 57 101q-24 9 -27 36
q-22 -44 -77 -44q-54 0 -82 44t-28 114q0 72 30 112t90 40q39 0 64 -18v108q0 42 -39 42t-39 -45zM209 83v123q-16 9 -35 9q-25 0 -36.5 -16t-11.5 -53q0 -74 48 -74q22 0 35 11z" />
    <glyph glyph-name="Cacute" unicode="&#x106;" horiz-adv-x="383" 
d="M197 714q76 0 117 -45.5t41 -123.5v-53q0 -23 -13.5 -37t-36.5 -14t-36.5 14t-13.5 37v70q0 61 -57 61q-56 0 -56 -61v-424q0 -61 56 -61q57 0 57 61v70q0 23 13.5 37t36.5 14t36.5 -14t13.5 -37v-53q0 -78 -41 -123.5t-117 -45.5q-78 0 -119.5 45t-41.5 124v390
q0 79 41.5 124t119.5 45zM240 742h-89l18 91q9 50 55 50q22 0 37 -13t15 -34q0 -13 -5 -23z" />
    <glyph glyph-name="cacute" unicode="&#x107;" horiz-adv-x="337" 
d="M136 118q0 -43 40 -43t40 43v26q0 22 13 35.5t35 13.5t35 -13.5t13 -35.5v-15q0 -63 -34.5 -102t-101.5 -39q-73 0 -107.5 39.5t-34.5 106.5v238q0 67 34.5 106.5t107.5 39.5q67 0 101.5 -39t34.5 -102v-15q0 -22 -13 -35.5t-35 -13.5t-35 13.5t-13 35.5v26q0 43 -40 43
t-40 -43v-270zM213 549h-89l18 91q9 50 55 50q23 0 37.5 -13t14.5 -34q0 -11 -5 -23z" />
    <glyph glyph-name="Ccircumflex" unicode="&#x108;" horiz-adv-x="383" 
d="M197 714q76 0 117 -45.5t41 -123.5v-53q0 -23 -13.5 -37t-36.5 -14t-36.5 14t-13.5 37v70q0 61 -57 61q-56 0 -56 -61v-424q0 -61 56 -61q57 0 57 61v70q0 23 13.5 37t36.5 14t36.5 -14t13.5 -37v-53q0 -78 -41 -123.5t-117 -45.5q-78 0 -119.5 45t-41.5 124v390
q0 79 41.5 124t119.5 45zM243 742h-22l-26 60l-26 -60h-22q-19 0 -30.5 11.5t-11.5 28.5q0 14 9 27l23 35q10 15 15.5 21.5t16.5 12t26 5.5q22 0 33 -8.5t25 -30.5l23 -35q9 -13 9 -27q0 -17 -11.5 -28.5t-30.5 -11.5z" />
    <glyph glyph-name="ccircumflex" unicode="&#x109;" horiz-adv-x="337" 
d="M136 118q0 -43 40 -43t40 43v26q0 22 13 35.5t35 13.5t35 -13.5t13 -35.5v-15q0 -63 -34.5 -102t-101.5 -39q-73 0 -107.5 39.5t-34.5 106.5v238q0 67 34.5 106.5t107.5 39.5q67 0 101.5 -39t34.5 -102v-15q0 -22 -13 -35.5t-35 -13.5t-35 13.5t-13 35.5v26q0 43 -40 43
t-40 -43v-270zM221 549h-22l-26 60l-26 -60h-22q-19 0 -30.5 11.5t-11.5 28.5q0 13 9 27l23 35q10 15 15.5 21.5t16.5 12t26 5.5t26 -5.5t16.5 -12t15.5 -21.5l23 -35q9 -14 9 -27q0 -17 -11.5 -28.5t-30.5 -11.5z" />
    <glyph glyph-name="Cdotaccent" unicode="&#x10a;" horiz-adv-x="383" 
d="M197 714q76 0 117 -45.5t41 -123.5v-53q0 -23 -13.5 -37t-36.5 -14t-36.5 14t-13.5 37v70q0 61 -57 61q-56 0 -56 -61v-424q0 -61 56 -61q57 0 57 61v70q0 23 13.5 37t36.5 14t36.5 -14t13.5 -37v-53q0 -78 -41 -123.5t-117 -45.5q-78 0 -119.5 45t-41.5 124v390
q0 79 41.5 124t119.5 45zM135 812q0 26 16 44t44 18t44.5 -18t16.5 -44t-16.5 -43.5t-44.5 -17.5t-44 17.5t-16 43.5z" />
    <glyph glyph-name="cdotaccent" unicode="&#x10b;" horiz-adv-x="337" 
d="M136 118q0 -43 40 -43t40 43v26q0 22 13 35.5t35 13.5t35 -13.5t13 -35.5v-15q0 -63 -34.5 -102t-101.5 -39q-73 0 -107.5 39.5t-34.5 106.5v238q0 67 34.5 106.5t107.5 39.5q67 0 101.5 -39t34.5 -102v-15q0 -22 -13 -35.5t-35 -13.5t-35 13.5t-13 35.5v26q0 43 -40 43
t-40 -43v-270zM110 646q0 26 16 44t44 18t44.5 -18t16.5 -44t-16.5 -43.5t-44.5 -17.5t-44 17.5t-16 43.5z" />
    <glyph glyph-name="Ccaron" unicode="&#x10c;" horiz-adv-x="383" 
d="M197 714q76 0 117 -45.5t41 -123.5v-53q0 -23 -13.5 -37t-36.5 -14t-36.5 14t-13.5 37v70q0 61 -57 61q-56 0 -56 -61v-424q0 -61 56 -61q57 0 57 61v70q0 23 13.5 37t36.5 14t36.5 -14t13.5 -37v-53q0 -78 -41 -123.5t-117 -45.5q-78 0 -119.5 45t-41.5 124v390
q0 79 41.5 124t119.5 45zM221 883h22q19 0 30.5 -11.5t11.5 -28.5q0 -13 -9 -27l-23 -35q-14 -22 -25 -30.5t-33 -8.5q-15 0 -26 5.5t-16.5 12t-15.5 21.5l-23 35q-9 14 -9 27q0 17 11.5 28.5t30.5 11.5h22l26 -60z" />
    <glyph glyph-name="ccaron" unicode="&#x10d;" horiz-adv-x="337" 
d="M136 118q0 -43 40 -43t40 43v26q0 22 13 35.5t35 13.5t35 -13.5t13 -35.5v-15q0 -63 -34.5 -102t-101.5 -39q-73 0 -107.5 39.5t-34.5 106.5v238q0 67 34.5 106.5t107.5 39.5q67 0 101.5 -39t34.5 -102v-15q0 -22 -13 -35.5t-35 -13.5t-35 13.5t-13 35.5v26q0 43 -40 43
t-40 -43v-270zM198 690h22q19 0 30.5 -11.5t11.5 -28.5q0 -14 -9 -27l-23 -35q-10 -15 -15.5 -21.5t-16.5 -12t-26 -5.5q-22 0 -33 8.5t-25 30.5l-23 35q-9 13 -9 27q0 17 11.5 28.5t30.5 11.5h22l26 -60z" />
    <glyph glyph-name="Dcaron" unicode="&#x10e;" horiz-adv-x="411" 
d="M50 647q0 23 15 38t38 15h92q91 0 136.5 -49t45.5 -136v-330q0 -87 -45.5 -136t-136.5 -49h-92q-23 0 -38 15t-15 38v594zM156 93h40q37 0 56 20.5t19 55.5v362q0 35 -19 55.5t-56 20.5h-40v-514zM224 883h22q19 0 30.5 -11.5t11.5 -28.5q0 -13 -9 -27l-23 -35
q-14 -22 -25 -30.5t-33 -8.5t-33 8.5t-25 30.5l-23 35q-9 14 -9 27q0 17 11.5 28.5t30.5 11.5h22l26 -60z" />
    <glyph glyph-name="dcaron" unicode="&#x10f;" horiz-adv-x="381" 
d="M38 95v319q0 48 26.5 76t73.5 28q57 0 86 -43v182q0 23 14 37t37 14t37 -14t14 -37v-614q0 -23 -13 -37t-36 -14q-45 0 -51 48q-11 -23 -34 -37.5t-53 -14.5q-46 0 -73.5 31t-27.5 76zM140 389v-269q0 -44 41 -44q27 0 43 18v318q-18 18 -42 18q-42 0 -42 -41zM377 664
q0 23 14 36.5t36 13.5q24 0 39 -16t15 -42q0 -62 -58 -112q-7 -6 -15 -6q-21 0 -21 19q0 10 6 16q25 25 31 37q-20 3 -33.5 17.5t-13.5 36.5z" />
    <glyph glyph-name="Dcroat" unicode="&#x110;" horiz-adv-x="431" 
d="M68 647q0 23 15 38t38 15h92q91 0 136.5 -49t45.5 -136v-330q0 -87 -45.5 -136t-136.5 -49h-92q-23 0 -38 15t-15 38v252h-19q-20 0 -32 12t-12 33t12 33t32 12h19v252zM174 93h40q37 0 56 20.5t19 55.5v362q0 35 -19 55.5t-56 20.5h-40v-212h34q21 0 33.5 -12t12.5 -33
t-12.5 -33t-33.5 -12h-34v-212z" />
    <glyph glyph-name="dcroat" unicode="&#x111;" horiz-adv-x="375" 
d="M38 95v319q0 48 26.5 76t73.5 28q57 0 86 -43v73h-67q-19 0 -30 11t-11 30t11 30t30 11h67v27q0 23 14 37t37 14t37 -14t14 -37v-27h23q19 0 30 -11t11 -30t-11 -30t-30 -11h-23v-505q0 -23 -13 -37t-36 -14q-45 0 -51 48q-11 -23 -34 -37.5t-53 -14.5q-46 0 -73.5 31
t-27.5 76zM140 389v-269q0 -44 41 -44q27 0 43 18v318q-18 18 -42 18q-42 0 -42 -41z" />
    <glyph glyph-name="Emacron" unicode="&#x112;" horiz-adv-x="366" 
d="M50 53v594q0 23 15 38t38 15h200q21 0 34 -13.5t13 -33.5q0 -21 -13 -34t-34 -13h-147v-204h114q20 0 33.5 -13.5t13.5 -33.5q0 -21 -13.5 -34t-33.5 -13h-114v-214h148q21 0 34 -13.5t13 -33.5t-13 -33.5t-34 -13.5h-201q-23 0 -38 15t-15 38zM78 809q0 19 11.5 30.5
t30.5 11.5h169q19 0 30.5 -11.5t11.5 -30.5t-11.5 -30.5t-30.5 -11.5h-169q-20 0 -31 11.5t-11 30.5z" />
    <glyph glyph-name="emacron" unicode="&#x113;" horiz-adv-x="342" 
d="M316 374v-109q0 -19 -11 -30t-29 -11h-140v-109q0 -43 40 -43q41 0 41 43v6q0 49 48 49q24 0 36.5 -13.5t12.5 -36.5v-8q-2 -56 -39 -90t-99 -34q-68 0 -105 37t-37 103v240q0 72 37.5 111t104.5 39q66 0 103 -38.5t37 -105.5zM216 305v83q0 45 -40 45t-40 -43v-85h80z
M67 616q0 19 11.5 30.5t30.5 11.5h138q19 0 30.5 -11.5t11.5 -30.5q0 -20 -11.5 -31t-30.5 -11h-138q-19 0 -30.5 11t-11.5 31z" />
    <glyph glyph-name="Ebreve" unicode="&#x114;" horiz-adv-x="366" 
d="M50 53v594q0 23 15 38t38 15h200q21 0 34 -13.5t13 -33.5q0 -21 -13 -34t-34 -13h-147v-204h114q20 0 33.5 -13.5t13.5 -33.5q0 -21 -13.5 -34t-33.5 -13h-114v-214h148q21 0 34 -13.5t13 -33.5t-13 -33.5t-34 -13.5h-201q-23 0 -38 15t-15 38zM177 835v-3q0 -28 29 -28
t29 28v3q0 35 38 35q18 0 28.5 -10t10.5 -27v-2q0 -42 -28.5 -65t-77.5 -23t-77.5 23t-28.5 65v2q0 17 10.5 27t28.5 10q38 0 38 -35z" />
    <glyph glyph-name="ebreve" unicode="&#x115;" horiz-adv-x="342" 
d="M316 374v-109q0 -19 -11 -30t-29 -11h-140v-109q0 -43 40 -43q41 0 41 43v6q0 49 48 49q24 0 36.5 -13.5t12.5 -36.5v-8q-2 -56 -39 -90t-99 -34q-68 0 -105 37t-37 103v240q0 72 37.5 111t104.5 39q66 0 103 -38.5t37 -105.5zM216 305v83q0 45 -40 45t-40 -43v-85h80z
M152 645v-3q0 -30 26 -30t26 30v3q0 35 37 35q38 0 38 -36v-3q0 -42 -27 -65t-74 -23t-74 23t-27 65v3q0 36 38 36q37 0 37 -35z" />
    <glyph glyph-name="Edotaccent" unicode="&#x116;" horiz-adv-x="366" 
d="M50 53v594q0 23 15 38t38 15h200q21 0 34 -13.5t13 -33.5q0 -21 -13 -34t-34 -13h-147v-204h114q20 0 33.5 -13.5t13.5 -33.5q0 -21 -13.5 -34t-33.5 -13h-114v-214h148q21 0 34 -13.5t13 -33.5t-13 -33.5t-34 -13.5h-201q-23 0 -38 15t-15 38zM142 812q0 26 16 44t44 18
t44.5 -18t16.5 -44t-16.5 -43.5t-44.5 -17.5t-44 17.5t-16 43.5z" />
    <glyph glyph-name="edotaccent" unicode="&#x117;" horiz-adv-x="342" 
d="M316 374v-109q0 -19 -11 -30t-29 -11h-140v-109q0 -43 40 -43q41 0 41 43v6q0 49 48 49q24 0 36.5 -13.5t12.5 -36.5v-8q-2 -56 -39 -90t-99 -34q-68 0 -105 37t-37 103v240q0 72 37.5 111t104.5 39q66 0 103 -38.5t37 -105.5zM216 305v83q0 45 -40 45t-40 -43v-85h80z
M118 646q0 26 16 44t44 18t44.5 -18t16.5 -44t-16.5 -43.5t-44.5 -17.5t-44 17.5t-16 43.5z" />
    <glyph glyph-name="Eogonek" unicode="&#x118;" horiz-adv-x="371" 
d="M50 53v594q0 23 15 38t38 15h200q21 0 34 -13.5t13 -33.5q0 -21 -13 -34t-34 -13h-147v-204h114q20 0 33.5 -13.5t13.5 -33.5q0 -21 -13.5 -34t-33.5 -13h-114v-214h148q21 0 34 -13.5t13 -33.5q0 -23 -17 -37q-50 -44 -50 -90q0 -22 21 -22q10 0 16 3q9 -15 9 -31
q0 -19 -16 -30.5t-41 -11.5q-32 0 -49.5 18t-17.5 49q0 57 56 105h-159q-23 0 -38 15t-15 38z" />
    <glyph glyph-name="eogonek" unicode="&#x119;" horiz-adv-x="342" 
d="M316 374v-109q0 -19 -11 -30t-29 -11h-140v-109q0 -43 40 -43q41 0 41 43v6q0 49 48 49q24 0 36.5 -13.5t12.5 -36.5v-8q-1 -43 -25 -75q-2 -3 -11 -15.5t-12.5 -17t-10.5 -15.5t-10 -17.5t-7.5 -16t-6 -18t-1.5 -16.5q0 -23 21 -23q10 0 16 3q9 -15 9 -31q0 -18 -17 -30
t-41 -12q-33 0 -49.5 18t-16.5 48q0 50 49 96q-16 -2 -25 -2q-68 0 -105 37t-37 103v240q0 72 37.5 111t104.5 39q66 0 103 -38.5t37 -105.5zM216 305v83q0 45 -40 45t-40 -43v-85h80z" />
    <glyph glyph-name="Ecaron" unicode="&#x11a;" horiz-adv-x="366" 
d="M50 53v594q0 23 15 38t38 15h200q21 0 34 -13.5t13 -33.5q0 -21 -13 -34t-34 -13h-147v-204h114q20 0 33.5 -13.5t13.5 -33.5q0 -21 -13.5 -34t-33.5 -13h-114v-214h148q21 0 34 -13.5t13 -33.5t-13 -33.5t-34 -13.5h-201q-23 0 -38 15t-15 38zM230 883h22
q19 0 30.5 -11.5t11.5 -28.5q0 -13 -9 -27l-23 -35q-14 -22 -25 -30.5t-33 -8.5t-33 8.5t-25 30.5l-23 35q-9 14 -9 27q0 17 11.5 28.5t30.5 11.5h22l26 -60z" />
    <glyph glyph-name="ecaron" unicode="&#x11b;" horiz-adv-x="342" 
d="M316 374v-109q0 -19 -11 -30t-29 -11h-140v-109q0 -43 40 -43q41 0 41 43v6q0 49 48 49q24 0 36.5 -13.5t12.5 -36.5v-8q-2 -56 -39 -90t-99 -34q-68 0 -105 37t-37 103v240q0 72 37.5 111t104.5 39q66 0 103 -38.5t37 -105.5zM216 305v83q0 45 -40 45t-40 -43v-85h80z
M201 690h22q19 0 30.5 -11.5t11.5 -28.5q0 -14 -9 -27l-23 -35q-10 -15 -15.5 -21.5t-16.5 -12t-26 -5.5t-26 5.5t-16.5 12t-15.5 21.5l-23 35q-9 13 -9 27q0 17 11.5 28.5t30.5 11.5h22l26 -60z" />
    <glyph glyph-name="Gcircumflex" unicode="&#x11c;" horiz-adv-x="392" 
d="M182 309q0 22 12.5 34.5t34.5 12.5h82q48 0 48 -48v-155q0 -76 -42 -121.5t-121 -45.5q-74 0 -117 46t-43 119v397q0 85 44.5 125.5t119.5 40.5q76 0 116.5 -42.5t40.5 -123.5v-37q0 -23 -14 -37t-37 -14t-37 14t-14 37v52q0 29 -15 44.5t-41 15.5t-41.5 -15.5
t-15.5 -45.5v-425q0 -29 15 -45.5t43 -16.5q29 0 44 17t15 46v124h-30q-22 0 -34.5 12.5t-12.5 34.5zM245 742h-22l-26 60l-26 -60h-22q-19 0 -30.5 11.5t-11.5 28.5q0 14 9 27l23 35q10 15 15.5 21.5t16.5 12t26 5.5t26 -5.5t16.5 -12t15.5 -21.5l23 -35q9 -13 9 -27
q0 -17 -11.5 -28.5t-30.5 -11.5z" />
    <glyph glyph-name="gcircumflex" unicode="&#x11d;" horiz-adv-x="365" 
d="M324 367v-68q0 -63 -37.5 -105.5t-108.5 -42.5q-22 0 -45 5q-7 -12 -7 -24q0 -25 29 -25h64q63 0 99 -33t36 -96q0 -69 -51.5 -109.5t-132.5 -40.5q-163 0 -163 113q0 63 63 94q-40 22 -40 69q0 54 48 82q-46 42 -46 113v71q0 67 36.5 107.5t106.5 40.5q48 0 124 16
q15 3 27 3q37 0 37 -46q0 -25 -15 -35.5t-52 -11.5q28 -21 28 -77zM225 288v93q0 54 -47 54t-47 -54v-93q0 -54 47 -54t47 54zM198 22h-65q-27 -25 -27 -59q0 -54 70 -54q37 0 58 17t21 45q0 51 -57 51zM229 549h-22l-26 60l-26 -60h-22q-19 0 -30.5 11.5t-11.5 28.5
q0 13 9 27l23 35q10 15 15.5 21.5t16.5 12t26 5.5t26 -5.5t16.5 -12t15.5 -21.5l23 -35q9 -14 9 -27q0 -17 -11.5 -28.5t-30.5 -11.5z" />
    <glyph glyph-name="Gbreve" unicode="&#x11e;" horiz-adv-x="392" 
d="M182 309q0 22 12.5 34.5t34.5 12.5h82q48 0 48 -48v-155q0 -76 -42 -121.5t-121 -45.5q-74 0 -117 46t-43 119v397q0 85 44.5 125.5t119.5 40.5q76 0 116.5 -42.5t40.5 -123.5v-37q0 -23 -14 -37t-37 -14t-37 14t-14 37v52q0 29 -15 44.5t-41 15.5t-41.5 -15.5
t-15.5 -45.5v-425q0 -29 15 -45.5t43 -16.5q29 0 44 17t15 46v124h-30q-22 0 -34.5 12.5t-12.5 34.5zM168 835v-3q0 -28 29 -28t29 28v3q0 35 38 35q18 0 28.5 -10t10.5 -27v-2q0 -42 -28.5 -65t-77.5 -23t-77.5 23t-28.5 65v2q0 17 10.5 27t28.5 10q38 0 38 -35z" />
    <glyph glyph-name="gbreve" unicode="&#x11f;" horiz-adv-x="365" 
d="M324 367v-68q0 -63 -37.5 -105.5t-108.5 -42.5q-22 0 -45 5q-7 -12 -7 -24q0 -25 29 -25h64q63 0 99 -33t36 -96q0 -69 -51.5 -109.5t-132.5 -40.5q-163 0 -163 113q0 63 63 94q-40 22 -40 69q0 54 48 82q-46 42 -46 113v71q0 67 36.5 107.5t106.5 40.5q48 0 124 16
q15 3 27 3q37 0 37 -46q0 -25 -15 -35.5t-52 -11.5q28 -21 28 -77zM225 288v93q0 54 -47 54t-47 -54v-93q0 -54 47 -54t47 54zM198 22h-65q-27 -25 -27 -59q0 -54 70 -54q37 0 58 17t21 45q0 51 -57 51zM156 645v-3q0 -30 26 -30t26 30v3q0 35 37 35q38 0 38 -36v-3
q0 -42 -27 -65t-74 -23t-74 23t-27 65v3q0 36 38 36q37 0 37 -35z" />
    <glyph glyph-name="Gdotaccent" unicode="&#x120;" horiz-adv-x="392" 
d="M182 309q0 22 12.5 34.5t34.5 12.5h82q48 0 48 -48v-155q0 -76 -42 -121.5t-121 -45.5q-74 0 -117 46t-43 119v397q0 85 44.5 125.5t119.5 40.5q76 0 116.5 -42.5t40.5 -123.5v-37q0 -23 -14 -37t-37 -14t-37 14t-14 37v52q0 29 -15 44.5t-41 15.5t-41.5 -15.5
t-15.5 -45.5v-425q0 -29 15 -45.5t43 -16.5q29 0 44 17t15 46v124h-30q-22 0 -34.5 12.5t-12.5 34.5zM136 812q0 26 16 44t44 18t44.5 -18t16.5 -44t-16.5 -43.5t-44.5 -17.5t-44 17.5t-16 43.5z" />
    <glyph glyph-name="gdotaccent" unicode="&#x121;" horiz-adv-x="365" 
d="M324 367v-68q0 -63 -37.5 -105.5t-108.5 -42.5q-22 0 -45 5q-7 -12 -7 -24q0 -25 29 -25h64q63 0 99 -33t36 -96q0 -69 -51.5 -109.5t-132.5 -40.5q-163 0 -163 113q0 63 63 94q-40 22 -40 69q0 54 48 82q-46 42 -46 113v71q0 67 36.5 107.5t106.5 40.5q48 0 124 16
q15 3 27 3q37 0 37 -46q0 -25 -15 -35.5t-52 -11.5q28 -21 28 -77zM225 288v93q0 54 -47 54t-47 -54v-93q0 -54 47 -54t47 54zM198 22h-65q-27 -25 -27 -59q0 -54 70 -54q37 0 58 17t21 45q0 51 -57 51zM123 646q0 26 16 44t44 18t44.5 -18t16.5 -44t-16.5 -43.5
t-44.5 -17.5t-44 17.5t-16 43.5z" />
    <glyph glyph-name="Gcommaaccent" unicode="&#x122;" horiz-adv-x="392" 
d="M182 309q0 22 12.5 34.5t34.5 12.5h82q48 0 48 -48v-155q0 -76 -42 -121.5t-121 -45.5q-74 0 -117 46t-43 119v397q0 85 44.5 125.5t119.5 40.5q76 0 116.5 -42.5t40.5 -123.5v-37q0 -23 -14 -37t-37 -14t-37 14t-14 37v52q0 29 -15 44.5t-41 15.5t-41.5 -15.5
t-15.5 -45.5v-425q0 -29 15 -45.5t43 -16.5q29 0 44 17t15 46v124h-30q-22 0 -34.5 12.5t-12.5 34.5z" />
    <glyph glyph-name="gcommaaccent" unicode="&#x123;" horiz-adv-x="365" 
d="M324 367v-68q0 -63 -37.5 -105.5t-108.5 -42.5q-22 0 -45 5q-7 -12 -7 -24q0 -25 29 -25h64q63 0 99 -33t36 -96q0 -69 -51.5 -109.5t-132.5 -40.5q-163 0 -163 113q0 63 63 94q-40 22 -40 69q0 54 48 82q-46 42 -46 113v71q0 67 36.5 107.5t106.5 40.5q48 0 124 16
q15 3 27 3q37 0 37 -46q0 -25 -15 -35.5t-52 -11.5q28 -21 28 -77zM225 288v93q0 54 -47 54t-47 -54v-93q0 -54 47 -54t47 54zM198 22h-65q-27 -25 -27 -59q0 -54 70 -54q37 0 58 17t21 45q0 51 -57 51zM233 609q0 -23 -14 -36.5t-36 -13.5q-24 0 -39 16t-15 42q0 56 51 98
q6 5 15 5q21 0 21 -19q0 -9 -7 -16q-19 -17 -24 -30q48 -4 48 -46z" />
    <glyph glyph-name="Hcircumflex" unicode="&#x124;" horiz-adv-x="431" 
d="M275 43v265h-119v-265q0 -23 -15 -38t-38 -15t-38 15t-15 38v614q0 23 15 38t38 15t38 -15t15 -38v-250h119v250q0 23 15 38t38 15q24 0 38.5 -15t14.5 -38v-614q0 -23 -14.5 -38t-38.5 -15q-23 0 -38 15t-15 38zM263 742h-22l-26 60l-26 -60h-22q-19 0 -30.5 11.5
t-11.5 28.5q0 14 9 27l23 35q10 15 15.5 21.5t16.5 12t26 5.5t26 -5.5t16.5 -12t15.5 -21.5l23 -35q9 -13 9 -27q0 -17 -11.5 -28.5t-30.5 -11.5z" />
    <glyph glyph-name="hcircumflex" unicode="&#x125;" horiz-adv-x="373" 
d="M231 43v336q0 46 -43 46q-27 0 -41 -18v-364q0 -23 -14 -37t-37 -14t-37 14t-14 37v614q0 23 14 37t37 14t37 -14t14 -37v-185q9 21 31 33.5t51 12.5q51 0 77.5 -32t26.5 -85v-358q0 -23 -14 -37t-37 -14t-37 14t-14 37zM145 742h-22l-26 60l-26 -60h-22
q-19 0 -30.5 11.5t-11.5 28.5q0 14 9 27l23 35q10 15 15.5 21.5t16.5 12t26 5.5t26 -5.5t16.5 -12t15.5 -21.5l23 -35q9 -13 9 -27q0 -17 -11.5 -28.5t-30.5 -11.5z" />
    <glyph glyph-name="Hbar" unicode="&#x126;" horiz-adv-x="459" 
d="M47 498q-47 0 -47 44q0 21 13 32.5t34 11.5h17v71q0 23 15 38t38 15t38 -15t15 -38v-71h119v71q0 23 15 38t38 15q24 0 38.5 -15t14.5 -38v-71h17q21 0 34 -11.5t13 -32.5q0 -44 -47 -44h-17v-455q0 -23 -14.5 -38t-38.5 -15q-23 0 -38 15t-15 38v265h-119v-265
q0 -23 -15 -38t-38 -15t-38 15t-15 38v455h-17zM170 407h119v91h-119v-91z" />
    <glyph glyph-name="hbar" unicode="&#x127;" horiz-adv-x="373" 
d="M231 43v336q0 46 -43 46q-27 0 -41 -18v-364q0 -23 -14 -37t-37 -14t-37 14t-14 37v505h-23q-19 0 -30 11t-11 30t11 30t30 11h23v27q0 23 14 37t37 14t37 -14t14 -37v-27h67q19 0 30 -11t11 -30t-11 -30t-30 -11h-67v-76q9 21 31 33.5t51 12.5q51 0 77.5 -32t26.5 -85
v-358q0 -23 -14 -37t-37 -14t-37 14t-14 37z" />
    <glyph glyph-name="Itilde" unicode="&#x128;" horiz-adv-x="206" 
d="M50 43v614q0 23 14.5 38t38.5 15q23 0 38 -15t15 -38v-614q0 -23 -15 -38t-38 -15q-24 0 -38.5 15t-14.5 38zM139 829l22 35q6 2 13 2q20 0 32 -11.5t12 -27.5q0 -13 -7 -24l-14 -23q-19 -31 -50 -31q-22 0 -49 15l-29 16l-18 -30q-6 -2 -15 -2q-21 0 -33.5 11t-12.5 28
q0 13 8 27l11 19q17 28 47 28q22 0 47 -13z" />
    <glyph glyph-name="itilde" unicode="&#x129;" horiz-adv-x="192" 
d="M147 463v-420q0 -23 -14 -37t-37 -14t-37 14t-14 37v420q0 23 14 37t37 14t37 -14t14 -37zM125 642l21 34q6 2 14 2q20 0 32 -11.5t12 -27.5q0 -9 -7 -23l-14 -23q-18 -30 -50 -30q-23 0 -43 14l-23 16l-18 -30q-8 -2 -16 -2q-19 0 -31.5 11t-12.5 28q0 12 7 25l11 21
q15 29 45 29q22 0 43 -14z" />
    <glyph glyph-name="uni012A" unicode="&#x12a;" horiz-adv-x="206" 
d="M50 43v614q0 23 14.5 38t38.5 15q23 0 38 -15t15 -38v-614q0 -23 -15 -38t-38 -15q-24 0 -38.5 15t-14.5 38zM-23 809q0 19 11.5 30.5t30.5 11.5h169q19 0 30.5 -11.5t11.5 -30.5t-11 -30.5t-31 -11.5h-169q-19 0 -30.5 11.5t-11.5 30.5z" />
    <glyph glyph-name="imacron" unicode="&#x12b;" horiz-adv-x="192" 
d="M147 463v-420q0 -23 -14 -37t-37 -14t-37 14t-14 37v420q0 23 14 37t37 14t37 -14t14 -37zM-15 616q0 19 11.5 30.5t30.5 11.5h138q19 0 30.5 -11.5t11.5 -30.5q0 -20 -11.5 -31t-30.5 -11h-138q-19 0 -30.5 11t-11.5 31z" />
    <glyph glyph-name="Ibreve" unicode="&#x12c;" horiz-adv-x="206" 
d="M50 43v614q0 23 14.5 38t38.5 15q23 0 38 -15t15 -38v-614q0 -23 -15 -38t-38 -15q-24 0 -38.5 15t-14.5 38zM74 835v-3q0 -28 29 -28t29 28v3q0 35 38 35q18 0 28.5 -10t10.5 -27v-2q0 -42 -28.5 -65t-77.5 -23t-77.5 23t-28.5 65v2q0 17 10.5 27t28.5 10q38 0 38 -35z
" />
    <glyph glyph-name="uni012D" unicode="&#x12d;" horiz-adv-x="192" 
d="M147 463v-420q0 -23 -14 -37t-37 -14t-37 14t-14 37v420q0 23 14 37t37 14t37 -14t14 -37zM70 645v-3q0 -30 26 -30t26 30v3q0 35 37 35q38 0 38 -36v-3q0 -42 -27 -65t-74 -23t-74 23t-27 65v3q0 36 38 36q37 0 37 -35z" />
    <glyph glyph-name="Iogonek" unicode="&#x12e;" horiz-adv-x="206" 
d="M50 43v614q0 23 14.5 38t38.5 15q23 0 38 -15t15 -38v-614q0 -15 -7 -28q-32 -56 -32 -99q0 -18 14 -18q9 0 15 3q9 -15 9 -31q0 -20 -15.5 -31t-40.5 -11q-60 0 -60 61q0 58 49 103q-38 10 -38 51z" />
    <glyph glyph-name="iogonek" unicode="&#x12f;" horiz-adv-x="192" 
d="M147 463v-420q0 -16 -8 -30q-31 -55 -31 -98q0 -17 14 -17q9 0 15 3q9 -15 9 -31q0 -20 -15.5 -31t-40.5 -11q-29 0 -44.5 17t-15.5 43q0 51 52 106q-37 8 -37 49v420q0 23 14 37t37 14t37 -14t14 -37zM156 646q0 -26 -16 -43.5t-44 -17.5t-44 17.5t-16 43.5t16 44t44 18
t44 -18t16 -44z" />
    <glyph glyph-name="Idotaccent" unicode="&#x130;" horiz-adv-x="206" 
d="M50 43v614q0 23 14.5 38t38.5 15q23 0 38 -15t15 -38v-614q0 -23 -15 -38t-38 -15q-24 0 -38.5 15t-14.5 38zM43 812q0 26 16 44t44 18t44.5 -18t16.5 -44t-16.5 -43.5t-44.5 -17.5t-44 17.5t-16 43.5z" />
    <glyph glyph-name="dotlessi" unicode="&#x131;" horiz-adv-x="192" 
d="M147 463v-420q0 -23 -14 -37t-37 -14t-37 14t-14 37v420q0 23 14 37t37 14t37 -14t14 -37z" />
    <glyph glyph-name="IJ" unicode="&#x132;" horiz-adv-x="591" 
d="M50 43v614q0 23 14.5 38t38.5 15q23 0 38 -15t15 -38v-614q0 -23 -15 -38t-38 -15q-24 0 -38.5 15t-14.5 38zM545 657v-504q0 -76 -41.5 -121.5t-114.5 -45.5t-112 42.5t-39 116.5v85q0 23 14 37t37 14t37 -14t14 -37v-92q0 -61 49 -61q50 0 50 62v518q0 23 14.5 38
t38.5 15q23 0 38 -15t15 -38z" />
    <glyph glyph-name="ij" unicode="&#x133;" horiz-adv-x="384" 
d="M147 463v-420q0 -23 -14 -37t-37 -14t-37 14t-14 37v420q0 23 14 37t37 14t37 -14t14 -37zM156 646q0 -26 -16 -43.5t-44 -17.5t-44 17.5t-16 43.5t16 44t44 18t44 -18t16 -44zM237 463q0 23 14 37t37 14t37 -14t14 -37v-547q0 -42 -24.5 -65t-65.5 -23q-75 0 -75 49
q0 41 36 41h7q20 0 20 18v527zM348 646q0 -26 -16 -43.5t-44 -17.5t-44 17.5t-16 43.5t16 44t44 18t44 -18t16 -44z" />
    <glyph glyph-name="Jcircumflex" unicode="&#x134;" horiz-adv-x="367" 
d="M321 657v-504q0 -76 -41.5 -121.5t-114.5 -45.5t-112 42.5t-39 116.5v85q0 23 14 37t37 14t37 -14t14 -37v-92q0 -61 49 -61q50 0 50 62v518q0 23 14.5 38t38.5 15q23 0 38 -15t15 -38zM317 742h-22l-26 60l-26 -60h-22q-19 0 -30.5 11.5t-11.5 28.5q0 14 9 27l23 35
q14 22 25 30.5t33 8.5q15 0 26 -5.5t16.5 -12t15.5 -21.5l23 -35q9 -13 9 -27q0 -17 -11.5 -28.5t-30.5 -11.5z" />
    <glyph glyph-name="jcircumflex" unicode="&#x135;" horiz-adv-x="192" 
d="M45 463q0 23 14 37t37 14t37 -14t14 -37v-547q0 -42 -24.5 -65t-65.5 -23q-75 0 -75 49q0 41 36 41h7q20 0 20 18v527zM144 549h-22l-26 60l-26 -60h-22q-19 0 -30.5 11.5t-11.5 28.5q0 13 9 27l23 35q10 15 15.5 21.5t16.5 12t26 5.5q22 0 33 -8.5t25 -30.5l23 -35
q9 -14 9 -27q0 -17 -11.5 -28.5t-30.5 -11.5z" />
    <glyph glyph-name="Kcommaaccent" unicode="&#x136;" horiz-adv-x="391" 
d="M277 28l-121 322v-307q0 -23 -15 -38t-38 -15q-24 0 -38.5 15t-14.5 38v614q0 23 14.5 38t38.5 15q23 0 38 -15t15 -38v-291l118 310q13 34 49 34q21 0 36 -12.5t15 -34.5q0 -9 -5 -24l-112 -282l116 -291q6 -15 6 -26q0 -23 -14.5 -36.5t-36.5 -13.5q-36 0 -51 38z
M173 -91q0 21 13.5 35t34.5 14q23 0 37.5 -15.5t14.5 -40.5q0 -60 -56 -108q-7 -5 -13 -5q-8 0 -14.5 5.5t-6.5 14.5q0 8 6 14q22 22 29 35q-45 8 -45 51z" />
    <glyph glyph-name="kcommaaccent" unicode="&#x137;" horiz-adv-x="352" 
d="M328 443l-83 -182l87 -192q7 -15 7 -29q0 -23 -14.5 -35.5t-35.5 -12.5q-31 0 -44 30l-98 224v-203q0 -23 -14 -37t-37 -14t-37 14t-14 37v614q0 23 14 37t37 14t37 -14t14 -37v-383l91 211q14 31 47 31q21 0 36 -13t15 -32q0 -10 -8 -28zM151 -91q0 21 13.5 35t34.5 14
q23 0 37.5 -15.5t14.5 -40.5q0 -60 -56 -108q-7 -5 -13 -5q-8 0 -14.5 5.5t-6.5 14.5q0 8 6 14q22 22 29 35q-45 8 -45 51z" />
    <glyph glyph-name="kgreenlandic" unicode="&#x138;" horiz-adv-x="356" 
d="M328 443l-83 -182l87 -192q7 -15 7 -29q0 -23 -14.5 -35.5t-35.5 -12.5q-31 0 -44 30l-98 224v-203q0 -23 -14 -37t-37 -14t-37 14t-14 37v422q0 23 14 37t37 14t37 -14t14 -37v-191l91 211q14 31 47 31q21 0 36 -13t15 -32q0 -10 -8 -28z" />
    <glyph glyph-name="Lacute" unicode="&#x139;" horiz-adv-x="343" 
d="M50 53v604q0 23 15 38t38 15t38 -15t15 -38v-563h130q20 0 33.5 -13.5t13.5 -33.5t-13.5 -33.5t-33.5 -13.5h-183q-23 0 -38 15t-15 38zM151 742h-89l18 91q9 50 55 50q22 0 37 -13t15 -34q0 -13 -5 -23z" />
    <glyph glyph-name="lacute" unicode="&#x13a;" horiz-adv-x="192" 
d="M147 657v-614q0 -23 -14 -37t-37 -14t-37 14t-14 37v614q0 23 14 37t37 14t37 -14t14 -37zM142 742h-89l18 91q9 50 55 50q22 0 37 -13t15 -34q0 -13 -5 -23z" />
    <glyph glyph-name="Lcommaaccent" unicode="&#x13b;" horiz-adv-x="343" 
d="M50 53v604q0 23 15 38t38 15t38 -15t15 -38v-563h130q20 0 33.5 -13.5t13.5 -33.5t-13.5 -33.5t-33.5 -13.5h-183q-23 0 -38 15t-15 38zM143 -91q0 21 13.5 35t34.5 14q23 0 37.5 -15.5t14.5 -40.5q0 -60 -56 -108q-7 -5 -13 -5q-8 0 -14.5 5.5t-6.5 14.5q0 8 6 14
q22 22 29 35q-45 8 -45 51z" />
    <glyph glyph-name="lcommaaccent" unicode="&#x13c;" horiz-adv-x="192" 
d="M147 657v-614q0 -23 -14 -37t-37 -14t-37 14t-14 37v614q0 23 14 37t37 14t37 -14t14 -37z" />
    <glyph glyph-name="Lcaron" unicode="&#x13d;" horiz-adv-x="353" 
d="M50 53v604q0 23 15 38t38 15t38 -15t15 -38v-563h130q20 0 33.5 -13.5t13.5 -33.5t-13.5 -33.5t-33.5 -13.5h-183q-23 0 -38 15t-15 38zM226 664q0 23 14 36.5t36 13.5q24 0 39 -16t15 -42q0 -62 -58 -112q-8 -6 -15 -6q-21 0 -21 19q0 10 6 16q25 25 31 37
q-20 3 -33.5 17.5t-13.5 36.5z" />
    <glyph glyph-name="lcaron" unicode="&#x13e;" horiz-adv-x="217" 
d="M147 657v-614q0 -23 -14 -37t-37 -14t-37 14t-14 37v614q0 23 14 37t37 14t37 -14t14 -37zM193 664q0 23 14 36.5t36 13.5q24 0 39 -16t15 -42q0 -62 -58 -112q-7 -6 -15 -6q-21 0 -21 19q0 10 6 16q25 25 31 37q-20 3 -33.5 17.5t-13.5 36.5z" />
    <glyph glyph-name="Ldot" unicode="&#x13f;" horiz-adv-x="343" 
d="M50 53v604q0 23 15 38t38 15t38 -15t15 -38v-563h130q20 0 33.5 -13.5t13.5 -33.5t-13.5 -33.5t-33.5 -13.5h-183q-23 0 -38 15t-15 38zM189 330q0 26 17 44.5t45 18.5t45 -18.5t17 -44.5t-17 -44.5t-45 -18.5t-45 18.5t-17 44.5z" />
    <glyph glyph-name="ldot" unicode="&#x140;" horiz-adv-x="307" 
d="M147 657v-614q0 -23 -14 -37t-37 -14t-37 14t-14 37v614q0 23 14 37t37 14t37 -14t14 -37zM183 330q0 26 17 44.5t45 18.5t45 -18.5t17 -44.5t-17 -44.5t-45 -18.5t-45 18.5t-17 44.5z" />
    <glyph glyph-name="Lslash" unicode="&#x141;" horiz-adv-x="343" 
d="M45 331q-10 -5 -22 -5q-17 0 -29.5 12.5t-12.5 30.5q0 26 27 39l42 20v229q0 23 15 38t38 15t38 -15t15 -38v-179l72 35q12 5 21 5q19 0 30.5 -13.5t11.5 -30.5q0 -27 -26 -39l-109 -52v-289h130q20 0 33.5 -13.5t13.5 -33.5t-13.5 -33.5t-33.5 -13.5h-183q-23 0 -38 15
t-15 38v280z" />
    <glyph glyph-name="lslash" unicode="&#x142;" horiz-adv-x="192" 
d="M147 657v-151l9 5q12 5 21 5q19 0 30.5 -13.5t11.5 -30.5q0 -27 -26 -39l-46 -22v-368q0 -23 -14 -37t-37 -14t-37 14t-14 37v320q-9 -5 -23 -5q-18 0 -29.5 12.5t-11.5 30.5q0 26 27 39l37 17v200q0 23 14 37t37 14t37 -14t14 -37z" />
    <glyph glyph-name="Nacute" unicode="&#x143;" horiz-adv-x="434" 
d="M50 43v614q0 53 47 53q35 0 48 -37l141 -388v372q0 53 50 53q48 0 48 -53v-614q0 -24 -12 -38.5t-34 -14.5q-34 0 -48 37l-142 388v-372q0 -24 -13.5 -38.5t-35.5 -14.5t-35.5 14.5t-13.5 38.5zM258 742h-89l18 91q9 50 55 50q22 0 37 -13t15 -34q0 -13 -5 -23z" />
    <glyph glyph-name="nacute" unicode="&#x144;" horiz-adv-x="373" 
d="M231 43v336q0 46 -43 46q-27 0 -41 -18v-364q0 -23 -14 -37t-37 -14t-37 14t-14 37v418q0 49 48 49q46 0 49 -45q21 53 87 53q51 0 77.5 -32t26.5 -85v-358q0 -23 -14 -37t-37 -14t-37 14t-14 37zM233 549h-89l18 91q9 50 55 50q23 0 37.5 -13t14.5 -34q0 -11 -5 -23z
" />
    <glyph glyph-name="Ncommaaccent" unicode="&#x145;" horiz-adv-x="434" 
d="M50 43v614q0 53 47 53q35 0 48 -37l141 -388v372q0 53 50 53q48 0 48 -53v-614q0 -24 -12 -38.5t-34 -14.5q-34 0 -48 37l-142 388v-372q0 -24 -13.5 -38.5t-35.5 -14.5t-35.5 14.5t-13.5 38.5zM177 -91q0 21 13.5 35t34.5 14q23 0 37.5 -15.5t14.5 -40.5q0 -60 -56 -108
q-7 -5 -13 -5q-8 0 -14.5 5.5t-6.5 14.5q0 8 6 14q22 22 29 35q-45 8 -45 51z" />
    <glyph glyph-name="ncommaaccent" unicode="&#x146;" horiz-adv-x="373" 
d="M231 43v336q0 46 -43 46q-27 0 -41 -18v-364q0 -23 -14 -37t-37 -14t-37 14t-14 37v418q0 49 48 49q46 0 49 -45q21 53 87 53q51 0 77.5 -32t26.5 -85v-358q0 -23 -14 -37t-37 -14t-37 14t-14 37zM143 -91q0 21 13.5 35t34.5 14q23 0 37.5 -15.5t14.5 -40.5
q0 -60 -56 -108q-7 -5 -13 -5q-8 0 -14.5 5.5t-6.5 14.5q0 8 6 14q22 22 29 35q-45 8 -45 51z" />
    <glyph glyph-name="Ncaron" unicode="&#x147;" horiz-adv-x="434" 
d="M50 43v614q0 53 47 53q35 0 48 -37l141 -388v372q0 53 50 53q48 0 48 -53v-614q0 -24 -12 -38.5t-34 -14.5q-34 0 -48 37l-142 388v-372q0 -24 -13.5 -38.5t-35.5 -14.5t-35.5 14.5t-13.5 38.5zM247 883h22q19 0 30.5 -11.5t11.5 -28.5q0 -13 -9 -27l-23 -35
q-10 -15 -15.5 -21.5t-16.5 -12t-26 -5.5t-26 5.5t-16.5 12t-15.5 21.5l-23 35q-9 14 -9 27q0 17 11.5 28.5t30.5 11.5h22l26 -60z" />
    <glyph glyph-name="ncaron" unicode="&#x148;" horiz-adv-x="373" 
d="M231 43v336q0 46 -43 46q-27 0 -41 -18v-364q0 -23 -14 -37t-37 -14t-37 14t-14 37v418q0 49 48 49q46 0 49 -45q21 53 87 53q51 0 77.5 -32t26.5 -85v-358q0 -23 -14 -37t-37 -14t-37 14t-14 37zM215 690h22q19 0 30.5 -11.5t11.5 -28.5q0 -14 -9 -27l-23 -35
q-10 -15 -15.5 -21.5t-16.5 -12t-26 -5.5t-26 5.5t-16.5 12t-15.5 21.5l-23 35q-9 13 -9 27q0 17 11.5 28.5t30.5 11.5h22l26 -60z" />
    <glyph glyph-name="napostrophe" unicode="&#x149;" horiz-adv-x="373" 
d="M231 43v336q0 46 -43 46q-27 0 -41 -18v-364q0 -23 -14 -37t-37 -14t-37 14t-14 37v418q0 49 48 49q46 0 49 -45q21 53 87 53q51 0 77.5 -32t26.5 -85v-358q0 -23 -14 -37t-37 -14t-37 14t-14 37zM3 664q0 23 14 36.5t36 13.5q24 0 39 -16t15 -42q0 -62 -58 -112
q-7 -6 -15 -6q-21 0 -21 19q0 10 6 16q25 25 31 37q-20 3 -33.5 17.5t-13.5 36.5z" />
    <glyph glyph-name="Eng" unicode="&#x14a;" horiz-adv-x="434" 
d="M50 43v614q0 53 47 53q35 0 48 -37l141 -388v372q0 53 50 53q48 0 48 -53v-658q0 -56 -28.5 -102.5t-76.5 -64.5q-12 -4 -24 -4q-21 0 -34 12.5t-13 33.5q0 6 1.5 11.5t6 10.5t7 7.5t10 8.5t9.5 7q22 17 31 33.5t9 44.5v52l-134 366v-372q0 -24 -13.5 -38.5t-35.5 -14.5
t-35.5 14.5t-13.5 38.5z" />
    <glyph glyph-name="eng" unicode="&#x14b;" horiz-adv-x="373" 
d="M231 -3v382q0 46 -43 46q-27 0 -41 -18v-364q0 -23 -14 -37t-37 -14t-37 14t-14 37v418q0 49 48 49q46 0 49 -45q21 53 87 53q51 0 77.5 -32t26.5 -85v-402q0 -56 -28.5 -102.5t-76.5 -64.5q-12 -4 -24 -4q-21 0 -34 12.5t-13 33.5q0 6 1.5 11.5t6 10.5t7 7.5t10 8.5
t9.5 7q22 17 31 33.5t9 44.5z" />
    <glyph glyph-name="Omacron" unicode="&#x14c;" 
d="M36 153v394q0 76 45 121.5t121 45.5t121 -45.5t45 -121.5v-394q0 -76 -45 -121.5t-121 -45.5t-121 45.5t-45 121.5zM262 138v424q0 27 -16.5 44t-43.5 17t-43.5 -17t-16.5 -44v-424q0 -27 16.5 -44t43.5 -17t43.5 17t16.5 44zM76 809q0 19 11.5 30.5t30.5 11.5h169
q19 0 30.5 -11.5t11.5 -30.5t-11.5 -30.5t-30.5 -11.5h-169q-20 0 -31 11.5t-11 30.5z" />
    <glyph glyph-name="omacron" unicode="&#x14d;" horiz-adv-x="358" 
d="M179 -12q-67 0 -106 38t-39 102v250q0 64 39 102t106 38t106 -38t39 -102v-250q0 -64 -39 -102t-106 -38zM179 75q43 0 43 44v268q0 44 -43 44t-43 -44v-268q0 -44 43 -44zM68 616q0 19 11.5 30.5t30.5 11.5h138q19 0 30.5 -11.5t11.5 -30.5q0 -20 -11 -31t-31 -11h-138
q-20 0 -31 11t-11 31z" />
    <glyph glyph-name="Obreve" unicode="&#x14e;" 
d="M36 153v394q0 76 45 121.5t121 45.5t121 -45.5t45 -121.5v-394q0 -76 -45 -121.5t-121 -45.5t-121 45.5t-45 121.5zM262 138v424q0 27 -16.5 44t-43.5 17t-43.5 -17t-16.5 -44v-424q0 -27 16.5 -44t43.5 -17t43.5 17t16.5 44zM173 835v-3q0 -28 29 -28t29 28v3
q0 35 38 35q18 0 28.5 -10t10.5 -27v-2q0 -42 -28.5 -65t-77.5 -23t-77.5 23t-28.5 65v2q0 17 10.5 27t28.5 10q38 0 38 -35z" />
    <glyph glyph-name="obreve" unicode="&#x14f;" horiz-adv-x="358" 
d="M179 -12q-67 0 -106 38t-39 102v250q0 64 39 102t106 38t106 -38t39 -102v-250q0 -64 -39 -102t-106 -38zM179 75q43 0 43 44v268q0 44 -43 44t-43 -44v-268q0 -44 43 -44zM153 645v-3q0 -30 26 -30t26 30v3q0 35 37 35q38 0 38 -36v-3q0 -42 -27 -65t-74 -23t-74 23
t-27 65v3q0 36 38 36q37 0 37 -35z" />
    <glyph glyph-name="Ohungarumlaut" unicode="&#x150;" 
d="M36 153v394q0 76 45 121.5t121 45.5t121 -45.5t45 -121.5v-394q0 -76 -45 -121.5t-121 -45.5t-121 45.5t-45 121.5zM262 138v424q0 27 -16.5 44t-43.5 17t-43.5 -17t-16.5 -44v-424q0 -27 16.5 -44t43.5 -17t43.5 17t16.5 44zM187 742h-81l19 98q8 43 47 43
q19 0 31.5 -11t12.5 -31q0 -12 -4 -24zM304 742h-81l19 98q8 43 47 43q19 0 31.5 -11t12.5 -31q0 -12 -4 -24z" />
    <glyph glyph-name="ohungarumlaut" unicode="&#x151;" horiz-adv-x="358" 
d="M179 -12q-67 0 -106 38t-39 102v250q0 64 39 102t106 38t106 -38t39 -102v-250q0 -64 -39 -102t-106 -38zM179 75q43 0 43 44v268q0 44 -43 44t-43 -44v-268q0 -44 43 -44zM164 549h-81l19 98q8 43 47 43q18 0 31 -12t13 -32q0 -10 -4 -22zM279 549h-81l19 98q8 43 47 43
q18 0 31 -12t13 -32q0 -10 -4 -22z" />
    <glyph glyph-name="OE" unicode="&#x152;" horiz-adv-x="583" 
d="M202 700h313q21 0 34 -13.5t13 -33.5q0 -21 -13 -34t-34 -13h-147v-204h122q20 0 33.5 -13.5t13.5 -33.5q0 -21 -13.5 -34t-33.5 -13h-122v-214h148q21 0 34 -13.5t13 -33.5t-13 -33.5t-34 -13.5h-314q-76 0 -121 42t-45 115v386q0 74 45 115.5t121 41.5zM262 91v518h-60
q-27 0 -43.5 -17t-16.5 -44v-396q0 -27 16.5 -44t43.5 -17h60z" />
    <glyph glyph-name="oe" unicode="&#x153;" horiz-adv-x="530" 
d="M504 374v-109q0 -19 -11 -30t-29 -11h-140v-109q0 -43 40 -43q41 0 41 43v19q0 49 47 49q23 0 36.5 -13t13.5 -36v-22q-2 -56 -39 -90t-99 -34q-58 0 -93 26q-39 -26 -92 -26q-67 0 -106 38t-39 102v250q0 64 39 102t106 38q56 0 93 -28q36 28 92 28q66 0 103 -38.5
t37 -105.5zM179 75q43 0 43 44v268q0 44 -43 44t-43 -44v-268q0 -44 43 -44zM404 305v83q0 45 -40 45t-40 -43v-85h80z" />
    <glyph glyph-name="Racute" unicode="&#x154;" 
d="M276 37l-42 193q-10 49 -55 49h-23v-236q0 -23 -15 -38t-38 -15t-38 15t-15 38v604q0 23 15 38t38 15h101q162 0 162 -149v-95q0 -47 -22.5 -81.5t-58.5 -51.5q46 -20 61 -98l34 -171q2 -12 2 -15q0 -23 -14.5 -36t-39.5 -13q-41 0 -52 47zM260 442v98q0 66 -63 66h-41
v-234h44q29 0 44.5 19.5t15.5 50.5zM246 742h-89l18 91q9 50 55 50q22 0 37 -13t15 -34q0 -13 -5 -23z" />
    <glyph glyph-name="racute" unicode="&#x155;" horiz-adv-x="248" 
d="M201 516q50 0 50 -51q0 -56 -47 -56q-7 0 -17 2.5t-16 2.5q-15 0 -24 -6v-365q0 -23 -14 -37t-37 -14t-37 14t-14 37v419q0 48 49 48q46 0 47 -62q6 68 60 68zM185 549h-89l18 91q9 50 55 50q23 0 37.5 -13t14.5 -34q0 -11 -5 -23z" />
    <glyph glyph-name="Rcommaaccent" unicode="&#x156;" 
d="M276 37l-42 193q-10 49 -55 49h-23v-236q0 -23 -15 -38t-38 -15t-38 15t-15 38v604q0 23 15 38t38 15h101q162 0 162 -149v-95q0 -47 -22.5 -81.5t-58.5 -51.5q46 -20 61 -98l34 -171q2 -12 2 -15q0 -23 -14.5 -36t-39.5 -13q-41 0 -52 47zM260 442v98q0 66 -63 66h-41
v-234h44q29 0 44.5 19.5t15.5 50.5zM174 -91q0 21 14 35t34 14q23 0 37.5 -15.5t14.5 -40.5q0 -60 -56 -108q-7 -5 -13 -5q-8 0 -14.5 5.5t-6.5 14.5q0 8 6 14q22 22 29 35q-45 8 -45 51z" />
    <glyph glyph-name="rcommaaccent" unicode="&#x157;" horiz-adv-x="248" 
d="M201 516q50 0 50 -51q0 -56 -47 -56q-7 0 -17 2.5t-16 2.5q-15 0 -24 -6v-365q0 -23 -14 -37t-37 -14t-37 14t-14 37v419q0 48 49 48q46 0 47 -62q6 68 60 68zM47 -91q0 21 13.5 35t34.5 14q23 0 37.5 -15.5t14.5 -40.5q0 -60 -56 -108q-7 -5 -13 -5q-8 0 -14.5 5.5
t-6.5 14.5q0 8 6 14q22 22 29 35q-45 8 -45 51z" />
    <glyph glyph-name="Rcaron" unicode="&#x158;" 
d="M276 37l-42 193q-10 49 -55 49h-23v-236q0 -23 -15 -38t-38 -15t-38 15t-15 38v604q0 23 15 38t38 15h101q162 0 162 -149v-95q0 -47 -22.5 -81.5t-58.5 -51.5q46 -20 61 -98l34 -171q2 -12 2 -15q0 -23 -14.5 -36t-39.5 -13q-41 0 -52 47zM260 442v98q0 66 -63 66h-41
v-234h44q29 0 44.5 19.5t15.5 50.5zM230 883h22q19 0 30.5 -11.5t11.5 -28.5q0 -13 -9 -27l-23 -35q-14 -22 -25 -30.5t-33 -8.5t-33 8.5t-25 30.5l-23 35q-9 14 -9 27q0 17 11.5 28.5t30.5 11.5h22l26 -60z" />
    <glyph glyph-name="rcaron" unicode="&#x159;" horiz-adv-x="248" 
d="M201 516q50 0 50 -51q0 -56 -47 -56q-7 0 -17 2.5t-16 2.5q-15 0 -24 -6v-365q0 -23 -14 -37t-37 -14t-37 14t-14 37v419q0 48 49 48q46 0 47 -62q6 68 60 68zM171 690h22q19 0 30.5 -11.5t11.5 -28.5q0 -14 -9 -27l-23 -35q-10 -15 -15.5 -21.5t-16.5 -12t-26 -5.5
t-26 5.5t-16.5 12t-15.5 21.5l-23 35q-9 13 -9 27q0 17 11.5 28.5t30.5 11.5h22l26 -60z" />
    <glyph glyph-name="Sacute" unicode="&#x15a;" horiz-adv-x="371" 
d="M30 149v28q0 51 49 51q24 0 37.5 -14t13.5 -37v-24q0 -78 59 -78q58 0 58 79q0 35 -14 65.5t-29 47.5t-45 44q-65 59 -99.5 112t-34.5 121q0 83 42 126.5t116 43.5q70 0 112 -42.5t42 -114.5v-35q0 -22 -13.5 -35.5t-36.5 -13.5q-22 0 -36 13.5t-14 35.5v32q0 69 -54 69
t-54 -71q0 -44 20.5 -76t61.5 -71q26 -24 37.5 -36t35.5 -39.5t35.5 -49t21.5 -53t10 -63.5q0 -79 -45 -128.5t-119 -49.5q-73 0 -115 45.5t-42 117.5zM226 742h-89l18 91q9 50 55 50q22 0 37 -13t15 -34q0 -13 -5 -23z" />
    <glyph glyph-name="sacute" unicode="&#x15b;" horiz-adv-x="331" 
d="M163 -12q-58 0 -97.5 35t-39.5 89v14q0 50 48 50q22 0 35 -13t13 -35v-9q0 -23 11 -36.5t32 -13.5q44 0 44 51q0 30 -15.5 51t-48.5 43q-60 40 -89.5 77.5t-29.5 93.5q0 61 37 97t99 36q65 0 99.5 -34.5t34.5 -93.5v-12q0 -19 -12.5 -32.5t-35.5 -13.5q-24 0 -36 12.5
t-12 33.5v16q0 43 -38 43t-38 -44q0 -29 14.5 -47.5t50.5 -43.5q30 -21 45 -33t35.5 -34t29 -47.5t8.5 -57.5q0 -60 -38.5 -101t-105.5 -41zM199 549h-89l18 91q9 50 55 50q23 0 37.5 -13t14.5 -34q0 -11 -5 -23z" />
    <glyph glyph-name="Scircumflex" unicode="&#x15c;" horiz-adv-x="371" 
d="M30 149v28q0 51 49 51q24 0 37.5 -14t13.5 -37v-24q0 -78 59 -78q58 0 58 79q0 35 -14 65.5t-29 47.5t-45 44q-65 59 -99.5 112t-34.5 121q0 83 42 126.5t116 43.5q70 0 112 -42.5t42 -114.5v-35q0 -22 -13.5 -35.5t-36.5 -13.5q-22 0 -36 13.5t-14 35.5v32q0 69 -54 69
t-54 -71q0 -44 20.5 -76t61.5 -71q26 -24 37.5 -36t35.5 -39.5t35.5 -49t21.5 -53t10 -63.5q0 -79 -45 -128.5t-119 -49.5q-73 0 -115 45.5t-42 117.5zM232 742h-22l-26 60l-26 -60h-22q-19 0 -30.5 11.5t-11.5 28.5q0 14 9 27l23 35q14 22 25 30.5t33 8.5t33 -8.5t25 -30.5
l23 -35q9 -13 9 -27q0 -17 -11.5 -28.5t-30.5 -11.5z" />
    <glyph glyph-name="scircumflex" unicode="&#x15d;" horiz-adv-x="331" 
d="M163 -12q-58 0 -97.5 35t-39.5 89v14q0 50 48 50q22 0 35 -13t13 -35v-9q0 -23 11 -36.5t32 -13.5q44 0 44 51q0 30 -15.5 51t-48.5 43q-60 40 -89.5 77.5t-29.5 93.5q0 61 37 97t99 36q65 0 99.5 -34.5t34.5 -93.5v-12q0 -19 -12.5 -32.5t-35.5 -13.5q-24 0 -36 12.5
t-12 33.5v16q0 43 -38 43t-38 -44q0 -29 14.5 -47.5t50.5 -43.5q30 -21 45 -33t35.5 -34t29 -47.5t8.5 -57.5q0 -60 -38.5 -101t-105.5 -41zM209 549h-22l-26 60l-26 -60h-22q-19 0 -30.5 11.5t-11.5 28.5q0 13 9 27l23 35q10 15 15.5 21.5t16.5 12t26 5.5q22 0 33 -8.5
t25 -30.5l23 -35q9 -14 9 -27q0 -17 -11.5 -28.5t-30.5 -11.5z" />
    <glyph glyph-name="Scedilla" unicode="&#x15e;" horiz-adv-x="371" 
d="M284 -96q0 -34 -29.5 -55t-76.5 -21q-22 0 -32.5 10.5t-10.5 26.5q0 10 4 18q68 2 68 25q0 4 -1.5 7t-5.5 5t-8 3.5t-11 2t-12 1t-14 1.5t-14 1l16 59q-60 9 -93.5 53t-33.5 108v28q0 51 49 51q24 0 37.5 -14t13.5 -37v-24q0 -78 59 -78q58 0 58 79q0 35 -14 65.5
t-29 47.5t-45 44q-65 59 -99.5 112t-34.5 121q0 83 42 126.5t116 43.5q70 0 112 -42.5t42 -114.5v-35q0 -22 -13.5 -35.5t-36.5 -13.5q-22 0 -36 13.5t-14 35.5v32q0 69 -54 69t-54 -71q0 -44 20.5 -76t61.5 -71q26 -24 37.5 -36t35.5 -39.5t35.5 -49t21.5 -53t10 -63.5
q0 -72 -37.5 -120t-100.5 -56l-4 -19q35 -5 55 -19.5t20 -45.5z" />
    <glyph glyph-name="scedilla" unicode="&#x15f;" horiz-adv-x="327" 
d="M262 -96q0 -34 -29.5 -55t-76.5 -21q-22 0 -32.5 10.5t-10.5 26.5q0 10 4 18q68 2 68 25q0 4 -1.5 7t-5.5 5t-8 3.5t-11 2t-12 1t-14 1.5t-14 1l17 62q-49 8 -79.5 40.5t-30.5 80.5v14q0 50 48 50q22 0 35 -13t13 -35v-9q0 -23 11 -36.5t32 -13.5q44 0 44 51
q0 30 -15.5 51t-48.5 43q-60 40 -89.5 77.5t-29.5 93.5q0 61 37 97t99 36q65 0 99.5 -34.5t34.5 -93.5v-12q0 -19 -12.5 -32.5t-35.5 -13.5q-24 0 -36 12.5t-12 33.5v16q0 43 -38 43t-38 -44q0 -29 14.5 -47.5t50.5 -43.5q30 -21 45 -33t35.5 -34t29 -47.5t8.5 -57.5
q0 -53 -30.5 -92t-84.5 -47l-5 -22q35 -5 55 -19.5t20 -45.5z" />
    <glyph glyph-name="Scaron" unicode="&#x160;" horiz-adv-x="371" 
d="M30 149v28q0 51 49 51q24 0 37.5 -14t13.5 -37v-24q0 -78 59 -78q58 0 58 79q0 35 -14 65.5t-29 47.5t-45 44q-65 59 -99.5 112t-34.5 121q0 83 42 126.5t116 43.5q70 0 112 -42.5t42 -114.5v-35q0 -22 -13.5 -35.5t-36.5 -13.5q-22 0 -36 13.5t-14 35.5v32q0 69 -54 69
t-54 -71q0 -44 20.5 -76t61.5 -71q26 -24 37.5 -36t35.5 -39.5t35.5 -49t21.5 -53t10 -63.5q0 -79 -45 -128.5t-119 -49.5q-73 0 -115 45.5t-42 117.5zM208 883h22q19 0 30.5 -11.5t11.5 -28.5q0 -13 -9 -27l-23 -35q-10 -15 -15.5 -21.5t-16.5 -12t-26 -5.5q-22 0 -33 8.5
t-25 30.5l-23 35q-9 14 -9 27q0 17 11.5 28.5t30.5 11.5h22l26 -60z" />
    <glyph glyph-name="scaron" unicode="&#x161;" horiz-adv-x="331" 
d="M163 -12q-58 0 -97.5 35t-39.5 89v14q0 50 48 50q22 0 35 -13t13 -35v-9q0 -23 11 -36.5t32 -13.5q44 0 44 51q0 30 -15.5 51t-48.5 43q-60 40 -89.5 77.5t-29.5 93.5q0 61 37 97t99 36q65 0 99.5 -34.5t34.5 -93.5v-12q0 -19 -12.5 -32.5t-35.5 -13.5q-24 0 -36 12.5
t-12 33.5v16q0 43 -38 43t-38 -44q0 -29 14.5 -47.5t50.5 -43.5q30 -21 45 -33t35.5 -34t29 -47.5t8.5 -57.5q0 -60 -38.5 -101t-105.5 -41zM186 690h22q19 0 30.5 -11.5t11.5 -28.5q0 -14 -9 -27l-23 -35q-14 -22 -25 -30.5t-33 -8.5t-33 8.5t-25 30.5l-23 35q-9 13 -9 27
q0 17 11.5 28.5t30.5 11.5h22l26 -60z" />
    <glyph glyph-name="Tcommaaccent" unicode="&#x162;" horiz-adv-x="344" 
d="M300 606h-75v-563q0 -23 -15 -38t-38 -15q-24 0 -38.5 15t-14.5 38v563h-75q-20 0 -33.5 13t-13.5 34q0 20 13.5 33.5t33.5 13.5h256q21 0 34 -13.5t13 -33.5q0 -21 -13 -34t-34 -13zM122 -91q0 21 14 35t34 14q23 0 37.5 -15.5t14.5 -40.5q0 -60 -56 -108q-7 -5 -13 -5
q-8 0 -14.5 5.5t-6.5 14.5q0 8 6 14q22 22 29 35q-45 8 -45 51z" />
    <glyph glyph-name="tcommaaccent" unicode="&#x163;" horiz-adv-x="252" 
d="M206 420h-43v-323q0 -19 19 -19q4 0 11 1t10 1q35 0 35 -41q0 -51 -80 -51q-47 0 -72 26.5t-25 70.5v335h-18q-43 0 -43 43t43 43h18v90q0 23 14 37t37 14t37 -14t14 -37v-90h43q43 0 43 -43t-43 -43zM95 -91q0 21 13.5 35t34.5 14q23 0 37.5 -15.5t14.5 -40.5
q0 -60 -56 -108q-7 -5 -13 -5q-8 0 -14.5 5.5t-6.5 14.5q0 8 6 14q22 22 29 35q-45 8 -45 51z" />
    <glyph glyph-name="Tcaron" unicode="&#x164;" horiz-adv-x="344" 
d="M300 606h-75v-563q0 -23 -15 -38t-38 -15q-24 0 -38.5 15t-14.5 38v563h-75q-20 0 -33.5 13t-13.5 34q0 20 13.5 33.5t33.5 13.5h256q21 0 34 -13.5t13 -33.5q0 -21 -13 -34t-34 -13zM198 883h22q19 0 30.5 -11.5t11.5 -28.5q0 -13 -9 -27l-23 -35q-10 -15 -15.5 -21.5
t-16.5 -12t-26 -5.5q-22 0 -33 8.5t-25 30.5l-23 35q-9 14 -9 27q0 17 11.5 28.5t30.5 11.5h22l26 -60z" />
    <glyph glyph-name="tcaron" unicode="&#x165;" horiz-adv-x="258" 
d="M206 420h-43v-323q0 -19 19 -19q4 0 11 1t10 1q35 0 35 -41q0 -51 -80 -51q-47 0 -72 26.5t-25 70.5v335h-18q-43 0 -43 43t43 43h18v90q0 23 14 37t37 14t37 -14t14 -37v-90h43q43 0 43 -43t-43 -43zM218 674q0 23 14 36.5t36 13.5q24 0 39 -16t15 -42q0 -62 -58 -112
q-8 -6 -15 -6q-21 0 -21 19q0 10 6 16q25 25 31 37q-20 3 -33.5 17.5t-13.5 36.5z" />
    <glyph glyph-name="Tbar" unicode="&#x166;" horiz-adv-x="344" 
d="M300 606h-75v-227h46q22 0 35 -12t13 -33t-13 -33t-35 -12h-46v-246q0 -23 -15 -38t-38 -15q-24 0 -38.5 15t-14.5 38v246h-46q-22 0 -35 12t-13 33t13 33t35 12h46v227h-75q-20 0 -33.5 13t-13.5 34q0 20 13.5 33.5t33.5 13.5h256q21 0 34 -13.5t13 -33.5q0 -21 -13 -34
t-34 -13z" />
    <glyph glyph-name="tbar" unicode="&#x167;" horiz-adv-x="249" 
d="M206 420h-43v-114h43q43 0 43 -43t-43 -43h-43v-123q0 -19 19 -19q4 0 11 1t10 1q35 0 35 -41q0 -51 -80 -51q-47 0 -72 26.5t-25 70.5v135h-18q-43 0 -43 43t43 43h18v114h-18q-43 0 -43 43t43 43h18v90q0 23 14 37t37 14t37 -14t14 -37v-90h43q43 0 43 -43t-43 -43z
" />
    <glyph glyph-name="Utilde" unicode="&#x168;" horiz-adv-x="426" 
d="M378 657v-504q0 -79 -44 -123t-121 -44t-121 44t-44 123v504q0 23 15 38t38 15t38 -15t15 -38v-518q0 -61 59 -61t59 61v518q0 23 15 38t38 15q24 0 38.5 -15t14.5 -38zM253 829l22 35q6 2 13 2q20 0 32 -11.5t12 -27.5q0 -13 -7 -24l-14 -23q-19 -31 -50 -31
q-22 0 -49 15l-29 16l-18 -30q-6 -2 -15 -2q-21 0 -33.5 11t-12.5 28q0 13 8 27l11 19q17 28 47 28q22 0 47 -13z" />
    <glyph glyph-name="utilde" unicode="&#x169;" horiz-adv-x="370" 
d="M142 463v-336q0 -46 40 -46q27 0 41 18v364q0 23 14 37t37 14t37 -14t14 -37v-422q0 -49 -48 -49q-46 0 -49 49q-23 -53 -87 -53q-51 0 -76 31.5t-25 85.5v358q0 23 14 37t37 14t37 -14t14 -37zM217 642l21 34q6 2 14 2q20 0 32 -11.5t12 -27.5q0 -9 -7 -23l-14 -23
q-18 -30 -50 -30q-23 0 -43 14l-23 16l-18 -30q-8 -2 -16 -2q-19 0 -31.5 11t-12.5 28q0 12 7 25l11 21q15 29 45 29q22 0 43 -14z" />
    <glyph glyph-name="Umacron" unicode="&#x16a;" horiz-adv-x="426" 
d="M378 657v-504q0 -79 -44 -123t-121 -44t-121 44t-44 123v504q0 23 15 38t38 15t38 -15t15 -38v-518q0 -61 59 -61t59 61v518q0 23 15 38t38 15q24 0 38.5 -15t14.5 -38zM87 809q0 19 11.5 30.5t30.5 11.5h169q19 0 30.5 -11.5t11.5 -30.5t-11 -30.5t-31 -11.5h-169
q-19 0 -30.5 11.5t-11.5 30.5z" />
    <glyph glyph-name="umacron" unicode="&#x16b;" horiz-adv-x="370" 
d="M142 463v-336q0 -46 40 -46q27 0 41 18v364q0 23 14 37t37 14t37 -14t14 -37v-422q0 -49 -48 -49q-46 0 -49 49q-23 -53 -87 -53q-51 0 -76 31.5t-25 85.5v358q0 23 14 37t37 14t37 -14t14 -37zM76 616q0 19 11.5 30.5t30.5 11.5h138q19 0 30.5 -11.5t11.5 -30.5
q0 -20 -11 -31t-31 -11h-138q-20 0 -31 11t-11 31z" />
    <glyph glyph-name="Ubreve" unicode="&#x16c;" horiz-adv-x="426" 
d="M378 657v-504q0 -79 -44 -123t-121 -44t-121 44t-44 123v504q0 23 15 38t38 15t38 -15t15 -38v-518q0 -61 59 -61t59 61v518q0 23 15 38t38 15q24 0 38.5 -15t14.5 -38zM184 835v-3q0 -28 29 -28t29 28v3q0 35 38 35q18 0 28.5 -10t10.5 -27v-2q0 -42 -28.5 -65
t-77.5 -23t-77.5 23t-28.5 65v2q0 17 10.5 27t28.5 10q38 0 38 -35z" />
    <glyph glyph-name="ubreve" unicode="&#x16d;" horiz-adv-x="370" 
d="M142 463v-336q0 -46 40 -46q27 0 41 18v364q0 23 14 37t37 14t37 -14t14 -37v-422q0 -49 -48 -49q-46 0 -49 49q-23 -53 -87 -53q-51 0 -76 31.5t-25 85.5v358q0 23 14 37t37 14t37 -14t14 -37zM158 645v-3q0 -30 26 -30t26 30v3q0 35 37 35q38 0 38 -36v-3
q0 -42 -27 -65t-74 -23t-74 23t-27 65v3q0 36 38 36q37 0 37 -35z" />
    <glyph glyph-name="Uring" unicode="&#x16e;" horiz-adv-x="426" 
d="M378 657v-504q0 -79 -44 -123t-121 -44t-121 44t-44 123v504q0 23 15 38t38 15t38 -15t15 -38v-518q0 -61 59 -61t59 61v518q0 23 15 38t38 15q24 0 38.5 -15t14.5 -38zM285 812q0 -30 -20.5 -50t-51.5 -20t-51.5 20t-20.5 50t20.5 50t51.5 20t51.5 -20t20.5 -50z
M239 812q0 29 -26 29t-26 -29t26 -29t26 29z" />
    <glyph glyph-name="uring" unicode="&#x16f;" horiz-adv-x="370" 
d="M142 463v-336q0 -46 40 -46q27 0 41 18v364q0 23 14 37t37 14t37 -14t14 -37v-422q0 -49 -48 -49q-46 0 -49 49q-23 -53 -87 -53q-51 0 -76 31.5t-25 85.5v358q0 23 14 37t37 14t37 -14t14 -37zM255 619q0 -30 -20.5 -50t-51.5 -20t-51.5 20t-20.5 50t20.5 50t51.5 20
t51.5 -20t20.5 -50zM209 619q0 29 -26 29t-26 -29t26 -29t26 29z" />
    <glyph glyph-name="Uhungarumlaut" unicode="&#x170;" horiz-adv-x="426" 
d="M378 657v-504q0 -79 -44 -123t-121 -44t-121 44t-44 123v504q0 23 15 38t38 15t38 -15t15 -38v-518q0 -61 59 -61t59 61v518q0 23 15 38t38 15q24 0 38.5 -15t14.5 -38zM199 742h-81l19 98q8 43 47 43q19 0 31.5 -11t12.5 -31q0 -12 -4 -24zM316 742h-81l19 98
q8 43 47 43q19 0 31.5 -11t12.5 -31q0 -12 -4 -24z" />
    <glyph glyph-name="uhungarumlaut" unicode="&#x171;" horiz-adv-x="370" 
d="M142 463v-336q0 -46 40 -46q27 0 41 18v364q0 23 14 37t37 14t37 -14t14 -37v-422q0 -49 -48 -49q-46 0 -49 49q-23 -53 -87 -53q-51 0 -76 31.5t-25 85.5v358q0 23 14 37t37 14t37 -14t14 -37zM169 549h-81l19 98q8 43 47 43q18 0 31 -12t13 -32q0 -10 -4 -22zM284 549
h-81l19 98q8 43 47 43q18 0 31 -12t13 -32q0 -10 -4 -22z" />
    <glyph glyph-name="Uogonek" unicode="&#x172;" horiz-adv-x="426" 
d="M378 657v-504q0 -88 -59 -136q-70 -54 -70 -97q0 -22 21 -22q10 0 16 3q9 -15 9 -31q0 -19 -16 -30.5t-41 -11.5q-32 0 -49.5 18t-17.5 49q0 50 48 91h-6q-77 0 -121 44t-44 123v504q0 23 15 38t38 15t38 -15t15 -38v-518q0 -61 59 -61t59 61v518q0 23 15 38t38 15
q24 0 38.5 -15t14.5 -38z" />
    <glyph glyph-name="uogonek" unicode="&#x173;" horiz-adv-x="370" 
d="M142 463v-336q0 -46 40 -46q27 0 41 18v364q0 23 14 37t37 14t37 -14t14 -37v-422q0 -20 -9 -32q-40 -55 -40 -89q0 -22 21 -22q10 0 16 3q9 -15 9 -31q0 -19 -16 -30.5t-41 -11.5q-32 0 -49.5 18t-17.5 49q0 60 57 101q-25 10 -27 45q-23 -53 -87 -53q-51 0 -76 31.5
t-25 85.5v358q0 23 14 37t37 14t37 -14t14 -37z" />
    <glyph glyph-name="Wcircumflex" unicode="&#x174;" horiz-adv-x="564" 
d="M335 645l67 -407q4 -22 8 -70q2 41 6 71l46 422q5 49 47 49q25 0 38.5 -15t9.5 -41l-94 -617q-7 -47 -52 -47q-22 0 -35.5 13.5t-16.5 34.5l-77 486l-77 -486q-3 -21 -16.5 -34.5t-35.5 -13.5q-45 0 -52 47l-94 617q-4 26 9.5 41t38.5 15q42 0 47 -49l47 -415
q4 -31 6 -69q4 45 8 68l66 402q5 28 17 40.5t36 12.5t36 -12.5t17 -42.5zM330 742h-22l-26 60l-26 -60h-22q-19 0 -30.5 11.5t-11.5 28.5q0 14 9 27l23 35q10 15 15.5 21.5t16.5 12t26 5.5q22 0 33 -8.5t25 -30.5l23 -35q9 -13 9 -27q0 -17 -11.5 -28.5t-30.5 -11.5z" />
    <glyph glyph-name="wcircumflex" unicode="&#x175;" horiz-adv-x="510" 
d="M305 470l50 -243q8 -41 15 -92q1 18 9 91l27 243q5 47 47 47q26 0 39 -17t8 -43l-77 -419q-9 -47 -50 -47q-43 0 -52 47l-66 342l-66 -342q-9 -47 -52 -47q-41 0 -50 47l-77 419q-5 27 7.5 43.5t39.5 16.5q42 0 47 -47l27 -243q7 -73 9 -91q7 51 15 92l50 243q9 46 50 46
t50 -46zM303 549h-22l-26 60l-26 -60h-22q-19 0 -30.5 11.5t-11.5 28.5q0 13 9 27l23 35q10 15 15.5 21.5t16.5 12t26 5.5t26 -5.5t16.5 -12t15.5 -21.5l23 -35q9 -14 9 -27q0 -17 -11.5 -28.5t-30.5 -11.5z" />
    <glyph glyph-name="Ycircumflex" unicode="&#x176;" horiz-adv-x="352" 
d="M181 458l64 213q12 39 52 39q23 0 38 -13.5t15 -34.5q0 -11 -4 -21l-117 -326v-272q0 -23 -15 -38t-38 -15t-38 15t-15 38v272l-117 326q-4 10 -4 21q0 21 15 34.5t38 13.5q40 0 52 -39l64 -213q4 -13 5 -22q1 9 5 22zM224 742h-22l-26 60l-26 -60h-22q-19 0 -30.5 11.5
t-11.5 28.5q0 14 9 27l23 35q14 22 25 30.5t33 8.5t33 -8.5t25 -30.5l23 -35q9 -13 9 -27q0 -17 -11.5 -28.5t-30.5 -11.5z" />
    <glyph glyph-name="ycircumflex" unicode="&#x177;" horiz-adv-x="322" 
d="M313 456l-98 -415l-37 -173q-8 -40 -46 -40q-21 0 -33.5 12t-12.5 31q0 8 2 18l27 132q-4 8 -7 20l-99 415q-2 10 -2 15q0 22 14.5 33.5t35.5 11.5q42 0 49 -42l50 -291q3 -17 5 -45q0 20 5 45l50 291q7 42 49 42q22 0 36 -12t14 -33q0 -5 -2 -15zM214 549h-22l-26 60
l-26 -60h-22q-19 0 -30.5 11.5t-11.5 28.5q0 13 9 27l23 35q14 22 25 30.5t33 8.5t33 -8.5t25 -30.5l23 -35q9 -14 9 -27q0 -17 -11.5 -28.5t-30.5 -11.5z" />
    <glyph glyph-name="Ydieresis" unicode="&#x178;" horiz-adv-x="352" 
d="M181 458l64 213q12 39 52 39q23 0 38 -13.5t15 -34.5q0 -11 -4 -21l-117 -326v-272q0 -23 -15 -38t-38 -15t-38 15t-15 38v272l-117 326q-4 10 -4 21q0 21 15 34.5t38 13.5q40 0 52 -39l64 -213q4 -13 5 -22q1 9 5 22zM58 803q0 23 14 38t37 15q24 0 38 -15t14 -38
q0 -22 -14 -37t-38 -15q-23 0 -37 15t-14 37zM191 803q0 23 14 38t37 15q24 0 38 -15t14 -38q0 -22 -14 -37t-38 -15q-23 0 -37 15t-14 37z" />
    <glyph glyph-name="Zacute" unicode="&#x179;" horiz-adv-x="356" 
d="M294 0h-228q-21 0 -33.5 13t-12.5 34q0 8 5 23l198 536h-152q-21 0 -34 13.5t-13 33.5t13 33.5t34 13.5h223q21 0 34 -13.5t13 -33.5q0 -7 -5 -24l-198 -535h156q21 0 34 -13.5t13 -33.5t-13 -33.5t-34 -13.5zM234 742h-89l18 91q9 50 55 50q22 0 37 -13t15 -34
q0 -13 -5 -23z" />
    <glyph glyph-name="zacute" unicode="&#x17a;" horiz-adv-x="313" 
d="M24 462q0 20 12 32t32 12h175q24 0 37.5 -15t13.5 -38q0 -17 -19 -57l-146 -309h125q20 0 32 -12t12 -32t-12 -31.5t-32 -11.5h-177q-26 0 -41.5 15.5t-15.5 40.5q0 18 18 56l148 307h-118q-20 0 -32 11.5t-12 31.5zM209 549h-89l18 91q9 50 55 50q23 0 37.5 -13
t14.5 -34q0 -11 -5 -23z" />
    <glyph glyph-name="Zdotaccent" unicode="&#x17b;" horiz-adv-x="356" 
d="M294 0h-228q-21 0 -33.5 13t-12.5 34q0 8 5 23l198 536h-152q-21 0 -34 13.5t-13 33.5t13 33.5t34 13.5h223q21 0 34 -13.5t13 -33.5q0 -7 -5 -24l-198 -535h156q21 0 34 -13.5t13 -33.5t-13 -33.5t-34 -13.5zM132 812q0 26 16 44t44 18t44.5 -18t16.5 -44t-16.5 -43.5
t-44.5 -17.5t-44 17.5t-16 43.5z" />
    <glyph glyph-name="zdotaccent" unicode="&#x17c;" horiz-adv-x="313" 
d="M24 462q0 20 12 32t32 12h175q24 0 37.5 -15t13.5 -38q0 -17 -19 -57l-146 -309h125q20 0 32 -12t12 -32t-12 -31.5t-32 -11.5h-177q-26 0 -41.5 15.5t-15.5 40.5q0 18 18 56l148 307h-118q-20 0 -32 11.5t-12 31.5zM101 646q0 26 16 44t44 18t44.5 -18t16.5 -44
t-16.5 -43.5t-44.5 -17.5t-44 17.5t-16 43.5z" />
    <glyph glyph-name="Zcaron" unicode="&#x17d;" horiz-adv-x="356" 
d="M294 0h-228q-21 0 -33.5 13t-12.5 34q0 8 5 23l198 536h-152q-21 0 -34 13.5t-13 33.5t13 33.5t34 13.5h223q21 0 34 -13.5t13 -33.5q0 -7 -5 -24l-198 -535h156q21 0 34 -13.5t13 -33.5t-13 -33.5t-34 -13.5zM215 883h22q19 0 30.5 -11.5t11.5 -28.5q0 -13 -9 -27
l-23 -35q-10 -15 -15.5 -21.5t-16.5 -12t-26 -5.5t-26 5.5t-16.5 12t-15.5 21.5l-23 35q-9 14 -9 27q0 17 11.5 28.5t30.5 11.5h22l26 -60z" />
    <glyph glyph-name="zcaron" unicode="&#x17e;" horiz-adv-x="313" 
d="M24 462q0 20 12 32t32 12h175q24 0 37.5 -15t13.5 -38q0 -17 -19 -57l-146 -309h125q20 0 32 -12t12 -32t-12 -31.5t-32 -11.5h-177q-26 0 -41.5 15.5t-15.5 40.5q0 18 18 56l148 307h-118q-20 0 -32 11.5t-12 31.5zM189 690h22q19 0 30.5 -11.5t11.5 -28.5q0 -14 -9 -27
l-23 -35q-10 -15 -15.5 -21.5t-16.5 -12t-26 -5.5t-26 5.5t-16.5 12t-15.5 21.5l-23 35q-9 13 -9 27q0 17 11.5 28.5t30.5 11.5h22l26 -60z" />
    <glyph glyph-name="florin" unicode="&#x192;" 
d="M350 437q0 -47 -52 -47h-45l-80 -458q-18 -104 -137 -104q-25 0 -40.5 12t-15.5 33q0 45 53 45q35 0 41 30l78 442h-26q-16 0 -26 10.5t-10 27.5q0 48 51 48h26l24 137q18 99 119 99q74 0 74 -44q0 -24 -13 -35t-45 -11q-18 0 -26 -7t-11 -24l-21 -115h44
q19 0 28.5 -11.5t9.5 -27.5z" />
    <glyph glyph-name="Aringacute" unicode="&#x1fa;" horiz-adv-x="390" 
d="M267 738q0 -30 -25 -52q6 -10 9 -26l116 -606q6 -29 -10 -46.5t-40 -17.5q-19 0 -34 13t-19 37l-17 122h-105l-16 -122q-4 -25 -18.5 -37.5t-34.5 -12.5q-24 0 -40 17.5t-10 46.5l116 606q3 16 9 26q-25 20 -25 52q0 30 20 48.5t52 18.5t52 -18.5t20 -48.5zM191 522
l-36 -268h80l-36 268q-3 24 -4 31q-1 -7 -4 -31zM221 738q0 26 -26 26t-26 -26q0 -27 26 -27t26 27zM255 824h-100l9 50q9 50 55 50q23 0 37.5 -13t14.5 -34q0 -7 -6 -25z" />
    <glyph glyph-name="aringacute" unicode="&#x1fb;" horiz-adv-x="346" 
d="M131 385v-7q0 -21 -13.5 -33.5t-34.5 -12.5q-23 0 -36 12.5t-13 33.5v14q0 59 35 92.5t103 33.5q139 0 139 -136v-341q0 -22 -14 -35.5t-37 -13.5q-20 0 -33 11.5t-15 28.5q-22 -44 -77 -44q-54 0 -82 44t-28 114q0 72 30 112t90 40q39 0 64 -18v108q0 42 -39 42t-39 -45
zM209 83v123q-16 9 -35 9q-25 0 -36.5 -16t-11.5 -53q0 -74 48 -74q22 0 35 11zM249 613q0 -29 -20.5 -48.5t-51.5 -19.5t-51.5 19.5t-20.5 48.5t20.5 48.5t51.5 19.5t51.5 -19.5t20.5 -48.5zM203 613q0 27 -26 27t-26 -27t26 -27t26 27zM234 704h-102l8 45q5 26 17.5 38
t38.5 12q24 0 37.5 -13t13.5 -34q0 -10 -5 -25z" />
    <glyph glyph-name="AEacute" unicode="&#x1fc;" horiz-adv-x="567" 
d="M246 53v109h-101l-39 -131q-12 -41 -50 -41q-22 0 -36.5 13.5t-14.5 34.5q0 8 4 20l195 592q17 50 75 50h220q21 0 34 -13.5t13 -33.5q0 -21 -13 -34t-34 -13h-147v-204h122q20 0 33.5 -13.5t13.5 -33.5q0 -21 -13.5 -34t-33.5 -13h-122v-214h148q21 0 34 -13.5t13 -33.5
t-13 -33.5t-34 -13.5h-201q-23 0 -38 15t-15 38zM232 468l-61 -214h75v299q-4 -48 -14 -85zM337 742h-89l18 91q9 50 55 50q22 0 37 -13t15 -34q0 -13 -5 -23z" />
    <glyph glyph-name="aeacute" unicode="&#x1fd;" horiz-adv-x="520" 
d="M494 374v-109q0 -19 -11 -30t-29 -11h-140v-109q0 -43 40 -43q41 0 41 43v19q0 49 47 49q23 0 36.5 -13t13.5 -36v-22q-2 -56 -39 -90t-99 -34q-64 0 -102 33q-37 -33 -100 -33t-93.5 43.5t-30.5 115.5q0 73 32 112t91 39q39 0 61 -15v105q0 42 -39 42q-41 0 -41 -46v-17
q0 -21 -13.5 -33.5t-34.5 -12.5q-22 0 -35.5 12.5t-13.5 33.5v25q0 56 35.5 91t105.5 35q53 0 90 -26q28 26 88 26q66 0 103 -38.5t37 -105.5zM180 72q23 0 37 8q-5 19 -5 48v79q-14 8 -35 8q-25 0 -36.5 -16t-11.5 -53q0 -74 51 -74zM394 305v83q0 45 -40 45t-40 -43v-85
h80zM311 549h-89l18 91q9 50 55 50q23 0 37.5 -13t14.5 -34q0 -11 -5 -23z" />
    <glyph glyph-name="Oslashacute" unicode="&#x1fe;" 
d="M36 153v394q0 76 45 121.5t121 45.5q33 0 60 -9l9 28q9 31 42 31q21 0 35.5 -11t14.5 -31q0 -7 -2 -15l-18 -64q25 -41 25 -96v-394q0 -76 -45 -121.5t-121 -45.5q-34 0 -62 9l-8 -26q-11 -35 -47 -35q-18 0 -31.5 11.5t-13.5 30.5q0 8 3 19l19 60q-26 40 -26 98z
M262 138v424q0 27 -16.5 44t-43.5 17t-43.5 -17t-16.5 -44v-424q0 -27 16.5 -44t43.5 -17t43.5 17t16.5 44zM240 742h-88l10 91q6 51 52 51q24 0 38.5 -13t14.5 -35q0 -11 -4 -23z" />
    <glyph glyph-name="oslashacute" unicode="&#x1ff;" horiz-adv-x="358" 
d="M179 -12q-22 0 -38 4l-13 -41q-12 -36 -46 -36q-19 0 -32.5 11.5t-13.5 29.5q0 3 2 13l23 70q-27 35 -27 89v250q0 64 39 102t106 38q21 0 37 -4l11 32q11 32 45 32q18 0 32 -11t14 -30q0 -8 -3 -17l-18 -55q27 -37 27 -87v-250q0 -64 -39 -102t-106 -38zM179 75
q43 0 43 44v268q0 44 -43 44t-43 -44v-268q0 -44 43 -44zM208 549h-86l9 91q4 51 52 51q24 0 37.5 -13t13.5 -35q0 -11 -4 -23z" />
    <glyph glyph-name="Scommaaccent" unicode="&#x218;" horiz-adv-x="371" 
d="M30 149v28q0 51 49 51q24 0 37.5 -14t13.5 -37v-24q0 -78 59 -78q58 0 58 79q0 35 -14 65.5t-29 47.5t-45 44q-65 59 -99.5 112t-34.5 121q0 83 42 126.5t116 43.5q70 0 112 -42.5t42 -114.5v-35q0 -22 -13.5 -35.5t-36.5 -13.5q-22 0 -36 13.5t-14 35.5v32q0 69 -54 69
t-54 -71q0 -44 20.5 -76t61.5 -71q26 -24 37.5 -36t35.5 -39.5t35.5 -49t21.5 -53t10 -63.5q0 -79 -45 -128.5t-119 -49.5q-73 0 -115 45.5t-42 117.5zM145 -91q0 21 13.5 35t34.5 14q23 0 37.5 -15.5t14.5 -40.5q0 -60 -56 -108q-7 -5 -13 -5q-8 0 -14.5 5.5t-6.5 14.5
q0 8 6 14q22 22 29 35q-45 8 -45 51z" />
    <glyph glyph-name="scommaaccent" unicode="&#x219;" horiz-adv-x="331" 
d="M163 -12q-58 0 -97.5 35t-39.5 89v14q0 50 48 50q22 0 35 -13t13 -35v-9q0 -23 11 -36.5t32 -13.5q44 0 44 51q0 30 -15.5 51t-48.5 43q-60 40 -89.5 77.5t-29.5 93.5q0 61 37 97t99 36q65 0 99.5 -34.5t34.5 -93.5v-12q0 -19 -12.5 -32.5t-35.5 -13.5q-24 0 -36 12.5
t-12 33.5v16q0 43 -38 43t-38 -44q0 -29 14.5 -47.5t50.5 -43.5q30 -21 45 -33t35.5 -34t29 -47.5t8.5 -57.5q0 -60 -38.5 -101t-105.5 -41zM125 -91q0 21 13.5 35t34.5 14q23 0 37.5 -15.5t14.5 -40.5q0 -60 -56 -108q-7 -5 -13 -5q-8 0 -14.5 5.5t-6.5 14.5q0 8 6 14
q22 22 29 35q-45 8 -45 51z" />
    <glyph glyph-name="circumflex" unicode="&#x2c6;" horiz-adv-x="280" 
d="M188 549h-22l-26 60l-26 -60h-22q-19 0 -30.5 11.5t-11.5 28.5q0 13 9 27l23 35q14 22 25 30.5t33 8.5t33 -8.5t25 -30.5l23 -35q9 -14 9 -27q0 -17 -11.5 -28.5t-30.5 -11.5z" />
    <glyph glyph-name="caron" unicode="&#x2c7;" horiz-adv-x="280" 
d="M166 690h22q19 0 30.5 -11.5t11.5 -28.5q0 -14 -9 -27l-23 -35q-14 -22 -25 -30.5t-33 -8.5t-33 8.5t-25 30.5l-23 35q-9 13 -9 27q0 17 11.5 28.5t30.5 11.5h22l26 -60z" />
    <glyph glyph-name="breve" unicode="&#x2d8;" horiz-adv-x="302" 
d="M125 645v-3q0 -30 26 -30t26 30v3q0 35 37 35q38 0 38 -36v-3q0 -42 -27 -65t-74 -23t-74 23t-27 65v3q0 36 38 36q37 0 37 -35z" />
    <glyph glyph-name="dotaccent" unicode="&#x2d9;" horiz-adv-x="221" 
d="M50 646q0 26 16 44t44 18t44.5 -18t16.5 -44t-16.5 -43.5t-44.5 -17.5t-44 17.5t-16 43.5z" />
    <glyph glyph-name="ring" unicode="&#x2da;" horiz-adv-x="244" 
d="M194 619q0 -30 -20.5 -50t-51.5 -20t-51.5 20t-20.5 50t20.5 50t51.5 20t51.5 -20t20.5 -50zM148 619q0 29 -26 29t-26 -29t26 -29t26 29z" />
    <glyph glyph-name="ogonek" unicode="&#x2db;" horiz-adv-x="226" 
d="M50 -105q0 38 24.5 69.5t53.5 43.5h48q-48 -50 -48 -88q0 -22 21 -22q10 0 16 3q9 -15 9 -31q0 -19 -16 -30.5t-41 -11.5q-32 0 -49.5 18t-17.5 49z" />
    <glyph glyph-name="tilde" unicode="&#x2dc;" horiz-adv-x="315" 
d="M186 642l21 34q6 2 14 2q20 0 32 -11.5t12 -27.5q0 -9 -7 -23l-14 -23q-18 -30 -50 -30q-23 0 -43 14l-23 16l-18 -30q-8 -2 -16 -2q-19 0 -31.5 11t-12.5 28q0 12 7 25l11 21q15 29 45 29q22 0 43 -14z" />
    <glyph glyph-name="hungarumlaut" unicode="&#x2dd;" horiz-adv-x="326" 
d="M131 549h-81l19 98q8 43 47 43q18 0 31 -12t13 -32q0 -10 -4 -22zM246 549h-81l19 98q8 43 47 43q18 0 31 -12t13 -32q0 -10 -4 -22z" />
    <glyph glyph-name="uni0312" unicode="&#x312;" horiz-adv-x="204" 
d="M154 609q0 -23 -14 -36.5t-36 -13.5q-24 0 -39 16t-15 42q0 56 51 98q6 5 15 5q21 0 21 -19q0 -9 -7 -16q-19 -17 -24 -30q48 -4 48 -46z" />
    <glyph glyph-name="uni0315" unicode="&#x315;" horiz-adv-x="204" 
d="M50 664q0 23 14 36.5t36 13.5q24 0 39 -16t15 -42q0 -62 -58 -112q-8 -6 -15 -6q-21 0 -21 19q0 10 6 16q25 25 31 37q-20 3 -33.5 17.5t-13.5 36.5z" />
    <glyph glyph-name="Omega" unicode="&#x3a9;" horiz-adv-x="426" 
d="M372 549v-364q0 -58 -29 -97q20 0 32.5 -12.5t12.5 -31.5t-13.5 -31.5t-33.5 -12.5h-54q-43 0 -43 43v31q24 44 24 91v402q0 27 -14.5 42.5t-40.5 15.5t-40.5 -15.5t-14.5 -42.5v-402q0 -47 24 -91v-31q0 -43 -43 -43h-54q-20 0 -33.5 12.5t-13.5 31.5t12.5 31.5
t32.5 12.5q-29 39 -29 97v364q0 79 42 122t117 43t117 -43t42 -122z" />
    <glyph glyph-name="pi" unicode="&#x3c0;" horiz-adv-x="487" 
d="M283 416h-87v-373q0 -21 -15 -36t-36 -15t-36 15t-15 36v373h-33q-19 0 -32.5 13t-13.5 32t13.5 32t32.5 13h365q19 0 32.5 -13t13.5 -32t-13.5 -32t-32.5 -13h-41v-317q0 -19 19 -19q4 0 11 1t10 1q39 0 39 -42q0 -50 -81 -50q-49 0 -74.5 26t-25.5 72v328z" />
    <glyph glyph-name="Wgrave" unicode="&#x1e80;" horiz-adv-x="564" 
d="M335 645l67 -407q4 -22 8 -70q2 41 6 71l46 422q5 49 47 49q25 0 38.5 -15t9.5 -41l-94 -617q-7 -47 -52 -47q-22 0 -35.5 13.5t-16.5 34.5l-77 486l-77 -486q-3 -21 -16.5 -34.5t-35.5 -13.5q-45 0 -52 47l-94 617q-4 26 9.5 41t38.5 15q42 0 47 -49l47 -415
q4 -31 6 -69q4 45 8 68l66 402q5 28 17 40.5t36 12.5t36 -12.5t17 -42.5zM325 742h-89l-31 72q-6 14 -6 24q0 22 15 33.5t38 11.5q46 0 55 -49z" />
    <glyph glyph-name="wgrave" unicode="&#x1e81;" horiz-adv-x="510" 
d="M305 470l50 -243q8 -41 15 -92q1 18 9 91l27 243q5 47 47 47q26 0 39 -17t8 -43l-77 -419q-9 -47 -50 -47q-43 0 -52 47l-66 342l-66 -342q-9 -47 -52 -47q-41 0 -50 47l-77 419q-5 27 7.5 43.5t39.5 16.5q42 0 47 -47l27 -243q7 -73 9 -91q7 51 15 92l50 243q9 46 50 46
t50 -46zM299 549h-89l-30 69q-6 15 -6 27q0 22 14.5 33.5t37.5 11.5q45 0 55 -50z" />
    <glyph glyph-name="Wacute" unicode="&#x1e82;" horiz-adv-x="564" 
d="M335 645l67 -407q4 -22 8 -70q2 41 6 71l46 422q5 49 47 49q25 0 38.5 -15t9.5 -41l-94 -617q-7 -47 -52 -47q-22 0 -35.5 13.5t-16.5 34.5l-77 486l-77 -486q-3 -21 -16.5 -34.5t-35.5 -13.5q-45 0 -52 47l-94 617q-4 26 9.5 41t38.5 15q42 0 47 -49l47 -415
q4 -31 6 -69q4 45 8 68l66 402q5 28 17 40.5t36 12.5t36 -12.5t17 -42.5zM331 742h-89l18 91q9 50 55 50q22 0 37 -13t15 -34q0 -13 -5 -23z" />
    <glyph glyph-name="wacute" unicode="&#x1e83;" horiz-adv-x="510" 
d="M305 470l50 -243q8 -41 15 -92q1 18 9 91l27 243q5 47 47 47q26 0 39 -17t8 -43l-77 -419q-9 -47 -50 -47q-43 0 -52 47l-66 342l-66 -342q-9 -47 -52 -47q-41 0 -50 47l-77 419q-5 27 7.5 43.5t39.5 16.5q42 0 47 -47l27 -243q7 -73 9 -91q7 51 15 92l50 243q9 46 50 46
t50 -46zM304 549h-89l18 91q9 50 55 50q23 0 37.5 -13t14.5 -34q0 -11 -5 -23z" />
    <glyph glyph-name="Wdieresis" unicode="&#x1e84;" horiz-adv-x="564" 
d="M335 645l67 -407q4 -22 8 -70q2 41 6 71l46 422q5 49 47 49q25 0 38.5 -15t9.5 -41l-94 -617q-7 -47 -52 -47q-22 0 -35.5 13.5t-16.5 34.5l-77 486l-77 -486q-3 -21 -16.5 -34.5t-35.5 -13.5q-45 0 -52 47l-94 617q-4 26 9.5 41t38.5 15q42 0 47 -49l47 -415
q4 -31 6 -69q4 45 8 68l66 402q5 28 17 40.5t36 12.5t36 -12.5t17 -42.5zM164 803q0 23 14 38t37 15q24 0 38 -15t14 -38q0 -22 -14 -37t-38 -15q-23 0 -37 15t-14 37zM297 803q0 23 14 38t37 15q24 0 38 -15t14 -38q0 -22 -14 -37t-38 -15q-23 0 -37 15t-14 37z" />
    <glyph glyph-name="wdieresis" unicode="&#x1e85;" horiz-adv-x="510" 
d="M305 470l50 -243q8 -41 15 -92q1 18 9 91l27 243q5 47 47 47q26 0 39 -17t8 -43l-77 -419q-9 -47 -50 -47q-43 0 -52 47l-66 342l-66 -342q-9 -47 -52 -47q-41 0 -50 47l-77 419q-5 27 7.5 43.5t39.5 16.5q42 0 47 -47l27 -243q7 -73 9 -91q7 51 15 92l50 243q9 46 50 46
t50 -46zM137 616q0 23 14 38t37 15q24 0 38 -15t14 -38q0 -22 -14 -37t-38 -15q-23 0 -37 15t-14 37zM270 616q0 23 14 38t37 15q24 0 38 -15t14 -38q0 -22 -14 -37t-38 -15q-23 0 -37 15t-14 37z" />
    <glyph glyph-name="Ygrave" unicode="&#x1ef2;" horiz-adv-x="352" 
d="M181 458l64 213q12 39 52 39q23 0 38 -13.5t15 -34.5q0 -11 -4 -21l-117 -326v-272q0 -23 -15 -38t-38 -15t-38 15t-15 38v272l-117 326q-4 10 -4 21q0 21 15 34.5t38 13.5q40 0 52 -39l64 -213q4 -13 5 -22q1 9 5 22zM221 742h-89l-31 72q-6 14 -6 24q0 22 15 33.5
t38 11.5q46 0 55 -49z" />
    <glyph glyph-name="ygrave" unicode="&#x1ef3;" horiz-adv-x="322" 
d="M313 456l-98 -415l-37 -173q-8 -40 -46 -40q-21 0 -33.5 12t-12.5 31q0 8 2 18l27 132q-4 8 -7 20l-99 415q-2 10 -2 15q0 22 14.5 33.5t35.5 11.5q42 0 49 -42l50 -291q3 -17 5 -45q0 20 5 45l50 291q7 42 49 42q22 0 36 -12t14 -33q0 -5 -2 -15zM215 549h-89l-30 69
q-6 15 -6 27q0 22 14.5 33.5t37.5 11.5q45 0 55 -50z" />
    <glyph glyph-name="endash" unicode="&#x2013;" horiz-adv-x="450" 
d="M88 245q-22 0 -35 12t-13 33t13 33t35 12h274q22 0 35 -12t13 -33t-13 -33t-35 -12h-274z" />
    <glyph glyph-name="emdash" unicode="&#x2014;" horiz-adv-x="700" 
d="M88 245q-22 0 -35 12t-13 33t13 33t35 12h524q22 0 35 -12t13 -33t-13 -33t-35 -12h-524z" />
    <glyph glyph-name="quoteleft" unicode="&#x2018;" horiz-adv-x="149" 
d="M134 541q0 -26 -17.5 -43t-43.5 -17q-27 0 -45 19t-18 50q0 44 21 85.5t55 68.5q7 6 16 6q10 0 18 -7.5t8 -17.5t-7 -17q-32 -36 -43 -63q24 -4 40 -20.5t16 -43.5z" />
    <glyph glyph-name="quoteright" unicode="&#x2019;" horiz-adv-x="149" 
d="M15 650q0 26 17.5 43t43.5 17q27 0 45 -19t18 -50q0 -44 -21 -85.5t-55 -68.5q-8 -6 -16 -6q-10 0 -18 7.5t-8 17.5t7 17q32 36 43 63q-24 4 -40 20.5t-16 43.5z" />
    <glyph glyph-name="quotesinglbase" unicode="&#x201a;" horiz-adv-x="184" 
d="M30 58q0 26 17.5 43t43.5 17q27 0 45 -19t18 -50q0 -44 -21 -85.5t-55 -68.5q-8 -6 -16 -6q-10 0 -18 7.5t-8 17.5t7 17q32 36 43 63q-24 4 -40 20.5t-16 43.5z" />
    <glyph glyph-name="quotedblleft" unicode="&#x201c;" horiz-adv-x="305" 
d="M290 541q0 -26 -17.5 -43t-43.5 -17q-27 0 -45 19t-18 50q0 44 21 85.5t55 68.5q8 6 16 6q10 0 18 -7.5t8 -17.5t-7 -17q-32 -36 -43 -63q24 -4 40 -20.5t16 -43.5zM134 541q0 -26 -17.5 -43t-43.5 -17q-27 0 -45 19t-18 50q0 44 21 85.5t55 68.5q7 6 16 6q10 0 18 -7.5
t8 -17.5t-7 -17q-32 -36 -43 -63q24 -4 40 -20.5t16 -43.5z" />
    <glyph glyph-name="quotedblright" unicode="&#x201d;" horiz-adv-x="305" 
d="M15 650q0 26 17.5 43t43.5 17q27 0 45 -19t18 -50q0 -44 -21 -85.5t-55 -68.5q-8 -6 -16 -6q-10 0 -18 7.5t-8 17.5t7 17q32 36 43 63q-24 4 -40 20.5t-16 43.5zM171 650q0 26 17.5 43t43.5 17q27 0 45 -19t18 -50q0 -44 -21 -85.5t-55 -68.5q-7 -6 -16 -6q-10 0 -18 7.5
t-8 17.5t7 17q32 36 43 63q-24 4 -40 20.5t-16 43.5z" />
    <glyph glyph-name="quotedblbase" unicode="&#x201e;" horiz-adv-x="340" 
d="M30 58q0 26 17.5 43t43.5 17q27 0 45 -19t18 -50q0 -44 -21 -85.5t-55 -68.5q-8 -6 -16 -6q-10 0 -18 7.5t-8 17.5t7 17q32 36 43 63q-24 4 -40 20.5t-16 43.5zM186 58q0 26 17.5 43t43.5 17q27 0 45 -19t18 -50q0 -44 -21 -85.5t-55 -68.5q-7 -6 -16 -6q-10 0 -18 7.5
t-8 17.5t7 17q32 36 43 63q-24 4 -40 20.5t-16 43.5z" />
    <glyph glyph-name="dagger" unicode="&#x2020;" horiz-adv-x="340" 
d="M120 230v249h-51q-19 0 -31.5 13t-12.5 31t12.5 31t31.5 13h51v92q0 23 13.5 37t36.5 14t36.5 -14t13.5 -37v-92h51q19 0 31.5 -13t12.5 -31t-12.5 -31t-31.5 -13h-51v-249l-24 -326q-2 -24 -26 -24t-26 24z" />
    <glyph glyph-name="daggerdbl" unicode="&#x2021;" horiz-adv-x="340" 
d="M120 111v59l14 125l-14 125v59h-51q-19 0 -31.5 13t-12.5 31t12.5 31t31.5 13h51v92q0 23 13.5 37t36.5 14t36.5 -14t13.5 -37v-92h51q19 0 31.5 -13t12.5 -31t-12.5 -31t-31.5 -13h-51v-59l-14 -125l14 -125v-59h51q19 0 31.5 -13t12.5 -31t-12.5 -31t-31.5 -13h-51v-92
q0 -23 -13.5 -37t-36.5 -14t-36.5 14t-13.5 37v92h-51q-19 0 -31.5 13t-12.5 31t12.5 31t31.5 13h51z" />
    <glyph glyph-name="bullet" unicode="&#x2022;" horiz-adv-x="330" 
d="M290 360q0 -51 -35.5 -87.5t-89.5 -36.5t-89.5 36.5t-35.5 87.5q0 54 35 89t90 35t90 -35t35 -89z" />
    <glyph glyph-name="ellipsis" unicode="&#x2026;" horiz-adv-x="582" 
d="M35 55q0 26 17 44.5t45 18.5t45 -18.5t17 -44.5t-17 -44.5t-45 -18.5t-45 18.5t-17 44.5zM229 55q0 26 17 44.5t45 18.5t45 -18.5t17 -44.5t-17 -44.5t-45 -18.5t-45 18.5t-17 44.5zM423 55q0 26 17 44.5t45 18.5t45 -18.5t17 -44.5t-17 -44.5t-45 -18.5t-45 18.5
t-17 44.5z" />
    <glyph glyph-name="perthousand" unicode="&#x2030;" horiz-adv-x="940" 
d="M450 669l-164 -651q-8 -28 -34 -28q-18 0 -28 12t-6 29l165 653q7 26 33 26q19 0 28.5 -11.5t5.5 -29.5zM272 595v-167q0 -57 -31 -87t-85 -30t-85 30t-31 87v167q0 57 31 87t85 30t85 -30t31 -87zM186 418v187q0 34 -30 34t-30 -34v-187q0 -34 30 -34t30 34zM628 272
v-167q0 -57 -31 -87t-85 -30t-85 30t-31 87v167q0 57 31 87t85 30t85 -30t31 -87zM542 95v187q0 34 -30 34t-30 -34v-187q0 -34 30 -34t30 34zM905 272v-167q0 -57 -31 -87t-85 -30t-85 30t-31 87v167q0 57 31 87t85 30t85 -30t31 -87zM819 95v187q0 34 -30 34t-30 -34v-187
q0 -34 30 -34t30 34z" />
    <glyph glyph-name="guilsinglleft" unicode="&#x2039;" horiz-adv-x="263" 
d="M41 331l107 136q14 18 35 18q20 0 32.5 -12t12.5 -30q0 -12 -11 -28l-97 -123l97 -123q11 -16 11 -28q0 -18 -12.5 -30t-32.5 -12q-21 0 -35 18l-107 136q-16 19 -16 39t16 39z" />
    <glyph glyph-name="guilsinglright" unicode="&#x203a;" horiz-adv-x="263" 
d="M115 467l107 -136q16 -19 16 -39t-16 -39l-107 -136q-13 -18 -35 -18q-20 0 -32.5 12t-12.5 30q0 12 11 28l97 123l-97 123q-11 16 -11 28q0 18 12.5 30t32.5 12q22 0 35 -18z" />
    <glyph glyph-name="fraction" unicode="&#x2044;" horiz-adv-x="236" 
d="M234 669l-164 -651q-8 -28 -34 -28q-18 0 -28 12t-6 29l165 653q7 26 33 26q19 0 28.5 -11.5t5.5 -29.5z" />
    <glyph glyph-name="Euro" unicode="&#x20ac;" horiz-adv-x="411" 
d="M233 714q74 0 112 -45.5t38 -123.5v-17q0 -23 -13.5 -37t-36.5 -14t-36.5 14t-13.5 37v46q0 24 -14 37.5t-36 13.5q-50 0 -50 -51v-107h53q20 0 31.5 -11.5t11.5 -31.5q0 -18 -12 -29.5t-31 -11.5h-53v-66h53q20 0 31.5 -11.5t11.5 -31.5q0 -18 -12 -29.5t-31 -11.5h-53
v-107q0 -51 50 -51q22 0 36 13.5t14 37.5v46q0 23 13.5 37t36.5 14t36.5 -14t13.5 -37v-17q0 -78 -38 -123.5t-112 -45.5q-75 0 -114.5 44.5t-39.5 122.5v80h-26q-19 0 -31 11.5t-12 29.5q0 20 12 31.5t31 11.5h26v66h-26q-19 0 -31 11.5t-12 29.5q0 20 12 31.5t31 11.5h26
v80q0 78 39.5 122.5t114.5 44.5z" />
    <glyph glyph-name="published" unicode="&#x2117;" horiz-adv-x="748" 
d="M728 350q0 -150 -101.5 -256t-252.5 -106t-252.5 106t-101.5 256t101.5 256t252.5 106t252.5 -106t101.5 -256zM685 350q0 131 -87.5 227t-223.5 96t-223.5 -96t-87.5 -227t87.5 -227t223.5 -96t223.5 96t87.5 227zM385 311h-21v-120q0 -15 -8.5 -24.5t-23.5 -9.5
t-24 9.5t-9 24.5v324q0 14 9 23.5t24 9.5h54q99 0 99 -98v-40q0 -45 -27 -72t-73 -27zM419 406v47q0 38 -34 38h-21v-124h20q35 0 35 39z" />
    <glyph glyph-name="trademark" unicode="&#x2122;" horiz-adv-x="466" 
d="M176 649h-37v-261q0 -12 -8 -20.5t-21 -8.5t-21.5 8.5t-8.5 20.5v261h-35q-11 0 -18 7t-7 19q0 11 7 18t18 7h131q10 0 17 -7t7 -18q0 -26 -24 -26zM327 457q-18 0 -24 21l-21 66v-157q0 -12 -7.5 -20t-19.5 -8t-19.5 8t-7.5 20v288q0 30 26 30q20 0 27 -24l46 -151
l46 151q7 24 27 24q26 0 26 -30v-288q0 -12 -7.5 -20t-19.5 -8t-19.5 8t-7.5 20v157l-21 -66q-6 -21 -24 -21z" />
    <glyph glyph-name="partialdiff" unicode="&#x2202;" horiz-adv-x="366" 
d="M143 709q185 -77 185 -281v-298q0 -63 -40 -103.5t-105 -40.5t-105 40.5t-40 103.5v229q0 139 119 139q46 0 76 -26q-9 58 -36 91.5t-86 63.5q-33 16 -33 42q0 44 47 44q6 0 18 -4zM140 367v-252q0 -20 12.5 -31.5t30.5 -11.5t30.5 11.5t12.5 31.5v284q-19 12 -42 12
q-24 0 -34 -10.5t-10 -33.5z" />
    <glyph glyph-name="Delta" unicode="&#x2206;" horiz-adv-x="424" 
d="M212 708q37 0 47 -42l140 -592q7 -31 -8.5 -52.5t-46.5 -21.5h-264q-31 0 -46.5 21.5t-8.5 52.5l140 592q10 42 47 42zM295 90l-83 421l-83 -421h166z" />
    <glyph glyph-name="product" unicode="&#x220f;" horiz-adv-x="504" 
d="M205 610v-727q0 -22 -14 -36.5t-38 -14.5t-38 14.5t-14 36.5v727h-35q-19 0 -32.5 13t-13.5 32t13.5 32t32.5 13h372q19 0 32.5 -13t13.5 -32t-13.5 -32t-32.5 -13h-35v-727q0 -22 -14 -36.5t-38 -14.5t-38 14.5t-14 36.5v727h-94z" />
    <glyph glyph-name="summation" unicode="&#x2211;" horiz-adv-x="335" 
d="M244 240l-104 -318h130q19 0 32 -13.5t13 -31.5q0 -19 -12.5 -32t-32.5 -13h-200q-20 0 -32.5 12t-12.5 31q0 8 6 26l125 365l-125 365q-6 18 -6 26q0 19 12.5 31t32.5 12h200q20 0 32.5 -13t12.5 -32q0 -18 -13 -31.5t-32 -13.5h-130l104 -318q6 -18 6 -26q0 -10 -6 -26
z" />
    <glyph glyph-name="minus" unicode="&#x2212;" horiz-adv-x="432" 
d="M35 350q0 20 12.5 32t31.5 12h274q19 0 31.5 -12t12.5 -32t-12.5 -32t-31.5 -12h-274q-19 0 -31.5 12t-12.5 32z" />
    <glyph glyph-name="radical" unicode="&#x221a;" horiz-adv-x="382" 
d="M157 16l-120 243q-7 14 -7 28q0 20 14 31t32 11q29 0 42 -29l65 -149l75 520q6 39 46 39q24 0 37.5 -14.5t9.5 -41.5l-101 -619q-7 -43 -49 -43q-33 0 -44 24z" />
    <glyph glyph-name="infinity" unicode="&#x221e;" horiz-adv-x="724" 
d="M362 298q-29 -40 -72.5 -67.5t-93.5 -27.5q-70 0 -115.5 38t-45.5 110t45.5 110t115.5 38q50 0 93.5 -27.5t72.5 -67.5q29 40 72.5 67.5t93.5 27.5q70 0 115.5 -38t45.5 -110t-45.5 -110t-115.5 -38q-50 0 -93.5 27.5t-72.5 67.5zM526 288q31 0 50 16.5t19 46.5t-19 46.5
t-50 16.5q-54 0 -105 -63q51 -63 105 -63zM198 288q54 0 105 63q-51 63 -105 63q-31 0 -50 -16.5t-19 -46.5t19 -46.5t50 -16.5z" />
    <glyph glyph-name="integral" unicode="&#x222b;" horiz-adv-x="275" 
d="M79 -52v641q0 63 27 91t87 28q67 0 67 -45t-50 -45q-17 0 -23 -7t-6 -23v-641q0 -119 -114 -119q-67 0 -67 45t50 45q17 0 23 7t6 23z" />
    <glyph glyph-name="approxequal" unicode="&#x2248;" horiz-adv-x="418" 
d="M319 471q12 11 28 11q17 0 28.5 -12t11.5 -28q0 -14 -11 -25q-50 -52 -99 -52q-27 0 -70 18t-66 18q-19 0 -45 -20q-12 -9 -26 -9q-16 0 -27.5 10.5t-11.5 27.5q0 20 14 33q48 43 96 43q30 0 76.5 -19t56.5 -19q7 0 12 1t10 4t7 4t8.5 7t7.5 7zM319 316q12 11 28 11
q17 0 28.5 -12t11.5 -28q0 -14 -11 -25q-50 -52 -99 -52q-27 0 -70 18t-66 18q-19 0 -45 -20q-12 -9 -26 -9q-16 0 -27.5 10.5t-11.5 27.5q0 20 14 33q48 43 96 43q30 0 76.5 -19t56.5 -19q7 0 12 1t10 4t7 4t8.5 7t7.5 7z" />
    <glyph glyph-name="notequal" unicode="&#x2260;" horiz-adv-x="478" 
d="M438 260q0 -20 -12 -32t-32 -12h-169l-39 -86q-13 -27 -39 -27q-18 0 -31 11t-13 28q0 12 6 24l22 50h-47q-20 0 -32 12t-12 32t12 32t32 12h87l42 92h-129q-20 0 -32 12t-12 32t12 32t32 12h169l41 89q11 25 39 25q18 0 30.5 -11t12.5 -29q0 -8 -5 -20l-25 -54h48
q20 0 32 -12t12 -32t-12 -32t-32 -12h-88l-41 -92h129q20 0 32 -12t12 -32z" />
    <glyph glyph-name="lessequal" unicode="&#x2264;" horiz-adv-x="463" 
d="M63 365l287 142q10 6 22 6q18 0 30.5 -13t12.5 -32q0 -27 -26 -39l-223 -104l223 -104q26 -12 26 -39q0 -19 -12.5 -32t-30.5 -13q-12 0 -22 6l-287 142q-26 14 -26 40t26 40zM30 42q0 19 12 30.5t32 11.5h310q20 0 32 -11.5t12 -30.5t-12 -30.5t-32 -11.5h-310
q-20 0 -32 11.5t-12 30.5z" />
    <glyph glyph-name="greaterequal" unicode="&#x2265;" horiz-adv-x="463" 
d="M433 42q0 -19 -12 -30.5t-32 -11.5h-310q-20 0 -32 11.5t-12 30.5t12 30.5t32 11.5h310q20 0 32 -11.5t12 -30.5zM113 507l287 -142q26 -14 26 -40t-26 -40l-287 -142q-10 -6 -22 -6q-18 0 -30.5 13t-12.5 32q0 27 26 39l223 104l-223 104q-26 12 -26 39q0 19 12.5 32
t30.5 13q12 0 22 -6z" />
    <glyph glyph-name="lozenge" unicode="&#x25ca;" horiz-adv-x="446" 
d="M267 681l137 -308q7 -16 7 -23t-7 -23l-137 -308q-14 -29 -44 -29t-44 29l-137 308q-7 16 -7 23t7 23l137 308q14 29 44 29t44 -29zM223 125l90 225l-90 225l-90 -225z" />
    <glyph glyph-name="undercommaaccent" unicode="&#xf005;" horiz-adv-x="200" 
d="M50 -91q0 21 14 35t34 14q23 0 37.5 -15.5t14.5 -40.5q0 -60 -56 -108q-7 -5 -13 -5q-8 0 -14.5 5.5t-6.5 14.5q0 8 6 14q22 22 29 35q-45 8 -45 51z" />
    <glyph glyph-name="Apple" unicode="&#xf8ff;" horiz-adv-x="785" 
d="M55 163v362q0 74 50.5 124.5t124.5 50.5h350q74 0 124.5 -50t50.5 -124t-50.5 -124t-124.5 -50h-175v-189q0 -74 -50.5 -124.5t-124.5 -50.5t-124.5 50.5t-50.5 124.5z" />
    <glyph glyph-name="acute.case" horiz-adv-x="226" 
d="M139 742h-89l18 91q9 50 55 50q22 0 37 -13t15 -34q0 -13 -5 -23z" />
    <glyph glyph-name="breve.case" horiz-adv-x="312" 
d="M127 835v-3q0 -28 29 -28t29 28v3q0 35 38 35q18 0 28.5 -10t10.5 -27v-2q0 -42 -28.5 -65t-77.5 -23t-77.5 23t-28.5 65v2q0 17 10.5 27t28.5 10q38 0 38 -35z" />
    <glyph glyph-name="caron.case" horiz-adv-x="280" 
d="M166 883h22q19 0 30.5 -11.5t11.5 -28.5q0 -13 -9 -27l-23 -35q-14 -22 -25 -30.5t-33 -8.5t-33 8.5t-25 30.5l-23 35q-9 14 -9 27q0 17 11.5 28.5t30.5 11.5h22l26 -60z" />
    <glyph glyph-name="circumflex.case" horiz-adv-x="280" 
d="M188 742h-22l-26 60l-26 -60h-22q-19 0 -30.5 11.5t-11.5 28.5q0 14 9 27l23 35q14 22 25 30.5t33 8.5t33 -8.5t25 -30.5l23 -35q9 -13 9 -27q0 -17 -11.5 -28.5t-30.5 -11.5z" />
    <glyph glyph-name="dieresis.case" horiz-adv-x="336" 
d="M50 803q0 23 14 38t37 15q24 0 38 -15t14 -38q0 -22 -14 -37t-38 -15q-23 0 -37 15t-14 37zM183 803q0 23 14 38t37 15q24 0 38 -15t14 -38q0 -22 -14 -37t-38 -15q-23 0 -37 15t-14 37z" />
    <glyph glyph-name="dotaccent.case" horiz-adv-x="221" 
d="M50 812q0 26 16 44t44 18t44.5 -18t16.5 -44t-16.5 -43.5t-44.5 -17.5t-44 17.5t-16 43.5z" />
    <glyph glyph-name="grave.case" horiz-adv-x="226" 
d="M176 742h-89l-31 72q-6 14 -6 24q0 22 15 33.5t38 11.5q46 0 55 -49z" />
    <glyph glyph-name="hungarumlaut.case" horiz-adv-x="328" 
d="M131 742h-81l19 98q8 43 47 43q19 0 31.5 -11t12.5 -31q0 -12 -4 -24zM248 742h-81l19 98q8 43 47 43q19 0 31.5 -11t12.5 -31q0 -12 -4 -24z" />
    <glyph glyph-name="macron.case" horiz-adv-x="353" 
d="M50 809q0 19 11.5 30.5t30.5 11.5h169q19 0 30.5 -11.5t11.5 -30.5t-11.5 -30.5t-30.5 -11.5h-169q-20 0 -31 11.5t-11 30.5z" />
    <glyph glyph-name="ring.case" horiz-adv-x="244" 
d="M194 812q0 -30 -20.5 -50t-51.5 -20t-51.5 20t-20.5 50t20.5 50t51.5 20t51.5 -20t20.5 -50zM148 812q0 29 -26 29t-26 -29t26 -29t26 29z" />
    <glyph glyph-name="tilde.case" horiz-adv-x="327" 
d="M198 829l22 35q6 2 13 2q20 0 32 -11.5t12 -27.5q0 -13 -7 -24l-14 -23q-19 -31 -50 -31q-22 0 -49 15l-29 16l-18 -30q-6 -2 -15 -2q-21 0 -33.5 11t-12.5 28q0 13 8 27l11 19q17 28 47 28q22 0 47 -13z" />
    <glyph glyph-name="ornm01.ornm" horiz-adv-x="816" 
d="M295 640q64 0 118.5 -25t96 -62.5t79.5 -77t86.5 -75t99.5 -49.5q-63 22 -120 87.5t-57 130.5q0 27 17 43.5t45 16.5q60 0 63 -62q6 -153 63 -217q-57 -64 -63 -217q-3 -62 -63 -62q-28 0 -45 16.5t-17 43.5q0 65 57 130.5t120 87.5q-51 -14 -99.5 -49.5t-86.5 -75
t-79.5 -77t-96 -62.5t-118.5 -25q-69 0 -120.5 24t-79.5 66.5t-41.5 92t-13.5 107.5t13.5 107.5t41.5 92t79.5 66.5t120.5 24z" />
    <glyph glyph-name="ornm02.ornm" horiz-adv-x="816" 
d="M521 640q69 0 120.5 -24t79.5 -66.5t41.5 -92t13.5 -107.5t-13.5 -107.5t-41.5 -92t-79.5 -66.5t-120.5 -24q-64 0 -118.5 25t-96 62.5t-79.5 77t-86.5 75t-99.5 49.5q63 -22 120 -87.5t57 -130.5q0 -27 -17 -43.5t-45 -16.5q-60 0 -63 62q-6 153 -63 217q57 64 63 217
q3 62 63 62q28 0 45 -16.5t17 -43.5q0 -65 -57 -130.5t-120 -87.5q51 14 99.5 49.5t86.5 75t79.5 77t96 62.5t118.5 25z" />
    <glyph glyph-name="ornm03.ornm" horiz-adv-x="1010" 
d="M295 648h201q102 0 163.5 -31.5t88.5 -107.5q20 -57 39.5 -92.5t50.5 -61.5h133q-63 7 -99 41t-36 88q0 35 16 76q21 -65 48.5 -108.5t79.5 -101.5q-52 -58 -79.5 -101.5t-48.5 -108.5q-16 41 -16 76q0 54 36 88t99 41h-133q-31 -26 -50.5 -61.5t-39.5 -92.5
q-27 -76 -88.5 -107.5t-163.5 -31.5h-201q-127 0 -191 83.5t-64 214.5t64 214.5t191 83.5z" />
    <glyph glyph-name="ornm04.ornm" horiz-adv-x="1010" 
d="M514 648h201q127 0 191 -83.5t64 -214.5t-64 -214.5t-191 -83.5h-201q-102 0 -163.5 31.5t-88.5 107.5q-20 57 -39.5 92.5t-50.5 61.5h-133q63 -7 99 -41t36 -88q0 -35 -16 -76q-21 65 -48.5 108.5t-79.5 101.5q52 58 79.5 101.5t48.5 108.5q16 -41 16 -76q0 -54 -36 -88
t-99 -41h133q31 26 50.5 61.5t39.5 92.5q27 76 88.5 107.5t163.5 31.5z" />
    <glyph glyph-name="ornm05.ornm" horiz-adv-x="915" 
d="M885 350q-142 -86 -147 -251q-57 19 -57 83q0 57 48.5 108t123.5 57q-45 0 -93.5 -27t-92.5 -65.5t-89 -77t-98 -65.5t-105 -27q-51 0 -92.5 19.5t-71.5 51t-55.5 65.5t-58.5 71t-67 58q34 21 67 58t58.5 71t55.5 65.5t71.5 51t92.5 19.5q52 0 105 -27t98 -65.5t89 -77
t92.5 -65.5t93.5 -27q-75 6 -123.5 57t-48.5 108q0 64 57 83q5 -165 147 -251z" />
    <glyph glyph-name="ornm06.ornm" horiz-adv-x="915" 
d="M30 350q142 86 147 251q57 -19 57 -83q0 -57 -48.5 -108t-123.5 -57q45 0 93.5 27t92.5 65.5t89 77t98 65.5t105 27q51 0 92.5 -19.5t71.5 -51t55.5 -65.5t58.5 -71t67 -58q-34 -21 -67 -58t-58.5 -71t-55.5 -65.5t-71.5 -51t-92.5 -19.5q-52 0 -105 27t-98 65.5t-89 77
t-92.5 65.5t-93.5 27q75 -6 123.5 -57t48.5 -108q0 -64 -57 -83q-5 165 -147 251z" />
    <glyph glyph-name="ornm07.ornm" horiz-adv-x="973" 
d="M492 511l173 -153q-12 127 -114 263q170 -144 407 -271q-237 -127 -407 -271q102 136 114 263l-173 -153q-110 -97 -223 -97q-102 0 -165.5 72t-63.5 186t63.5 186t165.5 72q113 0 223 -97z" />
    <glyph glyph-name="ornm08.ornm" horiz-adv-x="973" 
d="M308 358l173 153q110 97 223 97q102 0 165.5 -72t63.5 -186t-63.5 -186t-165.5 -72q-113 0 -223 97l-173 153q12 -127 114 -263q-170 144 -407 271q237 127 407 271q-102 -136 -114 -263z" />
    <glyph glyph-name="ornm09.ornm" horiz-adv-x="1005" 
d="M975 350q-62 -46 -91 -170q-27 -120 -131 -120q-54 0 -84.5 28.5t-30.5 75.5q0 46 19.5 79t47 51t72.5 29.5t81.5 15t87.5 4.5h-302q-3 -106 -92.5 -175.5t-212.5 -69.5q-129 0 -211.5 67.5t-82.5 184.5t82.5 184.5t211.5 67.5q123 0 212.5 -69.5t92.5 -175.5h302
q-50 1 -87.5 4.5t-81.5 14.5t-72.5 29.5t-47.5 51.5t-19 79q0 47 30.5 75.5t84.5 28.5q104 0 131 -120q29 -124 91 -170z" />
    <glyph glyph-name="ornm10.ornm" horiz-adv-x="1005" 
d="M30 350q62 46 91 170q27 120 131 120q54 0 84.5 -28.5t30.5 -75.5q0 -46 -19 -79t-47.5 -51.5t-72.5 -29.5t-81.5 -14.5t-87.5 -4.5h302q3 106 92.5 175.5t212.5 69.5q129 0 211.5 -67.5t82.5 -184.5t-82.5 -184.5t-211.5 -67.5q-123 0 -212.5 69.5t-92.5 175.5h-302
q51 -1 87.5 -4.5t81.5 -15t72.5 -29.5t47 -51t19.5 -79q0 -47 -30.5 -75.5t-84.5 -28.5q-104 0 -131 120q-29 124 -91 170z" />
    <glyph glyph-name="ornm11.ornm" horiz-adv-x="662" 
d="M632 350l-28 -195q-13 -94 -88 -94q-31 0 -55.5 20.5t-24.5 53.5q0 32 27 66q46 58 157 144q-60 -37 -126 -93t-107 -95t-93.5 -68t-102.5 -29q-70 0 -110.5 40.5t-40.5 109.5q0 48 27 85t70 55q-43 18 -70 55t-27 85q0 69 40.5 109.5t110.5 40.5q50 0 102.5 -29
t93.5 -68t107 -95t126 -93q-111 86 -157 144q-27 34 -27 66q0 33 24.5 53.5t55.5 20.5q75 0 88 -94z" />
    <glyph glyph-name="ornm12.ornm" horiz-adv-x="662" 
d="M58 155l-28 195l28 195q13 94 88 94q31 0 55.5 -20.5t24.5 -53.5q0 -32 -27 -66q-46 -58 -157 -144q60 37 126 93t107 95t93.5 68t102.5 29q70 0 110.5 -40.5t40.5 -109.5q0 -48 -27 -85t-70 -55q43 -18 70 -55t27 -85q0 -69 -40.5 -109.5t-110.5 -40.5q-50 0 -102.5 29
t-93.5 68t-107 95t-126 93q111 -86 157 -144q27 -34 27 -66q0 -33 -24.5 -53.5t-55.5 -20.5q-75 0 -88 94z" />
    <glyph glyph-name="ornm13.ornm" horiz-adv-x="902" 
d="M123 350l-70 220q-3 10 -3 21q0 23 15.5 37t42.5 14q41 0 55 -44l73 -240h42l-67 212q-3 10 -3 21q0 23 15.5 37t42.5 14q41 0 55 -44l73 -240h42l-67 212q-3 11 -3 21q0 23 15.5 37t42.5 14q41 0 55 -44l73 -240h42l-67 212q-3 11 -3 21q0 23 15.5 37t42.5 14
q41 0 55 -44l73 -240h89q-47 47 -47 121q0 28 8 58q43 -112 127 -187q-84 -75 -127 -187q-8 30 -8 58q0 74 47 121h-89l-73 -240q-14 -44 -55 -44q-27 0 -42.5 14t-15.5 37q0 11 3 21l67 212h-42l-73 -240q-14 -44 -55 -44q-27 0 -42.5 14t-15.5 37q0 11 3 21l67 212h-42
l-73 -240q-14 -44 -55 -44q-27 0 -42.5 14t-15.5 37q0 11 3 21l67 212h-42l-73 -240q-14 -44 -55 -44q-27 0 -42.5 14t-15.5 37q0 11 3 21z" />
    <glyph glyph-name="ornm14.ornm" horiz-adv-x="902" 
d="M849 570l-70 -220l70 -220q3 -10 3 -21q0 -23 -15.5 -37t-42.5 -14q-41 0 -55 44l-73 240h-42l67 -212q3 -10 3 -21q0 -23 -15.5 -37t-42.5 -14q-41 0 -55 44l-73 240h-42l67 -212q3 -10 3 -21q0 -23 -15.5 -37t-42.5 -14q-41 0 -55 44l-73 240h-42l67 -212q3 -11 3 -21
q0 -23 -15.5 -37t-42.5 -14q-41 0 -55 44l-73 240h-89q47 -47 47 -121q0 -28 -8 -58q-43 112 -127 187q84 75 127 187q8 -30 8 -58q0 -74 -47 -121h89l73 240q14 44 55 44q27 0 42.5 -14t15.5 -37q0 -11 -3 -21l-67 -212h42l73 240q14 44 55 44q27 0 42.5 -14t15.5 -37
q0 -11 -3 -21l-67 -212h42l73 240q14 44 55 44q27 0 42.5 -14t15.5 -37q0 -11 -3 -21l-67 -212h42l73 240q14 44 55 44q27 0 42.5 -14t15.5 -37q0 -11 -3 -21z" />
    <glyph glyph-name="ornm15.ornm" horiz-adv-x="813" 
d="M278 556q108 0 190 -59.5t91 -139.5h201q-73 10 -123.5 34t-85.5 70q-20 26 -20 54q0 32 22.5 52.5t58.5 20.5q47 0 68 -46q5 -11 16.5 -38t18.5 -41.5t19.5 -36.5t28 -40.5t35.5 -35.5q-25 -22 -45 -50t-27.5 -41.5t-25.5 -54.5t-20 -46q-21 -46 -68 -46
q-36 0 -58.5 20.5t-22.5 52.5q0 28 20 54q35 46 85.5 70t123.5 34h-201q-9 -80 -91 -139.5t-190 -59.5q-109 0 -178.5 58.5t-69.5 147.5t69.5 147.5t178.5 58.5z" />
    <glyph glyph-name="ornm16.ornm" horiz-adv-x="813" 
d="M535 556q109 0 178.5 -58.5t69.5 -147.5t-69.5 -147.5t-178.5 -58.5q-108 0 -190 59.5t-91 139.5h-201q73 -10 123.5 -34t85.5 -70q20 -26 20 -54q0 -32 -22.5 -52.5t-58.5 -20.5q-47 0 -68 46q-5 11 -16.5 38t-18.5 41.5t-19.5 36.5t-28 40.5t-35.5 35.5q25 22 45 50
t27.5 41.5t25.5 54.5t20 46q21 46 68 46q36 0 58.5 -20.5t22.5 -52.5q0 -28 -20 -54q-35 -46 -85.5 -70t-123.5 -34h201q9 80 91 139.5t190 59.5z" />
    </font>
</defs>
</svg>
